<svg width="64" height="64" viewBox="0 0 64 64" fill="none" xmlns="http://www.w3.org/2000/svg">
<path d="M53.1525 32.5407C53.1525 44.7802 29.7007 44.4739 17.3385 44.4739C-8.48906 43.1101 2.18642 34.5518 2.18642 22.3122C2.18642 10.0726 4.9763 0.150527 17.3385 0.150527C22.5449 0.150527 34.5395 -1.15113 41.0996 3.90095C47.9869 12.4247 53.1525 25.4559 53.1525 32.5407Z" fill="#FFA4A4" fill-opacity="0.31"/>
<g clip-path="url(#clip0_150_514)">
<path opacity="0.946" fill-rule="evenodd" clip-rule="evenodd" d="M35.0879 10.7956C43.566 10.7956 52.0441 10.7956 60.5222 10.7956C62.2525 11.3493 63.3944 12.4912 63.9481 14.2214C63.9481 25.2257 63.9481 36.2299 63.9481 47.2342C63.4754 48.7975 62.4718 49.8875 60.9375 50.5043C57.3089 50.64 53.6754 50.7091 50.0371 50.7119C51.9057 51.6808 53.7743 52.6498 55.643 53.6187C56.1966 54.1378 56.1966 54.6568 55.643 55.1759C55.2655 55.373 54.8848 55.373 54.501 55.1759C51.6451 53.6614 48.773 52.1734 45.8845 50.7119C42.4587 50.6773 39.0328 50.6427 35.607 50.6081C34.3982 50.1544 33.1697 49.7564 31.9216 49.4142C31.5594 49.707 31.196 50.0011 30.8315 50.2967C30.6014 50.429 30.3591 50.5328 30.1049 50.6081C28.269 50.9083 26.4349 51.2198 24.6027 51.5424C23.2046 51.6825 22.1491 51.1462 21.4364 49.9333C20.7723 48.7412 20.4435 47.4609 20.4502 46.0922C17.8622 45.3968 15.2842 44.6701 12.7161 43.9121C12.6309 45.1139 12.6482 46.3077 12.768 47.4937C22.4572 52.3384 32.1466 57.1829 41.8358 62.0276C48.9297 62.0622 56.0237 62.0968 63.1176 62.1314C63.4579 62.1782 63.7346 62.3339 63.9481 62.5986C63.9481 62.91 63.9481 63.2214 63.9481 63.5329C63.775 63.6367 63.6366 63.7751 63.5328 63.9481C56.1275 63.9481 48.722 63.9481 41.3167 63.9481C31.3038 58.8898 21.2686 53.8549 11.2108 48.8433C11.0857 48.7004 10.9473 48.5794 10.7955 48.4799C10.7955 38.41 10.7955 28.3401 10.7955 18.2702C11.1156 17.9723 11.4963 17.7819 11.9375 17.6992C19.6808 15.4438 27.3976 13.1426 35.0879 10.7956ZM37.3718 12.6642C38.8252 12.6642 40.2786 12.6642 41.732 12.6642C41.7147 13.6338 41.732 14.6027 41.7839 15.571C41.9539 16.226 42.3518 16.6931 42.9777 16.9725C46.2998 17.0417 49.6218 17.0417 52.9438 16.9725C53.6723 16.7283 54.1049 16.2266 54.2415 15.4672C54.2934 14.5335 54.3106 13.5992 54.2934 12.6642C55.7472 12.6469 57.2006 12.6642 58.6536 12.7161C58.5672 19.8201 58.5153 26.9313 58.4979 34.0498C58.3283 35.6708 57.4805 36.7262 55.9544 37.2161C53.2927 37.3332 50.6281 37.3852 47.9608 37.3719C45.3278 37.3857 42.6978 37.3338 40.071 37.2161C38.584 36.7891 37.7362 35.8028 37.5275 34.2575C37.493 33.8076 37.4583 33.3577 37.4237 32.9079C37.3718 26.1601 37.3545 19.4122 37.3718 12.6642ZM43.6006 12.6642C46.542 12.6642 49.4834 12.6642 52.4248 12.6642C52.4248 13.4947 52.4248 14.3253 52.4248 15.1558C49.4834 15.1558 46.542 15.1558 43.6006 15.1558C43.6006 14.3253 43.6006 13.4947 43.6006 12.6642ZM35.5032 12.8719C35.4858 19.689 35.5032 26.5061 35.5551 33.3231C35.5476 35.1709 36.1877 36.7455 37.4756 38.0467C38.4585 38.778 39.5659 39.1587 40.7977 39.1886C45.6076 39.2578 50.4177 39.2578 55.2277 39.1886C58.243 38.9765 59.9559 37.3674 60.3665 34.3613C60.4184 27.1982 60.4357 20.0351 60.4184 12.8719C61.2121 13.164 61.7485 13.7176 62.0275 14.5329C62.1306 25.4391 62.096 36.3395 61.9237 47.2342C61.5455 47.9586 60.9745 48.4603 60.2108 48.7394C52.0788 48.8087 43.9466 48.8087 35.8146 48.7394C34.9106 48.4861 34.305 47.9152 33.9979 47.0265C33.8259 36.3719 33.7914 25.7138 33.894 15.0519C34.0207 14.0101 34.5571 13.2834 35.5032 12.8719ZM31.9735 13.7024C32.0827 13.6869 32.1865 13.7042 32.2849 13.7543C32.1378 14.064 32.0514 14.3927 32.0254 14.7405C31.9237 25.6842 31.9582 36.6192 32.1292 47.5456C30.6979 47.0882 29.2619 46.6383 27.821 46.196C27.6825 44.9677 27.3537 43.7912 26.8347 42.6664C25.6547 40.7451 24.1148 40.3817 22.215 41.5763C21.484 42.3244 20.9995 43.2068 20.7616 44.2236C18.0709 43.4644 15.3717 42.7377 12.6642 42.0435C12.6642 37.7871 12.6642 33.5308 12.6642 29.2744C14.6864 29.5905 16.7108 29.902 18.7373 30.2087C19.5867 30.154 20.175 29.7388 20.5021 28.963C20.5194 25.0176 20.5713 21.0727 20.6578 17.1282C21.1594 16.9468 21.6612 16.7738 22.1631 16.6092C22.1977 20.9347 22.2324 25.2602 22.2669 29.5858C22.3288 30.4881 22.796 31.0591 23.6684 31.2988C25.2763 31.5334 26.8854 31.7584 28.4957 31.9736C29.3445 31.9199 29.9327 31.5046 30.2606 30.7278C30.2779 25.2254 30.3298 19.7232 30.4163 14.2214C30.9531 14.0656 31.4722 13.8925 31.9735 13.7024ZM28.1324 14.8443C28.2362 14.8443 28.34 14.8443 28.4438 14.8443C28.4784 19.9317 28.4438 25.0186 28.34 30.1049C26.9278 29.8587 25.509 29.651 24.0837 29.482C24.0491 25.0175 24.0837 20.5535 24.1875 16.0901C25.5142 15.6726 26.8291 15.2574 28.1324 14.8443ZM18.5815 17.6473C18.6852 21.1592 18.7198 24.6889 18.6854 28.2363C16.6772 27.9692 14.6701 27.6923 12.6642 27.4058C12.6642 24.7412 12.6642 22.0767 12.6642 19.4121C14.665 18.8833 16.6375 18.295 18.5815 17.6473ZM23.7722 42.7702C24.4305 42.7181 24.8977 42.9949 25.1737 43.6007C26.0907 45.4179 26.0561 47.2174 25.0699 48.999C24.4073 49.966 23.7497 49.966 23.0974 48.999C22.0567 47.0751 22.0913 45.1718 23.2013 43.2892C23.3808 43.0918 23.5711 42.9187 23.7722 42.7702ZM40.071 42.7702C41.3891 42.7433 41.8908 43.3662 41.5763 44.6388C41.0488 45.3129 40.4086 45.434 39.6557 45.0022C39.0047 44.0979 39.1432 43.3539 40.071 42.7702ZM55.1239 42.7702C56.3161 42.6992 56.8525 43.2529 56.733 44.4312C56.256 45.294 55.5812 45.4844 54.7087 45.0022C54.0577 44.0979 54.1961 43.3539 55.1239 42.7702ZM27.4057 48.1685C28.1444 48.305 28.8711 48.4954 29.5858 48.7394C28.7646 48.9556 27.9341 49.094 27.0943 49.1547C27.2502 48.8427 27.354 48.5141 27.4057 48.1685Z" fill="#E84342"/>
<path opacity="0.923" fill-rule="evenodd" clip-rule="evenodd" d="M50.66 19.2045C51.8087 19.0892 52.2066 19.5737 51.8538 20.6579C48.3761 24.1356 44.8983 27.6134 41.4206 31.0911C40.6313 31.3881 40.1468 31.1286 39.9672 30.3125C39.9945 30.0501 40.0809 29.8079 40.2267 29.5858C43.6936 26.1016 47.1713 22.6412 50.66 19.2045Z" fill="#E84342"/>
<path opacity="0.924" fill-rule="evenodd" clip-rule="evenodd" d="M54.7087 22.7341C55.8808 22.7102 56.2442 23.2293 55.7987 24.2913C52.3555 27.7345 48.9124 31.1776 45.4693 34.6208C44.2181 34.9266 43.7855 34.4595 44.1716 33.2193C47.673 29.7005 51.1854 26.2054 54.7087 22.7341Z" fill="#E84342"/>
<path opacity="0.936" fill-rule="evenodd" clip-rule="evenodd" d="M39.6557 40.9015C41.6271 40.6316 42.9248 41.4274 43.5487 43.2892C43.824 45.0054 43.1838 46.234 41.6282 46.9746C38.6504 47.4571 37.2489 46.1941 37.4237 43.1854C37.7715 42.0245 38.5155 41.2632 39.6557 40.9015ZM40.071 42.7701C39.1432 43.3539 39.0047 44.0979 39.6557 45.0021C40.4086 45.434 41.0488 45.3128 41.5763 44.6388C41.8908 43.3661 41.3891 42.7432 40.071 42.7701Z" fill="#E84342"/>
<path opacity="0.936" fill-rule="evenodd" clip-rule="evenodd" d="M54.8124 40.9015C56.5302 40.6786 57.7587 41.3361 58.4978 42.874C58.9934 44.7479 58.3878 46.1148 56.6811 46.9746C53.7022 47.456 52.3007 46.1929 52.4766 43.1854C52.8353 41.9787 53.6139 41.2174 54.8124 40.9015ZM55.1239 42.7702C54.1961 43.3539 54.0576 44.0979 54.7086 45.0022C55.5812 45.4844 56.256 45.294 56.733 44.4312C56.8525 43.2529 56.3161 42.6992 55.1239 42.7702Z" fill="#E84342"/>
<path opacity="0.924" fill-rule="evenodd" clip-rule="evenodd" d="M63.948 58.0307C63.948 58.3422 63.948 58.6536 63.948 58.965C63.5854 59.3589 63.1355 59.4801 62.5984 59.3284C60.9991 58.5202 59.4246 57.6724 57.8749 56.785C57.5274 55.6791 57.9253 55.212 59.0688 55.3835C60.7625 56.1646 62.3889 57.047 63.948 58.0307Z" fill="#E84342"/>
</g>
<defs>
<clipPath id="clip0_150_514">
<rect width="53.1525" height="53.1525" fill="white" transform="translate(10.8474 10.8475)"/>
</clipPath>
</defs>
</svg>
