<svg width="54" height="66" viewBox="0 0 54 66" fill="none" xmlns="http://www.w3.org/2000/svg">
<path d="M53.1525 32.5407C53.1525 44.7802 29.7007 44.4739 17.3385 44.4739C-8.48906 43.1101 2.18642 34.5518 2.18642 22.3122C2.18642 10.0726 4.9763 0.150527 17.3385 0.150527C22.5449 0.150527 34.5395 -1.15113 41.0996 3.90095C47.9869 12.4247 53.1525 25.4559 53.1525 32.5407Z" fill="#FFA4A4" fill-opacity="0.31"/>
<path opacity="0.931" fill-rule="evenodd" clip-rule="evenodd" d="M29.9811 7C30.6609 7 31.3407 7 32.0205 7C32.4657 7.15517 32.9189 7.32512 33.3801 7.50986C34.7085 8.4982 36.0681 9.44239 37.459 10.3424C37.8276 10.4598 38.2052 10.5354 38.592 10.569C40.1405 10.6068 41.6889 10.6445 43.2374 10.6823C44.836 11.0561 45.9879 11.9814 46.6931 13.4582C47.1938 15.074 47.7603 16.6602 48.3926 18.2169C48.6382 18.4624 48.8836 18.7078 49.1291 18.9533C50.4207 19.7915 51.6481 20.7169 52.8114 21.7292C53.9025 23.1052 54.2424 24.6537 53.8311 26.3746C53.2807 27.8365 52.8464 29.3283 52.5281 30.85C52.5374 31.2166 52.5941 31.5754 52.6981 31.9264C53.1592 33.2343 53.5747 34.5562 53.9444 35.8919C54.1894 37.839 53.5662 39.4442 52.0749 40.7073C50.8549 41.5534 49.6652 42.4409 48.5059 43.3699C48.0639 44.1098 47.7428 44.903 47.5429 45.7492C49.3535 48.9171 51.223 52.0517 53.1513 55.1532C53.7719 57.033 53.1864 58.3737 51.3951 59.1755C49.5106 59.2992 47.6222 59.3937 45.73 59.4587C44.9558 60.9316 44.1815 62.4046 43.4074 63.8775C43.0018 64.4178 42.492 64.7956 41.8778 65.0105C41.3113 65.0105 40.7448 65.0105 40.1783 65.0105C39.564 64.7956 39.0542 64.4178 38.6487 63.8775C36.7981 60.8183 34.9474 57.7592 33.0969 54.7C33.0132 54.5784 32.8999 54.5028 32.757 54.4734C32.1901 54.6812 31.6047 54.7945 31.0008 54.8133C30.3449 54.7534 29.7028 54.659 29.0747 54.5301C27.1532 57.6365 25.246 60.7523 23.3529 63.8775C22.9474 64.4178 22.4376 64.7956 21.8234 65.0105C21.2569 65.0105 20.6904 65.0105 20.1238 65.0105C19.5096 64.7956 18.9998 64.4178 18.5943 63.8775C17.8201 62.4046 17.0458 60.9316 16.2716 59.4587C14.3794 59.3937 12.4911 59.2992 10.6065 59.1755C8.81519 58.3737 8.2298 57.033 8.85032 55.1532C10.7786 52.0517 12.6481 48.9171 14.4588 45.7492C14.2588 44.903 13.9377 44.1098 13.4957 43.3699C12.3364 42.4409 11.1467 41.5534 9.92668 40.7073C8.43513 39.4434 7.81197 37.8382 8.0572 35.8919C8.4269 34.5562 8.84233 33.2343 9.30352 31.9264C9.46416 31.368 9.50193 30.8015 9.41683 30.2269C9.02422 28.9358 8.60879 27.6516 8.17051 26.3746C7.6979 24.3564 8.20776 22.6379 9.70008 21.2194C11.0676 20.3054 12.3706 19.3045 13.609 18.2169C14.2425 16.6565 14.809 15.0702 15.3085 13.4582C16.0137 11.9814 17.1656 11.0561 18.7642 10.6823C20.3127 10.6445 21.8611 10.6068 23.4096 10.569C23.7964 10.5354 24.174 10.4598 24.5426 10.3424C25.9335 9.44239 27.2931 8.4982 28.6215 7.50986C29.0827 7.32512 29.5359 7.15517 29.9811 7ZM30.4343 8.92613C31.1541 8.85827 31.8339 8.99046 32.4737 9.32269C33.6823 10.1913 34.8908 11.06 36.0994 11.9286C36.459 12.124 36.8366 12.2751 37.2324 12.3818C39.0401 12.524 40.853 12.5996 42.6709 12.6084C43.6794 12.8626 44.4159 13.448 44.8803 14.3646C45.3335 15.7242 45.7867 17.0839 46.2399 18.4435C46.6181 19.2749 47.1657 19.9736 47.8828 20.5396C48.9969 21.3516 50.1111 22.1635 51.2252 22.9755C51.9138 23.8007 52.1404 24.7449 51.905 25.8081C51.3166 27.4595 50.8445 29.1401 50.4887 30.85C50.5403 31.4052 50.6348 31.9528 50.772 32.4929C51.1725 33.6566 51.5501 34.8275 51.905 36.0052C52.1547 37.2579 51.7959 38.2966 50.8286 39.121C49.4611 40.0351 48.1581 41.036 46.9197 42.1235C46.6931 42.5012 46.4665 42.8789 46.2399 43.2566C45.74 44.8699 45.1735 46.4561 44.5404 48.0152C44.0823 48.5112 43.5347 48.87 42.8975 49.0916C41.4246 49.1293 39.9516 49.1672 38.4787 49.2049C37.2893 49.2236 36.2318 49.6013 35.3063 50.3379C34.3999 51.0177 33.4934 51.6975 32.587 52.3774C31.5296 52.9061 30.472 52.9061 29.4146 52.3774C28.5082 51.6975 27.6018 51.0177 26.6953 50.3379C25.7544 49.6411 24.6969 49.2635 23.5229 49.2049C22.05 49.1672 20.577 49.1293 19.1041 49.0916C18.0761 48.7813 17.3774 48.1203 17.008 47.1088C16.6155 45.8177 16.2 44.5336 15.7617 43.2566C15.4134 42.5419 14.9414 41.9187 14.3455 41.3871C13.0158 40.5109 11.7506 39.5479 10.5498 38.4979C10.2283 37.9484 10.0206 37.3629 9.92668 36.7417C10.2907 35.3093 10.725 33.8931 11.2297 32.4929C11.5351 31.5577 11.5729 30.6136 11.343 29.6604C10.9504 28.3693 10.5349 27.0851 10.0966 25.8081C9.83035 24.6439 10.1136 23.6431 10.9464 22.8056C12.0039 22.0502 13.0614 21.2949 14.1188 20.5396C14.8359 19.9736 15.3835 19.2749 15.7617 18.4435C16.2457 16.9157 16.7745 15.405 17.3479 13.9114C17.8249 13.2095 18.486 12.7752 19.3307 12.6084C20.9547 12.5707 22.5787 12.5329 24.2027 12.4951C24.6305 12.428 25.046 12.3147 25.449 12.1552C26.8399 11.2552 28.1995 10.311 29.5279 9.32269C29.8462 9.1988 30.1483 9.06661 30.4343 8.92613ZM15.2519 48.3551C16.1091 49.8613 17.3932 50.7865 19.1041 51.131C20.8852 51.1382 22.6603 51.2136 24.4293 51.3576C25.4737 51.9491 26.4556 52.6289 27.3752 53.3971C25.567 56.3524 23.7731 59.3171 21.9933 62.2913C21.5173 63.1798 20.9131 63.2931 20.1805 62.6312C19.2984 60.8856 18.3731 59.1673 17.4046 57.4759C15.3348 57.3293 13.2576 57.2537 11.173 57.2493C10.5365 56.8114 10.4421 56.2638 10.8897 55.6065C12.3748 53.2019 13.8289 50.7848 15.2519 48.3551ZM46.6365 48.3551C48.2294 50.8972 49.7967 53.4654 51.3385 56.0597C51.4927 56.6006 51.3227 56.9971 50.8286 57.2493C48.744 57.2537 46.6668 57.3293 44.597 57.4759C43.6285 59.1673 42.7032 60.8856 41.8211 62.6312C41.2923 63.2354 40.7637 63.2354 40.2349 62.6312C38.3654 59.5531 36.4959 56.4751 34.6265 53.3971C35.546 52.6289 36.5279 51.9491 37.5723 51.3576C39.3413 51.2136 41.1164 51.1382 42.8975 51.131C44.5993 50.8098 45.8456 49.8845 46.6365 48.3551Z" fill="#E84342"/>
<path opacity="0.931" fill-rule="evenodd" clip-rule="evenodd" d="M29.3212 19.4632C30.5051 19.2911 31.5059 19.631 32.3237 20.483C33.1193 22.0005 33.8935 23.5301 34.6464 25.0717C36.4384 25.2908 38.2134 25.593 39.9716 25.9781C41.599 27.1061 41.9579 28.5602 41.0479 30.3402C39.819 31.5314 38.6293 32.7589 37.4789 34.0225C37.8916 35.7988 38.1371 37.5928 38.2154 39.4044C37.5387 41.3386 36.1978 42.0374 34.1932 41.5004C32.7958 40.764 31.3984 40.0275 30.001 39.2911C28.5045 40.096 26.9938 40.8701 25.469 41.6137C24.0574 41.9117 22.9433 41.4773 22.1266 40.3108C21.8663 39.8135 21.7342 39.2847 21.73 38.7245C21.9576 37.1518 22.2221 35.5845 22.5231 34.0225C21.5266 32.8749 20.4503 31.7985 19.294 30.7934C18.1474 29.3241 18.1663 27.8701 19.3507 26.4313C19.7406 26.0853 20.1939 25.8587 20.7103 25.7515C22.26 25.5342 23.8085 25.3076 25.3557 25.0717C26.1085 23.5301 26.8827 22.0005 27.6783 20.483C28.1376 19.9806 28.6851 19.6407 29.3212 19.4632ZM29.7744 21.3894C29.6217 21.5141 29.4517 21.6274 29.2646 21.7293C28.4275 23.4222 27.5777 25.103 26.7153 26.7712C26.5355 26.8689 26.3466 26.9445 26.1488 26.9978C24.4017 27.2096 22.6644 27.474 20.9369 27.7909C20.5089 28.1257 20.3768 28.56 20.5403 29.0939C21.8683 30.4219 23.1901 31.7437 24.5059 33.0595C24.3842 34.9901 24.101 36.8974 23.6561 38.7812C23.8568 39.3995 24.2723 39.7017 24.9024 39.6876C26.5763 38.7752 28.2758 37.9254 30.001 37.1383C31.7263 37.9254 33.4258 38.7752 35.0996 39.6876C35.7527 39.6976 36.1682 39.3765 36.3459 38.7245C35.9023 36.8564 35.6191 34.968 35.4962 33.0595C36.8119 31.7437 38.1337 30.4219 39.4617 29.0939C39.7067 28.3588 39.4612 27.8868 38.7253 27.6776C37.1028 27.4405 35.4788 27.2139 33.8533 26.9978C33.6555 26.9445 33.4666 26.8689 33.2868 26.7712C32.4243 25.103 31.5746 23.4222 30.7375 21.7293C30.4551 21.503 30.1342 21.3897 29.7744 21.3894Z" fill="#E84342"/>
</svg>
