<svg width="66" height="63" viewBox="0 0 66 63" fill="none" xmlns="http://www.w3.org/2000/svg">
<path opacity="0.936" fill-rule="evenodd" clip-rule="evenodd" d="M40.0986 62.9385C36.8173 62.9385 33.5362 62.9385 30.2549 62.9385C29.7244 62.6743 29.3347 62.2642 29.0859 61.708C28.9133 60.4035 28.8518 59.0909 28.9013 57.7705C28.1944 57.8061 27.4971 57.7445 26.8095 57.5859C26.1659 57.3113 25.7352 56.8397 25.5176 56.1709C25.4355 55.1045 25.4355 54.0381 25.5176 52.9717C25.7537 52.3262 26.1639 51.834 26.748 51.4951C26.8504 50.3445 26.8299 49.1961 26.6865 48.0498C20.0486 44.8676 16.0086 39.6586 14.5664 32.4229C13.4035 23.6404 16.336 16.6063 23.3642 11.3203C29.3711 7.4609 35.749 6.70211 42.498 9.04395C43.2005 8.42659 43.9182 8.40607 44.6513 8.98242C45.0839 9.43553 45.5351 9.8662 46.0049 10.2744C46.2292 10.121 46.4753 10.0389 46.7431 10.0283C46.7227 9.24795 46.7431 8.46866 46.8047 7.69043C47.0346 7.09356 47.4653 6.74492 48.0967 6.64453C49.3681 6.5625 50.6397 6.5625 51.9111 6.64453C52.565 6.79572 52.9956 7.18537 53.2031 7.81348C53.224 8.55514 53.2855 9.29343 53.3877 10.0283C53.5928 10.1104 53.7978 10.1924 54.0029 10.2744C54.4362 9.94381 54.8053 9.55416 55.1103 9.10547C55.7076 8.62764 56.3638 8.5046 57.0791 8.73633C58.2526 9.70467 59.2985 10.7916 60.2168 11.9971C60.3219 12.5046 60.2808 12.9968 60.0937 13.4736C59.6425 13.9248 59.1914 14.3759 58.7402 14.8272C58.6874 15.094 58.7489 15.3401 58.9248 15.5654C59.6185 15.6676 60.3157 15.7291 61.0166 15.75C61.5956 15.886 61.9853 16.2346 62.1855 16.7959C62.2676 18.2725 62.2676 19.749 62.1855 21.2256C61.9555 21.8225 61.5249 22.1711 60.8935 22.2715C60.2335 22.2925 59.5772 22.3541 58.9248 22.4561C58.7489 22.6814 58.6874 22.9275 58.7402 23.1943C59.1914 23.6456 59.6425 24.0966 60.0937 24.5479C60.3626 25.223 60.3215 25.8792 59.9707 26.5166C59.1299 27.3574 58.289 28.1983 57.4482 29.0391C57.0471 29.332 56.6164 29.4347 56.1562 29.3467C56.052 30.1236 55.9701 30.9029 55.9101 31.6846C55.7016 32.312 55.2709 32.5375 54.6181 32.3613C54.3515 32.2588 54.1669 32.0743 54.0644 31.8076C54.1312 30.4537 54.1107 29.1002 54.0029 27.7471C53.7978 27.8291 53.5928 27.9111 53.3877 27.9932C53.3124 28.8609 53.2097 29.7222 53.0801 30.5772C52.7739 31.0478 52.3432 31.3144 51.7881 31.377C50.5576 31.459 49.3271 31.459 48.0967 31.377C47.4653 31.2766 47.0346 30.928 46.8047 30.3311C46.7431 29.5528 46.7227 28.7735 46.7431 27.9932C46.4466 27.9239 46.1595 27.8624 45.8818 27.8086C45.3856 28.3461 44.8524 28.8383 44.2822 29.2852C43.6682 29.5218 43.0939 29.4398 42.5595 29.0391C41.6777 28.1572 40.7959 27.2754 39.914 26.3936C39.5143 25.6099 39.5963 24.8716 40.1601 24.1787C40.5498 23.789 40.9394 23.3995 41.3291 23.0098C41.1616 22.8149 41.0795 22.5892 41.083 22.333C38.3971 22.8053 37.2487 21.6978 37.6377 19.0107C37.2502 16.3222 38.3986 15.2147 41.083 15.6885C41.0795 15.4323 41.1616 15.2066 41.3291 15.0117C40.9394 14.622 40.5498 14.2325 40.1601 13.8428C39.5963 13.1499 39.5143 12.4116 39.914 11.6279C40.2626 11.2793 40.6113 10.9307 40.9599 10.582C32.1158 8.29342 24.9586 10.7749 19.4883 18.0264C15.4302 24.6527 15.1841 31.4203 18.75 38.3291C21.1169 42.2196 24.3981 45.0497 28.5937 46.8193C28.7734 48.3246 28.8349 49.8421 28.7783 51.3721C29.1884 51.3721 29.5987 51.3721 30.0088 51.3721C30.0088 49.1982 30.0088 47.0245 30.0088 44.8506C29.2717 44.8999 28.718 44.6129 28.3476 43.9893C27.2341 39.894 28.731 38.3559 32.8388 39.375C33.236 39.5673 33.5027 39.8749 33.6386 40.2979C33.7207 41.4463 33.7207 42.5948 33.6386 43.7432C33.3449 44.4955 32.7912 44.8646 31.9775 44.8506C31.9775 47.0245 31.9775 49.1982 31.9775 51.3721C32.8388 51.3721 33.7002 51.3721 34.5615 51.3721C34.541 48.7467 34.5615 46.1218 34.623 43.4971C35.0605 42.5237 35.6757 42.4006 36.4687 43.1279C36.5303 45.8757 36.5508 48.6237 36.5303 51.3721C37.1455 51.3721 37.7607 51.3721 38.376 51.3721C38.4345 48.8998 38.373 46.4389 38.1914 43.9893C35.939 41.6138 33.6422 39.276 31.3008 36.9756C30.63 37.549 29.9123 37.6105 29.1474 37.1602C28.3847 36.4386 27.6669 35.6798 26.9941 34.8838C26.8874 34.3355 26.9284 33.8023 27.1172 33.2842C27.7939 32.6074 28.4707 31.9307 29.1474 31.2539C29.9119 30.8266 30.6502 30.8675 31.3623 31.377C31.9119 32.0498 32.5066 32.6856 33.1465 33.2842C33.5577 34.1405 33.4142 34.8992 32.7158 35.5606C35.1598 37.9634 37.5592 40.4039 39.914 42.8818C40.1062 43.1842 40.2293 43.5123 40.2832 43.8662C40.3447 46.3679 40.3653 48.8698 40.3447 51.3721C40.7548 51.3721 41.1651 51.3721 41.5752 51.3721C41.5752 47.9677 41.5752 44.5635 41.5752 41.1592C40.689 41.1525 40.0942 40.7424 39.791 39.9287C39.7089 38.8213 39.7089 37.7139 39.791 36.6064C39.9756 36.0937 40.3242 35.7451 40.8369 35.5606C41.9443 35.4785 43.0517 35.4785 44.1592 35.5606C44.6719 35.7451 45.0205 36.0937 45.2051 36.6064C45.3186 37.846 45.2777 39.0765 45.082 40.2979C44.7388 40.7877 44.2671 41.0748 43.667 41.1592C43.5029 42.7178 43.5029 44.2763 43.667 45.835C46.4131 44.4629 48.6895 42.5351 50.4961 40.0518C51.2602 38.9137 51.9779 37.7448 52.6494 36.5449C53.4753 36.2196 54.0084 36.4862 54.249 37.3447C52.1236 42.2878 48.5962 45.8561 43.667 48.0498C43.5236 49.1961 43.5031 50.3445 43.6054 51.4951C44.2287 51.7495 44.6389 52.2005 44.8359 52.8486C44.918 53.9561 44.918 55.0635 44.8359 56.1709C44.6214 56.8366 44.1908 57.3083 43.5439 57.5859C42.8563 57.7445 42.159 57.8061 41.4521 57.7705C41.4726 58.9606 41.4521 60.1501 41.3906 61.3389C41.2018 62.08 40.7712 62.6131 40.0986 62.9385ZM48.7119 8.55176C49.5732 8.55176 50.4345 8.55176 51.2959 8.55176C50.9277 11.1161 52.0351 12.3261 54.6181 12.1816C55.3163 11.8539 55.911 11.3823 56.4023 10.7666C56.997 11.3613 57.5918 11.9561 58.1865 12.5508C56.3543 14.0158 56.2313 15.6154 57.8174 17.3496C57.9814 17.4317 58.1455 17.5136 58.3095 17.5957C58.9645 17.6571 59.6207 17.6777 60.2783 17.6572C60.2783 18.5595 60.2783 19.462 60.2783 20.3643C57.7747 20.0582 56.6057 21.1657 56.7715 23.6865C57.0991 24.3847 57.5709 24.9794 58.1865 25.4707C57.5918 26.0654 56.997 26.6602 56.4023 27.2549C54.9425 25.4233 53.3429 25.3003 51.6035 26.8857C51.4974 27.081 51.4154 27.2861 51.3574 27.501C51.296 28.156 51.2754 28.8122 51.2959 29.4697C50.4345 29.4697 49.5732 29.4697 48.7119 29.4697C49.0551 26.8394 47.9067 25.6294 45.2666 25.8398C44.6405 26.2192 44.0868 26.691 43.6054 27.2549C42.9884 26.6584 42.3937 26.0431 41.8213 25.4092C42.1884 24.9804 42.5781 24.5702 42.9902 24.1787C43.4445 23.096 43.3215 22.0706 42.6211 21.1025C42.3826 20.7819 42.075 20.5563 41.6982 20.4258C41.0021 20.3644 40.3048 20.3438 39.6064 20.3643C39.6064 19.462 39.6064 18.5595 39.6064 17.6572C42.1053 18.0499 43.3152 16.9835 43.2363 14.458C42.9294 13.7806 42.4782 13.2064 41.8828 12.7354C41.8007 12.6533 41.8007 12.5713 41.8828 12.4893C42.457 11.915 43.0312 11.3408 43.6054 10.7666C44.9849 12.5514 46.5434 12.7154 48.2812 11.2588C48.6624 10.3998 48.8059 9.49741 48.7119 8.55176ZM30.501 17.5342C31.0341 17.5342 31.5674 17.5342 32.1006 17.5342C32.1006 18.1084 32.1006 18.6826 32.1006 19.2568C31.5674 19.2568 31.0341 19.2568 30.501 19.2568C30.501 18.6826 30.501 18.1084 30.501 17.5342ZM49.8193 17.6572C51.1491 17.8968 51.5388 18.6351 50.9883 19.8721C50.332 20.5283 49.6757 20.5283 49.0195 19.8721C48.4227 18.8136 48.6894 18.0753 49.8193 17.6572ZM26.3174 24.6709C26.8505 24.6709 27.3838 24.6709 27.917 24.6709C27.917 25.2041 27.917 25.7373 27.917 26.2705C27.3838 26.2705 26.8505 26.2705 26.3174 26.2705C26.3174 25.7373 26.3174 25.2041 26.3174 24.6709ZM34.8076 26.6397C35.3408 26.6397 35.874 26.6397 36.4072 26.6397C36.4072 27.2139 36.4072 27.788 36.4072 28.3623C35.874 28.3623 35.3408 28.3623 34.8076 28.3623C34.8076 27.788 34.8076 27.2139 34.8076 26.6397ZM30.0088 33.1611C30.4683 33.4349 30.8785 33.7835 31.2392 34.207C30.8887 34.5781 30.5195 34.9269 30.1318 35.2529C29.7441 34.9269 29.375 34.5781 29.0244 34.207C29.3777 33.8744 29.7058 33.5258 30.0088 33.1611ZM41.6982 37.4678C42.2314 37.4678 42.7647 37.4678 43.2978 37.4678C43.2978 38.042 43.2978 38.6162 43.2978 39.1904C42.7647 39.1904 42.2314 39.1904 41.6982 39.1904C41.6982 38.6162 41.6982 38.042 41.6982 37.4678ZM30.1318 41.1592C30.665 41.1592 31.1983 41.1592 31.7314 41.1592C31.7314 41.7334 31.7314 42.3076 31.7314 42.8818C31.1983 42.8818 30.665 42.8818 30.1318 42.8818C30.1318 42.3076 30.1318 41.7334 30.1318 41.1592ZM27.6709 53.2178C32.6749 53.1972 37.6789 53.2178 42.6826 53.2793C42.8405 53.6563 42.9225 54.0664 42.9287 54.5098C42.9081 54.8995 42.8877 55.289 42.8672 55.6787C37.8104 55.8218 32.7451 55.8424 27.6709 55.7402C27.513 55.3632 27.4309 54.9531 27.4248 54.5098C27.4352 54.0469 27.5173 53.6162 27.6709 53.2178ZM30.8701 57.7705C33.7411 57.7705 36.6123 57.7705 39.4834 57.7705C39.4834 57.9345 39.4834 58.0987 39.4834 58.2627C36.6123 58.2627 33.7411 58.2627 30.8701 58.2627C30.8701 58.0987 30.8701 57.9345 30.8701 57.7705ZM30.8701 60.2314C33.7411 60.2314 36.6123 60.2314 39.4834 60.2314C39.5149 60.5135 39.4739 60.7801 39.3603 61.0313C36.6123 61.1133 33.8642 61.1133 31.1162 61.0313C30.9009 60.8154 30.8188 60.5488 30.8701 60.2314Z" fill="#E84342"/>
<path d="M53.1525 40.5407C53.1525 52.7802 29.7007 52.4739 17.3385 52.4739C-8.48906 51.1101 2.18642 42.5518 2.18642 30.3122C2.18642 18.0726 4.9763 8.15053 17.3385 8.15053C22.5449 8.15053 34.5395 6.84887 41.0996 11.901C47.9869 20.4247 53.1525 33.4559 53.1525 40.5407Z" fill="#FFA4A4" fill-opacity="0.31"/>
<path opacity="0.924" fill-rule="evenodd" clip-rule="evenodd" d="M49.6963 12.4893C50.6321 12.5179 51.5345 12.7025 52.4033 13.043C53.032 13.9278 52.8269 14.5225 51.7881 14.8271C48.8163 14.0059 46.786 15.0313 45.6973 17.9033C45.3113 21.1685 46.7469 23.0552 50.0039 23.5635C52.6718 23.2129 54.1689 21.6954 54.4951 19.0107C54.3889 18.4095 54.2659 17.8147 54.126 17.2266C54.5568 16.1807 55.1924 16.0371 56.0332 16.7959C57.0383 20.4654 55.8693 23.193 52.5264 24.9785C48.6454 26.1857 45.7947 24.9758 43.9746 21.3486C42.9904 18.149 43.8313 15.5445 46.4971 13.5352C47.4955 12.9219 48.5619 12.5733 49.6963 12.4893ZM49.8194 17.6572C48.6894 18.0753 48.4228 18.8136 49.0195 19.8721C49.6758 20.5283 50.3321 20.5283 50.9883 19.8721C51.5388 18.6351 51.1491 17.8968 49.8194 17.6572Z" fill="#E84342"/>
<path opacity="0.932" fill-rule="evenodd" clip-rule="evenodd" d="M29.7627 15.5655C30.8299 15.545 31.8964 15.5655 32.962 15.627C33.4747 15.8115 33.8233 16.1601 34.0079 16.6729C34.0899 17.8213 34.0899 18.9698 34.0079 20.1182C33.7779 20.7151 33.3472 21.0637 32.7159 21.1641C29.0795 21.8749 27.7054 20.4189 28.5938 16.7959C28.7599 16.1584 29.1496 15.7483 29.7627 15.5655ZM30.501 17.5342C30.501 18.1085 30.501 18.6826 30.501 19.2569C31.0342 19.2569 31.5675 19.2569 32.1006 19.2569C32.1006 18.6826 32.1006 18.1085 32.1006 17.5342C31.5675 17.5342 31.0342 17.5342 30.501 17.5342Z" fill="#E84342"/>
<path opacity="0.926" fill-rule="evenodd" clip-rule="evenodd" d="M49.4502 15.6885C52.1359 15.7285 53.387 17.082 53.2031 19.749C52.4951 21.775 51.0801 22.5748 48.958 22.1484C47.1961 21.3939 46.4782 20.0608 46.8047 18.1494C47.2416 16.83 48.1235 16.0096 49.4502 15.6885ZM49.8193 17.6572C48.6894 18.0753 48.4228 18.8136 49.0195 19.8721C49.6757 20.5283 50.3321 20.5283 50.9883 19.8721C51.5388 18.6351 51.1491 17.8968 49.8193 17.6572Z" fill="#E84342"/>
<path opacity="0.937" fill-rule="evenodd" clip-rule="evenodd" d="M25.333 22.7022C26.5231 22.6817 27.7126 22.7022 28.9013 22.7637C29.204 22.9431 29.4707 23.1686 29.7011 23.4405C29.8968 24.6618 29.9378 25.8923 29.8242 27.1319C29.6396 27.6446 29.291 27.9932 28.7783 28.1778C27.6709 28.2598 26.5634 28.2598 25.456 28.1778C24.9433 27.9932 24.5947 27.6446 24.4101 27.1319C24.2966 25.8923 24.3375 24.6618 24.5332 23.4405C24.787 23.1656 25.0535 22.9195 25.333 22.7022ZM26.3174 24.6709C26.3174 25.2041 26.3174 25.7374 26.3174 26.2705C26.8505 26.2705 27.3838 26.2705 27.917 26.2705C27.917 25.7374 27.917 25.2041 27.917 24.6709C27.3838 24.6709 26.8505 24.6709 26.3174 24.6709Z" fill="#E84342"/>
<path opacity="0.935" fill-rule="evenodd" clip-rule="evenodd" d="M34.3155 24.6709C35.3482 24.6303 36.3737 24.6918 37.3916 24.8555C37.8294 25.0883 38.1371 25.4369 38.3145 25.9014C38.4277 27.1001 38.3867 28.2895 38.1914 29.4697C37.8195 30.0968 37.2658 30.3839 36.5303 30.3311C36.5509 32.3823 36.5303 34.4331 36.4688 36.4834C35.6757 37.2108 35.0605 37.0877 34.6231 36.1143C34.5616 34.187 34.541 32.2592 34.5616 30.3311C33.7504 30.3461 33.1967 29.9769 32.9004 29.2237C32.8183 28.0753 32.8183 26.9267 32.9004 25.7783C33.2164 25.1942 33.688 24.8251 34.3155 24.6709ZM34.8076 26.6397C34.8076 27.2139 34.8076 27.7881 34.8076 28.3623C35.3408 28.3623 35.8741 28.3623 36.4073 28.3623C36.4073 27.7881 36.4073 27.2139 36.4073 26.6397C35.8741 26.6397 35.3408 26.6397 34.8076 26.6397Z" fill="#E84342"/>
</svg>
