<svg width="255" height="71" viewBox="0 0 255 71" fill="none" xmlns="http://www.w3.org/2000/svg">
<path fill-rule="evenodd" clip-rule="evenodd" d="M196.514 1.16994C166.031 1.8133 135.544 2.15992 105.052 2.20929C135.532 0.939209 166.02 0.592588 196.514 1.16994Z" fill="#94B8DC"/>
<path fill-rule="evenodd" clip-rule="evenodd" d="M196.514 1.16999C201.71 0.656037 205.867 2.3881 208.987 6.36671C207.933 6.4509 206.894 6.36411 205.868 6.10688C204.718 5.16679 203.505 4.3005 202.231 3.50852C155.987 2.58246 109.736 2.92908 63.4784 4.54786C61.7234 4.78275 59.9908 5.12885 58.2816 5.5872C41.3102 6.14741 24.3341 6.40725 7.35379 6.36671C16.4456 5.93435 25.6264 5.67451 34.8964 5.5872C36.1495 4.76456 37.5353 4.24489 39.0538 4.02819C41.6677 3.79538 44.2661 3.44927 46.8489 2.98884C66.2467 2.46917 85.6476 2.20934 105.052 2.20934C135.544 2.15997 166.031 1.81335 196.514 1.16999Z" fill="#78AEDE"/>
<path fill-rule="evenodd" clip-rule="evenodd" d="M208.986 6.36665C216.166 6.47942 223.268 7.25893 230.293 8.70518C234.237 9.46182 237.528 11.2807 240.167 14.1617C231.282 12.1849 222.274 11.0588 213.144 10.7839C145.067 10.4372 76.9898 10.4372 8.91279 10.7839C8.58758 11.1736 8.32775 11.607 8.13329 12.083C7.8735 17.9699 7.78692 23.8599 7.87345 29.7519C17.4672 47.8126 32.5377 57.5133 53.0849 58.8535C53.0849 59.3732 53.0849 59.8929 53.0849 60.4125C53.0849 60.5856 53.0849 60.7592 53.0849 60.9322C47.8996 61.6244 42.5299 61.971 36.9751 61.9716C31.6052 61.8848 26.2352 61.7985 20.8652 61.7117C15.3526 60.6438 9.80938 59.7775 4.23575 59.1134C2.24369 58.5069 0.944508 57.2077 0.338207 55.2158C0.0789942 53.1444 -0.00763514 51.0657 0.0783706 48.9798C1.10976 48.6955 1.9759 48.1758 2.67673 47.4207C3.28792 42.6153 3.02808 37.7652 1.89722 32.8699C1.50393 31.9267 1.07084 31.0609 0.598043 30.2716C0.907299 23.4665 1.68681 16.7107 2.93657 10.0044C3.89115 8.09144 5.36354 6.87853 7.35378 6.36665C24.3341 6.40719 41.3102 6.14735 58.2816 5.58714C59.9908 5.12879 61.7234 4.78269 63.4783 4.5478C109.736 2.92902 155.987 2.5824 202.231 3.50846C203.505 4.30044 204.718 5.16673 205.868 6.10682C206.894 6.36405 207.933 6.45084 208.986 6.36665Z" fill="#4A9DD7"/>
<path fill-rule="evenodd" clip-rule="evenodd" d="M240.167 14.1618C243.753 15.1814 247.39 16.2207 251.08 17.2798C251.203 17.9507 251.03 18.4704 250.56 18.8388C247.336 17.7293 244.045 16.8635 240.687 16.2404C240.655 15.9583 240.482 15.7852 240.167 15.7208C239.82 16.0674 239.474 16.4135 239.128 16.7601C236.472 15.807 233.701 15.2874 230.813 15.2011C230.846 30.3527 229.807 45.4231 227.695 60.4126C230.64 60.4126 233.584 60.4126 236.529 60.4126C237.87 46.0696 238.563 31.6919 238.608 17.2798C239.301 17.2798 239.994 17.2798 240.687 17.2798C244.245 27.7184 245.717 38.458 245.104 49.4995C243.597 50.0602 242.125 49.8871 240.687 48.9798C240.204 49.5977 240.031 50.2904 240.167 51.0585C239.877 54.3563 239.531 57.6474 239.128 60.9322C230.507 61.4441 221.845 61.6172 213.144 61.4519C213.922 56.6153 214.615 51.7652 215.223 46.9011C215.502 46.0608 215.675 45.1945 215.742 44.3027C211.076 43.8013 206.399 43.3684 201.711 43.0036C177.634 42.7437 153.556 42.6569 129.477 42.7437C129.397 46.041 129.224 49.3321 128.957 52.6175C128.646 55.3785 128.473 58.1499 128.437 60.9322C120.123 60.9322 111.808 60.9322 103.493 60.9322C103.493 60.2395 103.493 59.5463 103.493 58.8536C103.493 57.8142 103.493 56.7749 103.493 55.7355C103.853 49.1591 104.026 42.5769 104.013 35.988C79.5882 35.988 55.1637 35.988 30.7391 35.988C29.8729 35.988 29.0068 35.988 28.1407 35.988C26.7549 35.988 25.3691 35.988 23.9833 35.988C22.8163 35.4917 21.6038 35.1451 20.3456 34.9486C19.3015 34.1354 18.0888 33.6157 16.7079 33.3896C14.7502 32.2677 12.6715 31.4019 10.4719 30.7913C9.66663 30.3023 8.80049 29.9562 7.8735 29.7519C7.78697 23.8599 7.87355 17.9699 8.13334 12.0831C8.3278 11.6071 8.58763 11.1736 8.91284 10.7839C76.9899 10.4373 145.067 10.4373 213.144 10.7839C222.274 11.0588 231.282 12.1849 240.167 14.1618Z" fill="#050507"/>
<path fill-rule="evenodd" clip-rule="evenodd" d="M12.0309 14.6815C18.6394 14.5183 25.2219 14.6913 31.7784 15.2011C32.4594 20.9336 32.4594 26.65 31.7784 32.3503C31.5054 32.7099 31.159 32.9698 30.7391 33.1298C28.1407 33.4764 25.5423 33.4764 22.944 33.1298C18.7231 31.6415 14.5657 29.9962 10.4719 28.1929C9.86665 24.3936 9.78002 20.5829 10.212 16.7601C10.5704 15.7988 11.1767 15.1055 12.0309 14.6815Z" fill="#202020"/>
<path fill-rule="evenodd" clip-rule="evenodd" d="M106.091 14.6814C109.209 14.6814 112.328 14.6814 115.446 14.6814C115.277 22.2577 115.451 29.7929 115.965 37.2871C112.692 36.5747 109.401 35.7951 106.091 34.9486C106.091 28.1929 106.091 21.4371 106.091 14.6814Z" fill="#202020"/>
<path fill-rule="evenodd" clip-rule="evenodd" d="M118.564 14.6814C121.509 14.6814 124.453 14.6814 127.398 14.6814C127.485 23.5174 127.398 32.3518 127.138 41.1847C124.369 40.0372 121.511 39.1715 118.564 38.5863C118.564 30.6182 118.564 22.6495 118.564 14.6814Z" fill="#202020"/>
<path fill-rule="evenodd" clip-rule="evenodd" d="M135.713 14.1618C141.44 13.9893 147.156 14.1623 152.862 14.6815C153.022 15.1014 153.282 15.448 153.641 15.7208C153.988 23.3429 153.988 30.9644 153.641 38.5864C153.209 39.0193 152.775 39.4527 152.342 39.8856C146.973 40.2322 141.602 40.2322 136.232 39.8856C135.489 39.6439 134.883 39.2105 134.414 38.5864C134.067 31.1379 134.067 23.689 134.414 16.2405C134.977 15.5982 135.41 14.9055 135.713 14.1618Z" fill="#202020"/>
<path fill-rule="evenodd" clip-rule="evenodd" d="M159.098 14.1617C166.722 14.0749 174.344 14.1617 181.964 14.4215C182.483 14.8544 183.003 15.2878 183.523 15.7207C184.12 22.9727 184.207 30.2481 183.782 37.5469C183.541 38.2906 183.107 38.8965 182.483 39.3658C174.737 40.2144 166.941 40.388 159.098 39.8855C158.492 39.279 157.886 38.6731 157.279 38.0666C156.933 30.9643 156.933 23.8624 157.279 16.7601C157.627 15.6739 158.233 14.8077 159.098 14.1617Z" fill="#202020"/>
<path fill-rule="evenodd" clip-rule="evenodd" d="M35.4161 14.6814C44.1019 14.5156 52.7633 14.6892 61.3997 15.2011C62.0056 20.9097 62.0919 26.6261 61.6595 32.3503C61.3997 32.6101 61.1398 32.8699 60.88 33.1298C52.2186 33.4764 43.5578 33.4764 34.8964 33.1298C34.5712 32.74 34.3114 32.3066 34.1169 31.8306C33.7704 26.6339 33.7704 21.4372 34.1169 16.2404C34.4796 15.6215 34.9127 15.1018 35.4161 14.6814Z" fill="#202020"/>
<path fill-rule="evenodd" clip-rule="evenodd" d="M66.5964 14.6814C74.9127 14.5946 83.2275 14.6814 91.5407 14.9412C92.1648 15.4105 92.5982 16.0164 92.8399 16.76C93.1865 21.7837 93.1865 26.8069 92.8399 31.8305C92.407 32.2634 91.9736 32.6968 91.5407 33.1297C83.2259 33.4763 74.9112 33.4763 66.5964 33.1297C66.3122 32.649 65.9661 32.2161 65.5571 31.8305C64.9511 26.6426 64.8649 21.4459 65.2972 16.2404C65.66 15.6214 66.0929 15.1018 66.5964 14.6814Z" fill="#202020"/>
<path fill-rule="evenodd" clip-rule="evenodd" d="M189.239 14.1617C195.478 14.0749 201.714 14.1617 207.947 14.4215C208.467 14.8544 208.987 15.2878 209.506 15.7207C210.103 23.1458 210.19 30.5948 209.766 38.0666C209.572 38.5426 209.312 38.976 208.987 39.3658C205.662 39.952 202.284 40.2118 198.853 40.1453C195.822 40.0585 192.79 39.9723 189.759 39.8855C189.283 39.6911 188.849 39.4313 188.46 39.106C187.611 31.5328 187.438 23.9107 187.94 16.2404C188.504 15.5981 188.937 14.9054 189.239 14.1617Z" fill="#202020"/>
<path fill-rule="evenodd" clip-rule="evenodd" d="M218.341 15.2011C221.805 15.2011 225.269 15.2011 228.734 15.2011C228.265 30.2981 227.398 45.3686 226.136 60.4126C222.664 60.4708 219.2 60.6443 215.742 60.9322C217.415 45.737 218.281 30.4935 218.341 15.2011Z" fill="#202020"/>
<path fill-rule="evenodd" clip-rule="evenodd" d="M96.2177 14.6814C97.8781 14.4013 99.1773 14.921 100.115 16.2404C100.462 21.6102 100.462 26.9805 100.115 32.3503C99.0058 33.2742 97.7066 33.6209 96.2177 33.3896C95.5453 27.1317 95.5453 20.8957 96.2177 14.6814Z" fill="#202020"/>
<path fill-rule="evenodd" clip-rule="evenodd" d="M240.687 16.2405C240.164 16.4681 240.164 16.8142 240.687 17.2798C239.994 17.2798 239.301 17.2798 238.608 17.2798C238.563 31.6919 237.87 46.0696 236.529 60.4126C233.584 60.4126 230.64 60.4126 227.695 60.4126C229.807 45.4232 230.846 30.3527 230.813 15.2011C233.701 15.2874 236.472 15.807 239.127 16.7601C239.474 16.4135 239.82 16.0674 240.167 15.7208C240.482 15.7852 240.655 15.9583 240.687 16.2405Z" fill="#202020"/>
<path fill-rule="evenodd" clip-rule="evenodd" d="M251.08 17.2798C253.194 17.5038 254.233 18.7162 254.198 20.9175C254.328 23.6307 253.116 25.1897 250.56 25.5945C251.065 23.308 251.065 21.0562 250.56 18.8388C251.03 18.4704 251.203 17.9507 251.08 17.2798Z" fill="#5E99C5"/>
<path fill-rule="evenodd" clip-rule="evenodd" d="M0.59806 30.2716C1.07086 31.061 1.50395 31.9268 1.89724 32.87C3.0281 37.7653 3.28793 42.6154 2.67675 47.4208C2.32202 42.9131 1.88898 38.4092 1.37757 33.9093C0.814036 35.6419 0.380993 37.3745 0.0783879 39.106C-0.0890504 36.0618 0.0841563 33.1168 0.59806 30.2716Z" fill="#622A4A"/>
<path fill-rule="evenodd" clip-rule="evenodd" d="M7.87347 29.752C8.80046 29.9562 9.6666 30.3023 10.4718 30.7913C12.4361 36.1424 15.7273 40.5596 20.3456 44.0429C26.689 48.4965 33.618 51.7013 41.1325 53.6569C43.5718 55.4367 46.3432 56.1295 49.4472 55.7356C49.4431 54.1532 49.27 52.5941 48.9276 51.0585C47.0869 50.8958 45.3548 51.0694 43.7308 51.5782C41.0098 50.3855 38.4114 48.9996 35.9358 47.4208C30.9446 44.6821 26.9605 40.8709 23.9833 35.988C25.3691 35.988 26.7549 35.988 28.1407 35.988C32.9001 42.3919 39.1362 46.6356 46.8489 48.72C41.4126 46.4807 36.6489 43.2764 32.5579 39.106C31.8193 38.1161 31.213 37.0767 30.739 35.988C55.1636 35.988 79.5882 35.988 104.013 35.988C104.026 42.5769 103.853 49.1591 103.493 55.7356C102.8 55.7356 102.107 55.7356 101.414 55.7356C101.414 54.1765 101.414 52.6175 101.414 51.0585C95.525 51.0585 89.635 51.0585 83.7456 51.0585C83.8854 53.3612 83.7123 55.6134 83.2259 57.8142C80.6135 57.8158 78.0152 57.9888 75.4308 58.3339C74.1192 48.4019 68.5764 44.851 58.8013 47.6806C55.1849 50.4957 53.2793 54.2197 53.0849 58.8536C32.5377 57.5133 17.4672 47.8126 7.87347 29.752Z" fill="#F3F4F3"/>
<path fill-rule="evenodd" clip-rule="evenodd" d="M115.446 54.1765C112.008 54.7663 108.543 55.1129 105.052 55.2158C105.488 48.9902 105.661 42.7541 105.572 36.5076C108.92 37.1281 112.211 37.9944 115.446 39.106C115.729 44.1146 115.729 49.1383 115.446 54.1765Z" fill="#F4F5F5"/>
<path fill-rule="evenodd" clip-rule="evenodd" d="M20.3456 34.9487C21.6037 35.1451 22.8163 35.4917 23.9833 35.988C26.9604 40.8709 30.9446 44.6821 35.9357 47.4208C35.5673 47.8906 35.0476 48.0636 34.3767 47.9405C28.1939 45.2215 23.5168 40.8911 20.3456 34.9487Z" fill="#EBD538"/>
<path fill-rule="evenodd" clip-rule="evenodd" d="M127.398 53.1371C123.89 53.1429 120.425 53.4895 117.005 54.1765C117.3 49.3316 117.473 44.4815 117.524 39.6257C120.831 40.4093 124.122 41.2751 127.398 42.224C127.833 45.8503 127.833 49.488 127.398 53.1371Z" fill="#F3F4F4"/>
<path fill-rule="evenodd" clip-rule="evenodd" d="M10.4718 30.7913C12.6714 31.4019 14.7501 32.2676 16.7079 33.3896C18.9124 37.9419 22.0305 41.8395 26.062 45.0822C30.9823 48.232 36.0059 51.0902 41.1325 53.6568C33.618 51.7013 26.689 48.4965 20.3456 44.0429C15.7273 40.5595 12.4361 36.1423 10.4718 30.7913Z" fill="#A41D1A"/>
<path fill-rule="evenodd" clip-rule="evenodd" d="M28.1407 35.988C29.0068 35.988 29.8729 35.988 30.739 35.988C31.213 37.0767 31.8193 38.116 32.5579 39.106C36.6489 43.2764 41.4126 46.4807 46.8489 48.7199C39.1362 46.6355 32.9002 42.3919 28.1407 35.988Z" fill="#174A21"/>
<path fill-rule="evenodd" clip-rule="evenodd" d="M2.67676 47.4208C1.97593 48.1759 1.10979 48.6955 0.0783997 48.9798C0.0783997 45.6887 0.0783997 42.3971 0.0783997 39.106C0.381005 37.3745 0.814047 35.6419 1.37758 33.9093C1.88899 38.4091 2.32203 42.9131 2.67676 47.4208Z" fill="#6B082A"/>
<path fill-rule="evenodd" clip-rule="evenodd" d="M75.4308 58.3339C75.4308 59.0266 75.4308 59.7198 75.4308 60.4125C74.9112 60.4125 74.3915 60.4125 73.8718 60.4125C74.1675 56.7379 72.4349 55.1789 68.6751 55.7355C66.017 53.1465 63.245 53.0602 60.3603 55.4757C58.6366 55.7345 56.9045 55.8212 55.1636 55.7355C54.923 57.2852 54.75 58.8442 54.6439 60.4125C54.1243 60.4125 53.6046 60.4125 53.0849 60.4125C53.0849 59.8929 53.0849 59.3732 53.0849 58.8535C53.2793 54.2196 55.1849 50.4956 58.8013 47.6806C68.5764 44.851 74.1192 48.4019 75.4308 58.3339Z" fill="#050606"/>
<path fill-rule="evenodd" clip-rule="evenodd" d="M192.357 46.3814C193.05 46.3814 193.743 46.3814 194.436 46.3814C201.643 46.1392 205.626 49.6039 206.388 56.7748C206.355 58.2559 206.009 59.6418 205.349 60.9322C204.737 62.0646 204.218 63.2775 203.79 64.5699C203.508 64.5387 203.335 64.3657 203.27 64.0502C204.527 61.759 204.96 59.3342 204.569 56.7748C202.136 56.6808 199.971 55.9012 198.073 54.4363C197.005 54.2747 195.966 54.0148 194.955 53.6568C192.817 54.2923 190.911 55.3317 189.239 56.7748C188.546 56.4282 187.853 56.0821 187.16 55.7355C186.24 57.1349 185.894 58.694 186.121 60.4125C185.601 60.4125 185.082 60.4125 184.562 60.4125C184.562 59.2001 184.562 57.9872 184.562 56.7748C185.172 51.7168 187.77 48.2522 192.357 46.3814Z" fill="#05060A"/>
<path fill-rule="evenodd" clip-rule="evenodd" d="M215.223 46.901C209.593 46.5872 203.963 46.2405 198.333 45.8617C196.935 45.8633 195.636 46.0363 194.436 46.3814C193.743 46.3814 193.05 46.3814 192.357 46.3814C171.159 47.7736 150.026 49.8523 128.957 52.6174C129.224 49.3321 129.397 46.041 129.477 42.7437C153.556 42.6569 177.634 42.7437 201.711 43.0035C206.399 43.3683 211.076 43.8012 215.742 44.3027C215.675 45.1944 215.502 46.0607 215.223 46.901Z" fill="#F5F7F6"/>
<path fill-rule="evenodd" clip-rule="evenodd" d="M35.9358 47.4208C38.4114 48.9995 41.0098 50.3855 43.7308 51.5782C43.9039 51.5782 44.0775 51.5782 44.2505 51.5782C45.3221 52.2413 46.535 52.6747 47.8882 52.8773C47.3119 53.2089 46.706 53.4687 46.0694 53.6568C44.368 52.775 42.5491 52.1685 40.6128 51.838C38.3969 50.6895 36.3182 49.3903 34.3767 47.9404C35.0476 48.0636 35.5673 47.8906 35.9358 47.4208Z" fill="#EDDB6C"/>
<path fill-rule="evenodd" clip-rule="evenodd" d="M101.414 55.7355C101.241 55.7355 101.068 55.7355 100.895 55.7355C100.895 54.3496 100.895 52.9641 100.895 51.5781C95.3514 51.5781 89.8086 51.5781 84.2652 51.5781C83.9638 53.7343 84.3099 55.6399 85.3046 57.2945C84.7496 57.7799 84.0568 57.9535 83.2259 57.8142C83.7123 55.6134 83.8854 53.3611 83.7456 51.0585C89.635 51.0585 95.525 51.0585 101.414 51.0585C101.414 52.6175 101.414 54.1765 101.414 55.7355Z" fill="#BDBEBE"/>
<path fill-rule="evenodd" clip-rule="evenodd" d="M16.7079 33.3896C18.0888 33.6157 19.3014 34.1354 20.3456 34.9487C23.5168 40.8911 28.1939 45.2215 34.3767 47.9405C36.3182 49.3903 38.3969 50.6895 40.6128 51.838C42.5491 52.1685 44.3679 52.775 46.0694 53.6569C46.706 53.4687 47.3119 53.2089 47.8882 52.8773C46.535 52.6747 45.3221 52.2413 44.2505 51.5782C45.6365 51.5782 47.0219 51.5782 48.4079 51.5782C48.4079 52.7906 48.4079 54.0035 48.4079 55.2159C45.9176 55.0106 43.4928 54.4909 41.1325 53.6569C36.0059 51.0902 30.9823 48.232 26.062 45.0823C22.0305 41.8395 18.9124 37.942 16.7079 33.3896Z" fill="#F6F2ED"/>
<path fill-rule="evenodd" clip-rule="evenodd" d="M192.357 46.3814C187.77 48.2522 185.172 51.7169 184.562 56.7748C184.056 58.047 183.883 59.433 184.042 60.9322C184.042 61.2788 184.042 61.6249 184.042 61.9716C147.751 62.1446 111.547 61.971 75.4308 61.4519C75.0624 60.9821 74.5427 60.8091 73.8718 60.9322C73.8718 60.7592 73.8718 60.5856 73.8718 60.4126C74.3915 60.4126 74.9111 60.4126 75.4308 60.4126C75.4308 59.7198 75.4308 59.0266 75.4308 58.3339C78.0151 57.9888 80.6135 57.8158 83.2259 57.8142C84.0568 57.9535 84.7496 57.7799 85.3046 57.2945C90.534 57.0607 95.7308 56.541 100.895 55.7355C101.068 55.7355 101.241 55.7355 101.414 55.7355C102.107 55.7355 102.8 55.7355 103.493 55.7355C103.493 56.7748 103.493 57.8142 103.493 58.8535C102.999 59.591 102.826 60.4567 102.973 61.4519C111.553 61.6234 120.04 61.4498 128.437 60.9322C128.473 58.1499 128.646 55.3785 128.957 52.6175C150.026 49.8523 171.159 47.7736 192.357 46.3814Z" fill="#469BD6"/>
<path fill-rule="evenodd" clip-rule="evenodd" d="M43.7308 51.5782C45.3548 51.0695 47.0869 50.8959 48.9276 51.0585C49.27 52.5942 49.4431 54.1532 49.4472 55.7356C46.3432 56.1295 43.5718 55.4368 41.1325 53.6569C43.4928 54.491 45.9176 55.0106 48.4079 55.2159C48.4079 54.0035 48.4079 52.7906 48.4079 51.5782C47.0219 51.5782 45.6365 51.5782 44.2505 51.5782C44.0775 51.5782 43.9039 51.5782 43.7308 51.5782Z" fill="#BBACAD"/>
<path fill-rule="evenodd" clip-rule="evenodd" d="M100.895 55.7356C95.7307 56.5411 90.534 57.0607 85.3046 57.2946C84.3099 55.6399 83.9638 53.7343 84.2652 51.5782C89.8086 51.5782 95.3514 51.5782 100.895 51.5782C100.895 52.9642 100.895 54.3496 100.895 55.7356Z" fill="#F4F7F8"/>
<path fill-rule="evenodd" clip-rule="evenodd" d="M240.167 51.0585C241.922 51.297 243.654 51.6436 245.364 52.0978C245.578 54.9815 245.145 57.7529 244.064 60.4126C242.741 61.8084 241.096 62.3281 239.128 61.9716C239.128 61.625 239.128 61.2789 239.128 60.9322C239.531 57.6474 239.877 54.3563 240.167 51.0585Z" fill="#499BD3"/>
<path fill-rule="evenodd" clip-rule="evenodd" d="M194.436 46.3814C195.636 46.0364 196.935 45.8633 198.333 45.8618C203.963 46.2406 209.593 46.5872 215.223 46.9011C214.615 51.7652 213.922 56.6153 213.144 61.4519C213.144 61.625 213.144 61.7985 213.144 61.9716C210.386 62.2449 207.788 61.8988 205.349 60.9322C206.009 59.6419 206.355 58.2559 206.388 56.7749C205.626 49.6039 201.643 46.1393 194.436 46.3814Z" fill="#4B9ED5"/>
<path fill-rule="evenodd" clip-rule="evenodd" d="M127.398 53.1372C127.034 55.3708 126.861 57.6225 126.878 59.8929C123.587 59.8929 120.296 59.8929 117.005 59.8929C117.005 57.9873 117.005 56.0822 117.005 54.1766C120.425 53.4895 123.89 53.1429 127.398 53.1372Z" fill="#4A9ED8"/>
<path fill-rule="evenodd" clip-rule="evenodd" d="M115.446 54.1765C115.446 56.0822 115.446 57.9873 115.446 59.8929C111.981 59.8929 108.517 59.8929 105.052 59.8929C105.052 58.3339 105.052 56.7749 105.052 55.2159C108.543 55.113 112.008 54.7663 115.446 54.1765Z" fill="#4B9ED5"/>
<path fill-rule="evenodd" clip-rule="evenodd" d="M103.493 58.8536C103.493 59.5463 103.493 60.2395 103.493 60.9323C111.808 60.9323 120.123 60.9323 128.437 60.9323C120.04 61.4499 111.553 61.6234 102.973 61.4519C102.826 60.4568 102.999 59.591 103.493 58.8536Z" fill="#001342"/>
<path fill-rule="evenodd" clip-rule="evenodd" d="M203.79 64.57C203.617 65.0896 203.27 65.4363 202.75 65.6093C202.784 65.3817 202.698 65.2081 202.491 65.0896C200.96 67.0239 198.968 68.0632 196.514 68.2077C193.12 68.1115 190.262 66.8991 187.94 64.57C187.473 63.2349 186.867 62.0225 186.121 60.9323C185.428 60.9323 184.735 60.9323 184.042 60.9323C183.883 59.433 184.056 58.047 184.562 56.7749C184.562 57.9873 184.562 59.2002 184.562 60.4126C185.082 60.4126 185.601 60.4126 186.121 60.4126C185.894 58.694 186.24 57.135 187.16 55.7355C187.853 56.0822 188.546 56.4283 189.239 56.7749C190.911 55.3318 192.817 54.2924 194.955 53.6569C195.966 54.0149 197.005 54.2748 198.073 54.4364C199.971 55.9013 202.136 56.6808 204.569 56.7749C204.96 59.3343 204.527 61.7591 203.27 64.0503C203.335 64.3657 203.508 64.5388 203.79 64.57Z" fill="#333334"/>
<path fill-rule="evenodd" clip-rule="evenodd" d="M239.128 60.9323C239.128 61.2789 239.128 61.625 239.128 61.9716C230.466 61.9716 221.805 61.9716 213.144 61.9716C213.144 61.7985 213.144 61.625 213.144 61.4519C221.845 61.6172 230.507 61.4441 239.128 60.9323Z" fill="#20455C"/>
<path fill-rule="evenodd" clip-rule="evenodd" d="M73.8718 60.9322C74.5427 60.809 75.0624 60.9821 75.4308 61.4519C75.1486 61.4831 74.9756 61.6561 74.9111 61.9715C111.374 62.6637 147.751 62.6637 184.042 61.9715C184.042 61.6249 184.042 61.2788 184.042 60.9322C184.735 60.9322 185.428 60.9322 186.121 60.9322C186.241 62.9033 186.934 64.6354 188.2 66.1289C188.142 66.4496 187.969 66.7094 187.68 66.9084C148.791 66.9952 109.988 67.2551 71.2734 67.6879C70.7579 67.7773 70.4118 67.6038 70.2341 67.1683C72.2385 65.5895 73.4509 63.5108 73.8718 60.9322Z" fill="#FAFBFB"/>
<path fill-rule="evenodd" clip-rule="evenodd" d="M75.4308 61.4519C111.547 61.9711 147.751 62.1446 184.042 61.9716C147.751 62.6638 111.374 62.6638 74.9111 61.9716C74.9756 61.6561 75.1486 61.4831 75.4308 61.4519Z" fill="#C2E1F4"/>
<path fill-rule="evenodd" clip-rule="evenodd" d="M198.593 57.8142C198.875 57.8454 199.048 58.0184 199.113 58.3339C198.42 58.9159 198.16 59.6086 198.333 60.4126C199.191 61.8266 200.058 61.9996 200.932 60.9322C201.102 63.3757 199.976 65.021 197.554 65.8691C193.084 67.0285 191.005 65.3827 191.318 60.9322C191.864 60.8548 192.384 60.9411 192.877 61.1921C192.243 63.976 192.85 64.2358 194.696 61.9716C195.461 62.181 196.154 62.5276 196.774 63.0109C197.449 62.7688 198.229 62.7688 199.113 63.0109C199.175 61.6052 198.655 61.2586 197.554 61.9716C197.134 61.8115 196.787 61.5517 196.514 61.1921C197.17 60.0202 197.862 58.8941 198.593 57.8142Z" fill="#5C5C5C"/>
<path fill-rule="evenodd" clip-rule="evenodd" d="M68.6751 55.7356C68.2199 55.6675 67.8732 55.8405 67.6357 56.2552C69.3917 57.8449 69.4785 59.4039 67.8956 60.9323C67.536 60.6595 67.2761 60.3128 67.1161 59.8929C67.8088 59.3109 68.0686 58.6182 67.8956 57.8143C66.968 58.1988 66.0154 58.5454 65.0374 58.8536C64.4637 58.2659 64.6367 57.8324 65.5571 57.5544C64.8441 57.3455 64.1513 57.0857 63.4784 56.7749C63.0029 58.0637 62.2234 58.4103 61.1398 57.8143C60.9668 58.6182 61.2266 59.3109 61.9194 59.8929C61.6127 60.568 61.0931 61.0009 60.3603 61.1921C61.0323 61.4468 61.7255 61.5336 62.439 61.452C62.5752 62.22 62.4021 62.9128 61.9194 63.5307C61.2303 62.7563 60.4508 62.0631 59.5808 61.452C59.321 61.9716 59.0612 62.4913 58.8013 63.011C59.7981 64.3237 61.0104 65.363 62.439 66.129C62.6121 66.129 62.7856 66.129 62.9587 66.129C63.535 66.5396 64.2277 66.7994 65.0374 66.9085C62.465 67.3409 62.6386 67.7743 65.5571 68.2077C67.0823 68.0019 68.4683 67.4822 69.7144 66.6487C70.0299 66.7131 70.2029 66.8862 70.2341 67.1684C69.7144 67.3414 69.3678 67.688 69.1948 68.2077C69.6214 68.7326 70.8338 68.9924 72.8325 68.9872C72.5435 69.1862 72.3705 69.4461 72.3128 69.7667C66.7695 69.7667 61.2266 69.7667 55.6833 69.7667C55.6833 69.5937 55.6833 69.4201 55.6833 69.247C55.6833 69.074 55.6833 68.9004 55.6833 68.7274C57.6903 68.9529 58.9027 68.7793 59.321 68.2077C58.5555 67.2229 57.6892 66.3571 56.7226 65.6093C55.7628 64.3824 55.0701 62.9964 54.6439 61.452C54.2152 60.9915 53.6955 60.8185 53.0849 60.9323C53.0849 60.7592 53.0849 60.5857 53.0849 60.4126C53.6046 60.4126 54.1243 60.4126 54.6439 60.4126C54.75 58.8443 54.923 57.2852 55.1636 55.7356C56.9045 55.8213 58.6366 55.7345 60.3603 55.4757C63.245 53.0603 66.017 53.1466 68.6751 55.7356Z" fill="#292929"/>
<path fill-rule="evenodd" clip-rule="evenodd" d="M68.6751 55.7355C72.4349 55.1789 74.1675 56.7379 73.8718 60.4125C73.8718 60.5856 73.8718 60.7592 73.8718 60.9322C73.4509 63.5108 72.2385 65.5895 70.2341 67.1683C70.2029 66.8861 70.0299 66.713 69.7144 66.6486C68.4683 67.4822 67.0823 68.0018 65.5571 68.2076C62.6386 67.7742 62.465 67.3408 65.0374 66.9084C64.2277 66.7993 63.535 66.5395 62.9587 66.1289C65.5867 66.4683 67.6654 65.6025 69.1948 63.5306C69.0217 63.3575 68.8481 63.1839 68.6751 63.0109C66.6255 64.2067 64.5468 65.246 62.439 66.1289C61.0105 65.3629 59.7981 64.3236 58.8013 63.0109C59.0612 62.4912 59.321 61.9716 59.5808 61.4519C60.4508 62.063 61.2303 62.7563 61.9194 63.5306C62.4021 62.9127 62.5752 62.22 62.439 61.4519C61.7255 61.5335 61.0323 61.4467 60.3603 61.192C61.0931 61.0008 61.6128 60.5679 61.9194 59.8929C61.2266 59.3108 60.9668 58.6181 61.1399 57.8142C62.2234 58.4102 63.0029 58.0636 63.4784 56.7748C64.1514 57.0856 64.8441 57.3454 65.5571 57.5543C64.6367 57.8324 64.4637 58.2658 65.0374 58.8535C66.0154 58.5454 66.968 58.1987 67.8956 57.8142C68.0686 58.6181 67.8088 59.3108 67.1161 59.8929C67.2761 60.3128 67.536 60.6594 67.8956 60.9322C69.4785 59.4039 69.3917 57.8448 67.6358 56.2552C67.8732 55.8405 68.2199 55.6674 68.6751 55.7355Z" fill="#373737"/>
<path fill-rule="evenodd" clip-rule="evenodd" d="M62.9587 66.129C62.7856 66.129 62.6121 66.129 62.439 66.129C64.5468 65.246 66.6255 64.2067 68.6751 63.0109C68.8481 63.184 69.0217 63.3575 69.1948 63.5306C67.6654 65.6025 65.5867 66.4683 62.9587 66.129Z" fill="#787878"/>
<path fill-rule="evenodd" clip-rule="evenodd" d="M188.2 66.129C188.892 66.6487 189.586 67.1684 190.278 67.688C190.101 68.1235 189.754 68.2971 189.239 68.2077C150.005 67.6886 110.683 67.515 71.2734 67.688C109.988 67.2552 148.791 66.9953 187.68 66.9085C187.969 66.7095 188.142 66.4497 188.2 66.129Z" fill="#CDCBC8"/>
<path fill-rule="evenodd" clip-rule="evenodd" d="M186.121 60.9323C186.867 62.0225 187.473 63.2349 187.94 64.57C190.262 66.8991 193.12 68.1115 196.514 68.2077C198.968 68.0632 200.96 67.0238 202.491 65.0896C202.698 65.2081 202.784 65.3817 202.75 65.6093C202.404 66.129 202.058 66.6486 201.711 67.1683C201.365 67.3414 201.018 67.5149 200.672 67.688C200.166 67.9411 199.646 68.2009 199.113 68.4675C200.845 68.6405 202.577 68.8141 204.309 68.9872C198.596 69.247 192.879 69.3338 187.16 69.247C188.443 68.8224 189.829 68.5626 191.318 68.4675C191.035 68.0949 190.688 67.8351 190.278 67.688C189.586 67.1683 188.892 66.6486 188.2 66.129C186.934 64.6354 186.241 62.9034 186.121 60.9323Z" fill="#111111"/>
<path fill-rule="evenodd" clip-rule="evenodd" d="M56.7226 65.6093C57.6892 66.3571 58.5555 67.2228 59.321 68.2076C45.3085 67.5237 31.2775 67.5237 17.2276 68.2076C17.1188 68.5121 16.9456 68.772 16.7079 68.9871C17.6668 69.5733 18.7062 69.8331 19.8259 69.7666C91.8 70.3726 163.861 70.4594 236.009 70.0265C238.495 69.9646 240.92 69.6185 243.285 68.9871C242.46 68.5392 241.594 68.1925 240.686 67.9478C228.137 67.4042 215.665 66.9713 203.27 66.6486C215.224 66.5618 227.176 66.6486 239.127 66.9084C241.458 66.9838 243.71 67.4167 245.883 68.2076C246.576 68.5542 246.576 68.9003 245.883 69.247C244.989 69.9922 243.95 70.4251 242.765 70.5461C163.593 70.9754 84.4295 70.8886 5.2751 70.2863C5.20094 69.3706 5.37415 68.5043 5.79477 67.6879C22.7672 67.1683 39.7431 66.9952 56.7226 67.1683C56.7226 66.6486 56.7226 66.1289 56.7226 65.6093Z" fill="#E1E1E0"/>
<path fill-rule="evenodd" clip-rule="evenodd" d="M203.27 66.6487C215.665 66.9714 228.137 67.4043 240.687 67.9479C241.594 68.1926 242.46 68.5392 243.285 68.9872C240.92 69.6186 238.495 69.9647 236.009 70.0265C163.861 70.4594 91.8 70.3727 19.8259 69.7667C31.7784 69.7667 43.7308 69.7667 55.6833 69.7667C61.2266 69.7667 66.7695 69.7667 72.3128 69.7667C72.6594 69.7667 73.0055 69.7667 73.3521 69.7667C126.878 69.7667 180.405 69.7667 233.931 69.7667C233.931 69.247 233.931 68.7274 233.931 68.2077C222.754 68.3797 211.668 68.2061 200.672 67.688C201.018 67.515 201.364 67.3414 201.711 67.1684C202.287 67.1387 202.807 66.9657 203.27 66.6487Z" fill="#BABABA"/>
<path fill-rule="evenodd" clip-rule="evenodd" d="M59.321 68.2076C58.9027 68.7793 57.6903 68.9528 55.6833 68.7273C49.5719 68.3859 43.4227 68.2128 37.2349 68.2076C31.0064 68.1255 24.857 68.3853 18.7866 68.9871C31.0842 69.247 43.3832 69.3337 55.6833 69.247C55.6833 69.42 55.6833 69.5936 55.6833 69.7666C43.7308 69.7666 31.7784 69.7666 19.8259 69.7666C18.7062 69.8332 17.6668 69.5733 16.7079 68.9871C16.9456 68.772 17.1188 68.5121 17.2276 68.2076C31.2775 67.5237 45.3086 67.5237 59.321 68.2076Z" fill="#949695"/>
<path fill-rule="evenodd" clip-rule="evenodd" d="M200.672 67.688C211.668 68.2061 222.754 68.3797 233.931 68.2077C233.931 68.7273 233.931 69.247 233.931 69.7667C180.405 69.7667 126.878 69.7667 73.3521 69.7667C111.2 69.2475 149.136 69.074 187.16 69.247C192.879 69.3338 198.596 69.247 204.309 68.9872C202.577 68.8141 200.845 68.6405 199.113 68.4675C199.646 68.2009 200.166 67.9411 200.672 67.688Z" fill="#808081"/>
<path fill-rule="evenodd" clip-rule="evenodd" d="M190.278 67.688C190.688 67.8351 191.035 68.0949 191.318 68.4675C189.829 68.5626 188.443 68.8224 187.16 69.247C149.136 69.074 111.2 69.2475 73.3521 69.7667C73.0055 69.7667 72.6594 69.7667 72.3128 69.7667C72.3705 69.446 72.5435 69.1862 72.8325 68.9872C70.8338 68.9924 69.6214 68.7325 69.1948 68.2077C109.21 68.2077 149.224 68.2077 189.239 68.2077C189.755 68.297 190.101 68.1235 190.278 67.688Z" fill="#767776"/>
<path fill-rule="evenodd" clip-rule="evenodd" d="M55.6833 68.7274C55.6833 68.9004 55.6833 69.074 55.6833 69.2471C43.3832 69.3338 31.0843 69.2471 18.7866 68.9872C24.857 68.3854 31.0064 68.1256 37.2349 68.2077C43.4227 68.2129 49.572 68.386 55.6833 68.7274Z" fill="#787779"/>
<path fill-rule="evenodd" clip-rule="evenodd" d="M70.2341 67.1683C70.4118 67.6038 70.7579 67.7774 71.2735 67.688C110.683 67.515 150.005 67.6885 189.239 68.2077C149.224 68.2077 109.21 68.2077 69.1948 68.2077C69.3678 67.688 69.7144 67.3414 70.2341 67.1683Z" fill="#A09C98"/>
</svg>
