<svg width="248" height="78" viewBox="0 0 248 78" fill="none" xmlns="http://www.w3.org/2000/svg">
<path fill-rule="evenodd" clip-rule="evenodd" d="M131.054 0.0323743C148.49 -0.0539551 165.925 0.0323743 183.359 0.291311C185.651 1.07263 187.204 2.53997 188.02 4.69323C187.854 5.49495 187.336 5.84021 186.466 5.72897C186.466 5.55637 186.466 5.38371 186.466 5.2111C186.466 5.03849 186.466 4.86584 186.466 4.69323C186.997 4.48784 187.084 4.14263 186.725 3.65748C185.99 3.16027 185.214 2.72868 184.395 2.3628C167.824 2.10387 151.252 2.01759 134.679 2.10387C134.747 1.72121 134.66 1.37594 134.42 1.06812C133.526 1.62545 132.577 1.71178 131.572 1.32706C131.182 0.979667 131.009 0.548124 131.054 0.0323743Z" fill="#8FD0E9"/>
<path fill-rule="evenodd" clip-rule="evenodd" d="M134.679 2.10382C151.252 2.01755 167.824 2.10382 184.395 2.36276C185.214 2.72864 185.99 3.16023 186.725 3.65744C187.084 4.14259 186.997 4.4878 186.466 4.69319C186.058 4.54673 185.712 4.2878 185.431 3.91638C155.049 3.65744 124.667 3.57111 94.2849 3.65744C95.0369 3.24216 95.8997 2.98322 96.8743 2.88063C96.5289 2.70803 96.184 2.53537 95.8386 2.36276C108.784 2.10382 121.731 2.01755 134.679 2.10382Z" fill="#5EC2EB"/>
<path fill-rule="evenodd" clip-rule="evenodd" d="M94.285 3.6575C124.668 3.57117 155.049 3.6575 185.431 3.91643C185.712 4.28785 186.058 4.54679 186.466 4.69324C186.466 4.86585 186.466 5.03851 186.466 5.21111C155.394 5.21111 124.322 5.21111 93.2492 5.21111C93.1379 4.34171 93.4833 3.82384 94.285 3.6575Z" fill="#30BEF4"/>
<path fill-rule="evenodd" clip-rule="evenodd" d="M131.054 0.0323486C131.009 0.548098 131.182 0.979641 131.572 1.32703C132.577 1.71176 133.526 1.62543 134.42 1.06809C134.66 1.37592 134.747 1.72118 134.679 2.10384C121.731 2.01756 108.784 2.10384 95.8386 2.36278C96.184 2.53538 96.5289 2.70804 96.8743 2.88065C95.8997 2.98324 95.0369 3.24218 94.285 3.65746C93.4833 3.8238 93.1379 4.34167 93.2492 5.21108C124.322 5.21108 155.394 5.21108 186.466 5.21108C186.466 5.38368 186.466 5.55634 186.466 5.72895C154.699 6.07225 123.109 5.72703 91.6956 4.6932C92.49 1.27747 94.389 0.241725 97.3922 1.58597C97.851 1.15872 98.0235 0.640849 97.9101 0.0323486C108.958 0.0323486 120.006 0.0323486 131.054 0.0323486Z" fill="#79BDD7"/>
<path fill-rule="evenodd" clip-rule="evenodd" d="M2.62148 6.24684C24.115 6.0749 45.5203 6.24756 66.8377 6.76471C45.2569 6.59215 23.6789 6.76476 2.10361 7.28258C1.9195 7.812 1.57424 8.15727 1.06786 8.31833C1.09603 7.21422 1.6139 6.52374 2.62148 6.24684Z" fill="#B2BADE"/>
<path fill-rule="evenodd" clip-rule="evenodd" d="M91.6956 4.69324C123.109 5.72707 154.699 6.07228 186.466 5.72898C187.336 5.84022 187.854 5.49496 188.02 4.69324C205.621 5.28175 223.229 5.71334 240.843 5.98792C242.693 6.21154 243.901 7.161 244.468 8.83622C242.796 7.06256 240.724 6.37208 238.254 6.76473C181.115 6.76473 123.976 6.76473 66.8377 6.76473C45.5203 6.24758 24.115 6.07492 2.62148 6.24686C22.1361 5.94095 41.729 5.42308 61.4 4.69324C67.9589 5.05616 74.5188 5.40138 81.0792 5.72898C84.7411 5.7092 88.2797 5.36393 91.6956 4.69324Z" fill="#CCDDEF"/>
<path fill-rule="evenodd" clip-rule="evenodd" d="M66.8377 6.76471C123.976 6.76471 181.115 6.76471 238.254 6.76471C238.254 7.10998 238.254 7.45519 238.254 7.80045C238.081 7.80045 237.908 7.80045 237.736 7.80045C180.993 7.1107 124.199 7.1107 67.3556 7.80045C67.1831 7.45519 67.0102 7.10998 66.8377 6.76471Z" fill="#A2C6EB"/>
<path fill-rule="evenodd" clip-rule="evenodd" d="M66.8377 6.76465C67.0101 7.10991 67.1831 7.45513 67.3556 7.80039C45.7461 7.55011 24.1681 7.80904 2.62147 8.5772C2.26388 9.12998 2.00495 9.73418 1.84467 10.3898C1.56362 21.6181 1.13207 32.8387 0.549984 44.0515C0.377377 44.0515 0.204718 44.0515 0.032111 44.0515C-0.0310695 32.1246 0.314144 20.2135 1.06786 8.31827C1.57423 8.15721 1.9195 7.81194 2.1036 7.28252C23.6789 6.7647 45.2569 6.59209 66.8377 6.76465Z" fill="#788DC4"/>
<path fill-rule="evenodd" clip-rule="evenodd" d="M67.3556 7.80045C67.3556 7.97306 67.3556 8.14572 67.3556 8.31833C46.2642 8.06825 25.2038 8.32718 4.1751 9.09514C2.52572 10.6134 2.18046 12.4259 3.13935 14.5328C2.88041 15.5685 2.62148 16.6043 2.36254 17.64C2.19491 24.894 1.93597 32.1442 1.58573 39.3907C1.58703 40.8695 1.75969 42.2504 2.10361 43.5337C1.73643 44.0018 1.21856 44.1744 0.549988 44.0515C1.13208 32.8388 1.56362 21.6182 1.84467 10.3898C2.00495 9.73424 2.26389 9.13004 2.62148 8.57726C24.1681 7.8091 45.7461 7.55017 67.3556 7.80045Z" fill="#446AB3"/>
<path fill-rule="evenodd" clip-rule="evenodd" d="M237.736 7.8004C180.963 8.31609 124.17 8.4887 67.3556 8.31827C67.3556 8.14566 67.3556 7.973 67.3556 7.8004C124.199 7.11064 180.993 7.11064 237.736 7.8004Z" fill="#6CACDD"/>
<path fill-rule="evenodd" clip-rule="evenodd" d="M237.736 7.80048C237.908 7.80048 238.081 7.80048 238.254 7.80048C238.254 7.97308 238.254 8.14574 238.254 8.31835C238.254 9.87197 238.254 11.4256 238.254 12.9792C235.146 12.9792 232.039 12.9792 228.932 12.9792C229.071 12.1511 228.898 11.4606 228.414 10.9077C226.764 10.2316 225.037 10.2316 223.235 10.9077C223.408 11.253 223.581 11.5982 223.753 11.9435C186.726 12.6332 149.784 12.6332 112.928 11.9435C148.144 11.9435 183.359 11.9435 218.574 11.9435C218.688 11.335 218.515 10.8171 218.057 10.3898C183.719 11.0751 149.367 11.0751 115 10.3898C114.051 10.4341 113.36 10.7793 112.928 11.4256C112.756 11.4256 112.583 11.4256 112.41 11.4256C111.133 10.8383 109.752 10.752 108.268 11.1666C107.834 11.6904 107.662 12.2945 107.75 12.9792C94.8028 12.9792 81.856 12.9792 68.9092 12.9792C68.6994 11.3144 68.1816 9.76083 67.3556 8.31835C124.17 8.48878 180.963 8.31617 237.736 7.80048Z" fill="#2A97D1"/>
<path fill-rule="evenodd" clip-rule="evenodd" d="M112.928 11.9434C112.928 11.7708 112.928 11.5982 112.928 11.4256C113.36 10.7793 114.051 10.4341 115 10.3898C149.367 11.0751 183.72 11.0751 218.057 10.3898C218.515 10.8171 218.688 11.3349 218.574 11.9434C183.359 11.9434 148.144 11.9434 112.928 11.9434Z" fill="#1595D9"/>
<path fill-rule="evenodd" clip-rule="evenodd" d="M238.254 8.31836C238.426 8.31836 238.599 8.31836 238.771 8.31836C239.605 8.97652 240.554 9.4944 241.62 9.87198C242.787 11.7762 243.477 13.8477 243.691 16.0865C244.361 25.5682 244.62 35.0625 244.468 44.5695C244.64 44.9147 244.813 45.2599 244.986 45.6052C242.742 45.6052 240.497 45.6052 238.254 45.6052C238.254 47.6767 238.254 49.7482 238.254 51.8197C238.084 57.4365 238.257 62.9607 238.771 68.3916C238.771 68.5641 238.771 68.737 238.771 68.9095C230.476 68.2352 222.19 68.2352 213.914 68.9095C213.914 63.2129 213.914 57.5163 213.914 51.8197C213.914 48.8849 213.914 45.9506 213.914 43.0158C213.223 43.0158 212.532 43.0158 211.842 43.0158C183.005 42.6654 154.091 42.3201 125.098 41.9801C124.304 42.1214 123.528 42.294 122.768 42.498C122.768 35.2477 122.768 27.9975 122.768 20.7473C119.661 20.7473 116.553 20.7473 113.446 20.7473C113.446 29.3785 113.446 38.0097 113.446 46.6409C115.009 46.5555 116.563 46.642 118.107 46.8999C116.258 48.4592 114.878 50.0993 113.964 51.8197C115.769 50.2743 117.495 48.6342 119.143 46.8999C120.339 46.6425 121.547 46.5565 122.768 46.6409C122.768 45.6052 122.768 44.5695 122.768 43.5337C123.795 51.2832 124.141 59.2237 123.804 67.3559C115 67.3559 106.196 67.3559 97.3922 67.3559C97.3922 67.8737 97.3922 68.3916 97.3922 68.9095C96.8743 68.9095 96.3564 68.9095 95.8386 68.9095C96.0095 60.1875 95.837 51.5566 95.3207 43.0158C90.8323 43.0158 86.3444 43.0158 81.856 43.0158C56.8257 43.0158 31.795 43.0158 6.76446 43.0158C6.76446 33.1763 6.76446 23.3367 6.76446 13.4971C40.0892 13.33 73.4059 13.5026 106.714 14.015C108.287 13.8229 109.15 12.9597 109.303 11.4256C110.373 11.4345 111.408 11.6071 112.41 11.9435C130.964 12.6339 149.694 12.9792 168.6 12.9792C187.33 12.8066 206.059 12.6339 224.789 12.4613C224.198 11.9821 224.198 11.5505 224.789 11.1667C225.985 10.9095 227.193 10.8232 228.414 10.9077C228.898 11.4606 229.071 12.1511 228.932 12.9792C232.039 12.9792 235.146 12.9792 238.254 12.9792C238.254 11.4256 238.254 9.87198 238.254 8.31836Z" fill="#020103"/>
<path fill-rule="evenodd" clip-rule="evenodd" d="M228.414 10.9077C227.193 10.8231 225.985 10.9094 224.789 11.1666C224.198 11.5505 224.198 11.982 224.789 12.4613C206.059 12.6339 187.33 12.8066 168.6 12.9792C149.694 12.9791 130.964 12.6338 112.41 11.9434C112.41 11.7708 112.41 11.5982 112.41 11.4255C112.583 11.4255 112.756 11.4255 112.928 11.4255C112.928 11.5982 112.928 11.7708 112.928 11.9434C149.784 12.6331 186.726 12.6331 223.753 11.9434C223.581 11.5982 223.408 11.2529 223.235 10.9077C225.037 10.2315 226.764 10.2315 228.414 10.9077Z" fill="#327DA2"/>
<path fill-rule="evenodd" clip-rule="evenodd" d="M112.41 11.4256C112.41 11.5982 112.41 11.7709 112.41 11.9435C111.408 11.6071 110.373 11.4345 109.303 11.4256C109.15 12.9597 108.287 13.8229 106.714 14.015C73.4059 13.5026 40.0892 13.33 6.76446 13.4971C6.76446 23.3367 6.76446 33.1763 6.76446 43.0158C6.59185 43.0158 6.41919 43.0158 6.24659 43.0158C6.24659 33.0037 6.24659 22.9914 6.24659 12.9792C27.1341 12.9792 48.0218 12.9792 68.9092 12.9792C81.856 12.9792 94.8028 12.9792 107.75 12.9792C107.662 12.2945 107.834 11.6904 108.268 11.1667C109.752 10.752 111.133 10.8383 112.41 11.4256Z" fill="#000616"/>
<path fill-rule="evenodd" clip-rule="evenodd" d="M238.254 6.76478C240.724 6.37213 242.796 7.0626 244.468 8.83627C245.286 12.9236 245.891 17.0666 246.281 21.2652C246.54 29.3767 246.626 37.4901 246.54 45.6052C246.022 45.6052 245.504 45.6052 244.986 45.6052C244.813 45.26 244.64 44.9148 244.468 44.5695C244.842 44.3533 245.101 44.008 245.245 43.5337C245.667 34.7169 245.495 25.913 244.727 17.1222C244.418 14.3248 243.555 11.7354 242.138 9.35414C241.155 8.56889 240.033 8.22362 238.771 8.31839C238.599 8.31839 238.426 8.31839 238.254 8.31839C238.254 8.14579 238.254 7.97313 238.254 7.80052C238.254 7.45526 238.254 7.11004 238.254 6.76478Z" fill="#777777"/>
<path fill-rule="evenodd" clip-rule="evenodd" d="M67.3556 8.31828C68.1816 9.76077 68.6995 11.3144 68.9092 12.9791C48.0218 12.9791 27.1341 12.9791 6.24659 12.9791C6.24659 22.9913 6.24659 33.0036 6.24659 43.0158C6.05922 44.7696 5.02347 45.6327 3.13935 45.6051C3.31708 44.5781 2.97182 43.8875 2.1036 43.5336C1.75968 42.2504 1.58703 40.8694 1.58573 39.3906C1.93597 32.1442 2.19491 24.8939 2.36254 17.64C2.62148 16.6042 2.88041 15.5685 3.13935 14.5328C2.18046 12.4259 2.52572 10.6133 4.1751 9.09509C25.2038 8.32714 46.2642 8.0682 67.3556 8.31828Z" fill="#1452A1"/>
<path fill-rule="evenodd" clip-rule="evenodd" d="M128.465 16.6043C133.298 16.6043 138.132 16.6043 142.965 16.6043C142.965 25.0629 142.965 33.5215 142.965 41.9801C138.132 41.9801 133.298 41.9801 128.465 41.9801C128.465 33.5215 128.465 25.0629 128.465 16.6043Z" fill="#292929"/>
<path fill-rule="evenodd" clip-rule="evenodd" d="M178.18 16.6043C189.056 16.6043 199.931 16.6043 210.806 16.6043C210.806 25.0629 210.806 33.5215 210.806 41.9801C199.931 41.9801 189.056 41.9801 178.18 41.9801C178.18 33.5215 178.18 25.0629 178.18 16.6043Z" fill="#292929"/>
<path fill-rule="evenodd" clip-rule="evenodd" d="M9.35382 16.6043C15.5683 16.6043 21.7828 16.6043 27.9972 16.6043C27.9972 19.3663 27.9972 22.1283 27.9972 24.8903C21.7828 24.8903 15.5683 24.8903 9.35382 24.8903C9.35382 22.1283 9.35382 19.3663 9.35382 16.6043Z" fill="#2A2929"/>
<path fill-rule="evenodd" clip-rule="evenodd" d="M30.5866 16.6043C40.5988 16.6043 50.6112 16.6043 60.6232 16.6043C60.6232 22.1283 60.6232 27.6522 60.6232 33.1762C50.6112 33.1762 40.5988 33.1762 30.5866 33.1762C30.5866 27.6522 30.5866 22.1283 30.5866 16.6043Z" fill="#282828"/>
<path fill-rule="evenodd" clip-rule="evenodd" d="M92.2135 30.5869C87.377 30.5006 82.5432 30.587 77.713 30.8458C82.3832 30.9328 87.0441 31.1917 91.6956 31.6226C82.3785 32.2266 73.0568 32.3129 63.7305 31.8816C68.2054 31.3746 72.6938 31.0293 77.1951 30.8458C72.8797 30.6732 68.5638 30.5005 64.2483 30.3279C63.9107 26.3928 63.5658 22.5087 63.2126 18.6758C63.2126 17.9853 63.2126 17.2948 63.2126 16.6043C72.8797 16.6043 82.5463 16.6043 92.2135 16.6043C92.2135 21.2652 92.2135 25.926 92.2135 30.5869Z" fill="#282828"/>
<path fill-rule="evenodd" clip-rule="evenodd" d="M145.554 16.6043C155.394 16.6043 165.234 16.6043 175.073 16.6043C175.073 25.0629 175.073 33.5215 175.073 41.9801C165.234 41.9801 155.394 41.9801 145.554 41.9801C145.554 33.5215 145.554 25.0629 145.554 16.6043Z" fill="#292929"/>
<path fill-rule="evenodd" clip-rule="evenodd" d="M98.4279 20.7473C101.708 20.7473 104.988 20.7473 108.268 20.7473C108.207 29.4578 108.207 38.089 108.268 46.6409C106.876 46.556 105.495 46.6424 104.125 46.8998C105.728 48.1381 106.85 49.6052 107.491 51.3017C106.024 49.8346 104.556 48.367 103.089 46.8998C101.544 46.6419 99.9909 46.5554 98.4279 46.6409C98.4279 38.0097 98.4279 29.3785 98.4279 20.7473Z" fill="#2A2A2B"/>
<path fill-rule="evenodd" clip-rule="evenodd" d="M122.768 42.4979C122.768 42.8432 122.768 43.1884 122.768 43.5337C122.768 44.5694 122.768 45.6051 122.768 46.6409C121.547 46.5565 120.339 46.6424 119.143 46.8998C117.495 48.6342 115.769 50.2743 113.964 51.8196C114.878 50.0992 116.258 48.4591 118.107 46.8998C116.563 46.6419 115.009 46.5554 113.446 46.6409C113.446 38.0097 113.446 29.3785 113.446 20.7473C116.553 20.7473 119.661 20.7473 122.768 20.7473C122.768 27.9975 122.768 35.2477 122.768 42.4979Z" fill="#2A2A2A"/>
<path fill-rule="evenodd" clip-rule="evenodd" d="M216.503 20.7473C218.92 20.7473 221.336 20.7473 223.753 20.7473C223.502 33.5633 223.502 46.3374 223.753 59.0698C221.336 59.0698 218.92 59.0698 216.503 59.0698C216.503 46.2955 216.503 33.5215 216.503 20.7473Z" fill="#2B2B2B"/>
<path fill-rule="evenodd" clip-rule="evenodd" d="M228.414 20.7473C231.003 20.7473 233.593 20.7473 236.182 20.7473C236.182 33.5215 236.182 46.2955 236.182 59.0698C233.593 59.0698 231.003 59.0698 228.414 59.0698C228.64 46.3685 228.64 33.5942 228.414 20.7473Z" fill="#2C2C2C"/>
<path fill-rule="evenodd" clip-rule="evenodd" d="M44.5692 29.0333C45.3322 29.3295 46.0228 29.7611 46.6407 30.3279C51.1291 30.5006 55.617 30.6732 60.1054 30.8458C51.8215 31.3106 43.5353 31.4832 35.2475 31.3637C34.0391 31.1911 32.8307 31.0184 31.6224 30.8458C36.2375 30.4231 40.812 30.5094 45.346 31.1048C45.2718 30.3979 45.0128 29.7074 44.5692 29.0333Z" fill="#50504C"/>
<path fill-rule="evenodd" clip-rule="evenodd" d="M63.2126 18.6758C63.5658 22.5087 63.9107 26.3928 64.2483 30.3279C68.5638 30.5005 72.8797 30.6732 77.1951 30.8458C72.6938 31.0293 68.2054 31.3746 63.7305 31.8815C73.0568 32.3129 82.3785 32.2266 91.6956 31.6226C87.0441 31.1917 82.3832 30.9328 77.713 30.8458C82.5432 30.587 87.377 30.5006 92.2135 30.5869C92.2135 31.2773 92.2135 31.9679 92.2135 32.6583C82.5463 32.6583 72.8797 32.6583 63.2126 32.6583C63.2126 27.9975 63.2126 23.3366 63.2126 18.6758Z" fill="#414240"/>
<path fill-rule="evenodd" clip-rule="evenodd" d="M238.771 8.31835C240.033 8.22358 241.155 8.56884 242.138 9.35409C243.554 11.7354 244.418 14.3247 244.727 17.1222C245.495 25.913 245.667 34.7168 245.245 43.5337C245.101 44.008 244.842 44.3532 244.468 44.5694C244.62 35.0625 244.361 25.5682 243.691 16.0864C243.477 13.8477 242.787 11.7762 241.62 9.87197C240.554 9.49438 239.605 8.97651 238.771 8.31835Z" fill="#363636"/>
<path fill-rule="evenodd" clip-rule="evenodd" d="M6.24659 43.0158C6.41919 43.0158 6.59185 43.0158 6.76446 43.0158C31.795 43.0158 56.8257 43.0158 81.856 43.0158C81.856 43.1884 81.856 43.3611 81.856 43.5337C63.2126 43.5337 44.5692 43.5337 25.9257 43.5337C25.7768 46.5006 25.9494 49.4354 26.4436 52.3375C25.2822 52.8419 24.0738 53.0149 22.8185 52.8554C22.8185 49.9206 22.8185 46.9863 22.8185 44.0516C22.128 44.0516 21.4375 44.0516 20.747 44.0516C20.6527 46.7932 20.3937 46.7932 19.9702 44.0516C19.6249 50.9564 19.2797 50.9564 18.9345 44.0516C18.5892 50.9564 18.244 50.9564 17.8987 44.0516C17.6401 46.9812 17.5538 49.9159 17.6398 52.8554C16.7766 52.8554 15.9136 52.8554 15.0504 52.8554C15.0504 49.9206 15.0504 46.9863 15.0504 44.0516C14.3599 44.0516 13.6694 44.0516 12.9789 44.0516C12.9789 46.6409 12.9789 49.2303 12.9789 51.8196C12.4672 49.1578 12.2946 46.3954 12.4611 43.5337C10.7348 43.5337 9.00856 43.5337 7.28233 43.5337C7.28679 44.4702 7.02785 45.3333 6.50552 46.123C5.3561 47.0019 4.23403 47.8652 3.13935 48.7124C3.13935 47.6767 3.13935 46.6409 3.13935 45.6052C5.02348 45.6328 6.05922 44.7696 6.24659 43.0158Z" fill="#1D4274"/>
<path fill-rule="evenodd" clip-rule="evenodd" d="M211.842 43.0158C212.532 43.0158 213.223 43.0158 213.914 43.0158C213.914 45.9506 213.914 48.8849 213.914 51.8196C213.741 51.8196 213.568 51.8196 213.396 51.8196C213.396 49.0578 213.396 46.2955 213.396 43.5337C210.973 43.4478 208.556 43.5341 206.145 43.7926C205.681 44.8939 204.99 45.1528 204.074 44.5694C204.346 44.2109 204.691 43.9519 205.11 43.7926C178.526 43.5337 151.942 43.4474 125.357 43.5337C125.357 46.2955 125.357 49.0578 125.357 51.8196C125.185 51.8196 125.012 51.8196 124.839 51.8196C124.839 48.8849 124.839 45.9506 124.839 43.0158C153.84 43.0158 182.841 43.0158 211.842 43.0158Z" fill="#448DB8"/>
<path fill-rule="evenodd" clip-rule="evenodd" d="M211.842 43.0158C182.841 43.0158 153.84 43.0158 124.839 43.0158C124.839 45.9506 124.839 48.8848 124.839 51.8196C124.839 57.5162 124.839 63.2128 124.839 68.9094C124.494 68.9094 124.149 68.9094 123.804 68.9094C123.804 68.3916 123.804 67.8737 123.804 67.3558C124.141 59.2237 123.795 51.2831 122.768 43.5337C122.768 43.1884 122.768 42.8432 122.768 42.4979C123.528 42.294 124.304 42.1213 125.098 41.98C154.091 42.3201 183.005 42.6653 211.842 43.0158Z" fill="#01061B"/>
<path fill-rule="evenodd" clip-rule="evenodd" d="M213.396 51.8196C210.288 51.8196 207.181 51.8196 204.074 51.8196C205.05 51.0154 205.568 49.9796 205.628 48.7124C204.636 48.5653 203.773 48.7378 203.038 49.2303C203.038 49.7481 203.038 50.266 203.038 50.7839C203.038 51.1293 203.038 51.4742 203.038 51.8196C202.348 51.8196 201.657 51.8196 200.967 51.8196C197.978 50.0247 194.698 49.3338 191.127 49.7481C187.392 49.1635 184.113 50.0262 181.288 52.3375C162.733 51.8207 144.089 51.6477 125.357 51.8196C125.357 49.0578 125.357 46.2955 125.357 43.5337C151.942 43.4473 178.526 43.5337 205.11 43.7926C204.691 43.9519 204.346 44.2108 204.074 44.5694C204.99 45.1528 205.681 44.8938 206.145 43.7926C208.556 43.5341 210.973 43.4478 213.396 43.5337C213.396 46.2955 213.396 49.0578 213.396 51.8196Z" fill="#1E96D2"/>
<path fill-rule="evenodd" clip-rule="evenodd" d="M12.9789 51.8197C13.413 51.9968 13.5856 52.3417 13.4968 52.8554C13.4968 53.5457 13.4968 54.2366 13.4968 54.9269C13.4968 56.653 13.4968 58.3795 13.4968 60.1056C13.4968 60.9689 13.4968 61.8317 13.4968 62.695C11.5709 63.072 10.0173 62.5541 8.83593 61.1414C8.19003 61.9213 8.19003 62.6981 8.83593 63.4718C12.4824 64.0052 15.9349 63.5738 19.1934 62.1771C21.1605 62.6862 23.232 62.8591 25.4079 62.695C26.0836 61.7126 26.4288 60.5039 26.4436 59.0699C26.4174 57.6597 26.2448 56.2785 25.9257 54.9269C22.3128 54.4965 18.6877 54.2376 15.0504 54.1501C14.4817 53.7513 14.4817 53.3199 15.0504 52.8554C15.9135 52.8554 16.7766 52.8554 17.6398 52.8554C19.366 52.8554 21.0923 52.8554 22.8185 52.8554C24.0738 53.0149 25.2822 52.8419 26.4436 52.3375C25.9493 49.4354 25.7767 46.5006 25.9257 43.5337C44.5691 43.5337 63.2126 43.5337 81.856 43.5337C83.2009 46.1878 84.2366 48.9496 84.9632 51.8197C88.4159 51.8197 91.868 51.8197 95.3207 51.8197C95.3207 57.3438 95.3207 62.8674 95.3207 68.3916C90.8323 68.3916 86.3444 68.3916 81.856 68.3916C81.856 67.8737 81.856 67.3558 81.856 66.838C82.8104 59.5929 80.394 53.8104 74.6058 49.4892C70.6352 49.1438 66.6652 49.1438 62.6947 49.4892C61.1281 49.569 60.2653 50.3458 60.1053 51.8197C59.4207 51.7316 58.8163 51.9041 58.2928 52.3375C56.0131 56.6861 55.0633 61.347 55.4445 66.3201C56.113 66.1974 56.6309 66.3698 56.9981 66.838C56.4802 66.838 55.9623 66.838 55.4445 66.838C55.4445 67.3558 55.4445 67.8737 55.4445 68.3916C46.2937 68.4781 37.1447 68.3916 27.9972 68.1326C21.6164 67.0487 15.2293 66.013 8.83593 65.0254C6.4895 64.5557 4.2454 63.9519 2.10358 63.2129C3.75767 63.3806 4.27554 62.7768 3.6572 61.4003C2.98749 61.1465 2.29695 61.0601 1.58571 61.1414C0.717494 60.7877 0.372228 60.0968 0.549962 59.0699C1.06783 59.0699 1.58571 59.0699 2.10358 59.0699C2.16407 58.0424 1.8188 57.1796 1.06783 56.4805C1.24044 56.3081 1.4131 56.1351 1.58571 55.9626C1.93097 56.3081 2.27619 56.653 2.62145 56.9984C3.11442 56.1983 3.28702 55.335 3.13933 54.409C3.13933 52.51 3.13933 50.6115 3.13933 48.7124C4.234 47.8652 5.35608 47.0019 6.5055 46.1231C7.02782 45.3334 7.28676 44.4702 7.28231 43.5337C9.00853 43.5337 10.7348 43.5337 12.461 43.5337C12.2946 46.3955 12.4672 49.1578 12.9789 51.8197Z" fill="#0F509E"/>
<path fill-rule="evenodd" clip-rule="evenodd" d="M15.0504 52.8554C14.6244 51.0548 14.3654 49.1557 14.2736 47.1588C14.1818 49.1557 13.9229 51.0548 13.4968 52.8554C13.5857 52.3417 13.413 51.9968 12.9789 51.8197C12.9789 49.2303 12.9789 46.6409 12.9789 44.0516C13.6694 44.0516 14.3599 44.0516 15.0504 44.0516C15.0504 46.9864 15.0504 49.9206 15.0504 52.8554Z" fill="#001B4F"/>
<path fill-rule="evenodd" clip-rule="evenodd" d="M2.10361 43.5337C2.97182 43.8876 3.31709 44.5781 3.13935 45.6052C3.13935 46.6409 3.13935 47.6767 3.13935 48.7124C3.13935 50.6115 3.13935 52.51 3.13935 54.409C2.96675 54.409 2.79409 54.409 2.62148 54.409C2.62148 51.1293 2.62148 47.8491 2.62148 44.5694C1.75834 44.5694 0.895254 44.5694 0.0321159 44.5694C0.0321159 44.3968 0.0321159 44.2242 0.0321159 44.0516C0.204723 44.0516 0.377382 44.0516 0.549989 44.0516C1.21856 44.1745 1.73643 44.0018 2.10361 43.5337Z" fill="#5C355A"/>
<path fill-rule="evenodd" clip-rule="evenodd" d="M0.0321159 44.5694C0.895254 44.5694 1.75834 44.5694 2.62148 44.5694C2.62148 47.8491 2.62148 51.1293 2.62148 54.409C1.88677 54.9015 1.02369 55.0739 0.0321159 54.9269C0.0321159 54.409 0.0321159 53.8911 0.0321159 53.3732C0.533106 52.6969 1.22359 52.3515 2.10361 52.3375C2.10361 50.9563 2.10361 49.5757 2.10361 48.1945C1.41313 48.1945 0.722596 48.1945 0.0321159 48.1945C0.0321159 46.9863 0.0321159 45.7777 0.0321159 44.5694Z" fill="#B3413F"/>
<path fill-rule="evenodd" clip-rule="evenodd" d="M81.856 43.0158C86.3444 43.0158 90.8323 43.0158 95.3207 43.0158C95.3207 45.9506 95.3207 48.8849 95.3207 51.8196C91.868 51.8196 88.4159 51.8196 84.9632 51.8196C84.2367 48.9496 83.2009 46.1878 81.856 43.5337C81.856 43.3611 81.856 43.1884 81.856 43.0158Z" fill="#2197D1"/>
<path fill-rule="evenodd" clip-rule="evenodd" d="M207.181 48.7124C207.872 48.7124 208.562 48.7124 209.253 48.7124C209.253 49.2303 209.253 49.7481 209.253 50.266C208.562 50.266 207.872 50.266 207.181 50.266C207.181 49.7481 207.181 49.2303 207.181 48.7124Z" fill="#BA1822"/>
<path fill-rule="evenodd" clip-rule="evenodd" d="M203.038 49.2303C205.011 49.6166 205.011 50.1345 203.038 50.7839C203.038 50.266 203.038 49.7482 203.038 49.2303Z" fill="#92270D"/>
<path fill-rule="evenodd" clip-rule="evenodd" d="M0.0321159 48.1945C0.722596 48.1945 1.41313 48.1945 2.10361 48.1945C2.10361 49.5757 2.10361 50.9563 2.10361 52.3375C1.22359 52.3515 0.533106 52.6969 0.0321159 53.3732C0.0321159 51.6472 0.0321159 49.9206 0.0321159 48.1945Z" fill="#A7A6A1"/>
<path fill-rule="evenodd" clip-rule="evenodd" d="M22.8185 52.8554C21.0923 52.8554 19.366 52.8554 17.6398 52.8554C17.5538 49.916 17.6401 46.9812 17.8987 44.0516C18.244 50.9564 18.5892 50.9564 18.9345 44.0516C19.2798 50.9564 19.625 50.9564 19.9702 44.0516C20.3938 46.7932 20.6527 46.7932 20.747 44.0516C21.4375 44.0516 22.1281 44.0516 22.8185 44.0516C22.8185 46.9864 22.8185 49.9206 22.8185 52.8554Z" fill="#0B2447"/>
<path fill-rule="evenodd" clip-rule="evenodd" d="M203.038 49.2302C203.773 48.7377 204.636 48.5653 205.628 48.7123C205.568 49.9796 205.05 51.0153 204.074 51.8196C203.729 51.8196 203.384 51.8196 203.038 51.8196C203.038 51.4741 203.038 51.1292 203.038 50.7838C205.011 50.1344 205.011 49.6165 203.038 49.2302Z" fill="#A6BA9C"/>
<path fill-rule="evenodd" clip-rule="evenodd" d="M244.986 45.6052C245.504 45.6052 246.022 45.6052 246.54 45.6052C246.54 47.6767 246.54 49.7481 246.54 51.8196C243.778 51.8196 241.015 51.8196 238.254 51.8196C238.254 49.7481 238.254 47.6767 238.254 45.6052C240.498 45.6052 242.742 45.6052 244.986 45.6052Z" fill="#3B98CF"/>
<path fill-rule="evenodd" clip-rule="evenodd" d="M81.856 66.838C81.1657 66.838 80.4748 66.838 79.7845 66.838C79.2708 69.94 77.7172 72.3564 75.1237 74.0882C72.9828 74.765 72.8103 75.2829 74.6058 75.6418C75.7871 75.4227 76.6503 75.7682 77.1952 76.6775C71.671 76.6775 66.1474 76.6775 60.6232 76.6775C60.6232 76.3321 60.6232 75.9872 60.6232 75.6418C64.1199 76.0354 64.6378 75.5175 62.1768 74.0882C61.4865 73.5703 60.7957 73.0524 60.1053 72.5346C58.6491 70.8277 57.6133 68.9286 56.9981 66.838C56.6309 66.3698 56.1131 66.1974 55.4445 66.3201C55.0633 61.347 56.0131 56.6861 58.2928 52.3375C58.8164 51.9041 59.4207 51.7316 60.1053 51.8197C60.2654 50.3458 61.1281 49.569 62.6947 49.4892C66.6652 49.1438 70.6353 49.1438 74.6058 49.4892C80.3941 53.8104 82.8104 59.5929 81.856 66.838Z" fill="#07070C"/>
<path fill-rule="evenodd" clip-rule="evenodd" d="M243.95 66.3201C242.509 67.7308 240.783 68.5941 238.771 68.9094C238.771 68.737 238.771 68.564 238.771 68.3916C239.169 68.0436 239.514 67.6122 239.807 67.0969C239.297 62.2201 239.125 57.3003 239.289 52.3375C240.852 52.2521 242.406 52.3386 243.95 52.5965C243.616 55.4178 243.271 58.2661 242.914 61.1414C242.556 60.8695 242.297 60.5241 242.138 60.1056C241.819 61.4236 242.078 62.6318 242.914 63.7307C243.218 63.6225 243.477 63.4495 243.691 63.2129C243.948 64.2346 244.034 65.2704 243.95 66.3201Z" fill="#0F4FA0"/>
<path fill-rule="evenodd" clip-rule="evenodd" d="M15.0504 52.8554C14.4817 53.3199 14.4817 53.7513 15.0504 54.1501C18.6877 54.2376 22.3129 54.4966 25.9257 54.9269C26.2448 56.2786 26.4175 57.6597 26.4436 59.0699C26.4288 60.5039 26.0836 61.7126 25.4079 62.695C25.1493 60.1098 24.8904 57.5204 24.6311 54.9269C24.2858 61.8317 23.9406 61.8317 23.5953 54.9269C23.25 61.8317 22.9048 61.8317 22.5596 54.9269C22.2143 64.594 21.8691 64.594 21.5238 54.9269C21.1786 64.594 20.8333 64.594 20.4881 54.9269C20.1428 64.594 19.7976 64.594 19.4523 54.9269C19.1938 57.3376 19.1075 59.754 19.1934 62.1771C15.9349 63.5738 12.4824 64.0052 8.83594 63.4718C8.19005 62.6981 8.19005 61.9213 8.83594 61.1414C10.0173 62.5541 11.5709 63.072 13.4968 62.695C13.4968 61.8317 13.4968 60.9689 13.4968 60.1056C13.9121 60.8576 14.171 61.7204 14.2736 62.695C14.6189 55.0994 14.9641 55.0994 15.3093 62.695C15.6546 53.7187 15.9998 53.7187 16.3451 62.695C16.6904 53.0279 17.0356 53.0279 17.3808 62.695C17.6394 60.1113 17.7257 57.522 17.6398 54.9269C16.2588 54.9269 14.8778 54.9269 13.4968 54.9269C13.4968 54.2366 13.4968 53.5457 13.4968 52.8554C13.9228 51.0548 14.1818 49.1557 14.2736 47.1588C14.3654 49.1557 14.6244 51.0548 15.0504 52.8554Z" fill="#1F4579"/>
<path fill-rule="evenodd" clip-rule="evenodd" d="M125.357 51.8196C144.089 51.6477 162.733 51.8206 181.288 52.3375C178.501 56.7482 177.466 61.5815 178.18 66.8379C177.712 67.2051 177.54 67.723 177.662 68.3915C160.227 68.3915 142.793 68.3915 125.357 68.3915C125.357 62.8674 125.357 57.3438 125.357 51.8196Z" fill="#0C509E"/>
<path fill-rule="evenodd" clip-rule="evenodd" d="M238.254 51.8196C241.015 51.8196 243.778 51.8196 246.54 51.8196C247.373 55.9637 247.114 60.1066 245.763 64.2486C245.035 64.8861 244.431 65.5764 243.95 66.3201C244.034 65.2704 243.948 64.2346 243.691 63.2128C243.477 63.4495 243.218 63.6225 242.914 63.7307C242.078 62.6318 241.819 61.4236 242.138 60.1056C242.297 60.524 242.556 60.8695 242.914 61.1414C243.271 58.2661 243.616 55.4178 243.95 52.5965C242.406 52.3385 240.852 52.2521 239.289 52.3375C239.125 57.3003 239.297 62.2201 239.807 67.0969C239.514 67.6122 239.169 68.0436 238.771 68.3916C238.257 62.9606 238.084 57.4365 238.254 51.8196Z" fill="#2B59A0"/>
<path fill-rule="evenodd" clip-rule="evenodd" d="M46.6407 64.2486C46.6407 61.3138 46.6407 58.3795 46.6407 55.4448C43.955 55.7736 41.7109 55.7736 39.9083 55.4448C39.749 54.1894 39.9217 52.9812 40.4262 51.8196C40.9262 52.8015 41.0988 53.8373 40.9441 54.9269C44.0513 54.9269 47.1585 54.9269 50.2658 54.9269C50.2658 58.0341 50.2658 61.1414 50.2658 64.2486C49.0576 64.2486 47.8489 64.2486 46.6407 64.2486Z" fill="#1B4274"/>
<path fill-rule="evenodd" clip-rule="evenodd" d="M200.967 51.8196C201.657 51.8196 202.348 51.8196 203.038 51.8196C203.384 51.8196 203.729 51.8196 204.074 51.8196C207.181 51.8196 210.288 51.8196 213.396 51.8196C213.568 51.8196 213.741 51.8196 213.914 51.8196C213.914 57.5162 213.914 63.2128 213.914 68.9094C213.568 68.9094 213.223 68.9094 212.878 68.9094C212.965 67.6603 212.62 66.5381 211.842 65.5433C213.186 63.8783 213.186 62.2382 211.842 60.6235C212.815 57.9823 213.161 55.2205 212.878 52.3375C212.36 52.3375 211.842 52.3375 211.324 52.3375C211.494 54.9497 211.321 57.539 210.806 60.1056C210.3 60.3526 209.868 60.6975 209.512 61.1414C209.802 58.4194 209.802 55.6571 209.512 52.8554C209.165 56.465 208.906 56.6379 208.735 53.3733C208.217 53.3733 207.699 53.3733 207.181 53.3733C207.527 55.4448 206.663 56.308 204.592 55.9626C204.592 56.4805 204.592 56.9984 204.592 57.5162C203.509 55.5214 202.301 53.6224 200.967 51.8196Z" fill="#145095"/>
<path fill-rule="evenodd" clip-rule="evenodd" d="M13.4968 54.9269C14.8778 54.9269 16.2588 54.9269 17.6398 54.9269C17.7257 57.5219 17.6394 60.1113 17.3808 62.695C17.0356 53.0278 16.6904 53.0278 16.3451 62.695C15.9998 53.7187 15.6546 53.7187 15.3094 62.695C14.9641 55.0993 14.6189 55.0993 14.2736 62.695C14.171 61.7203 13.9121 60.8576 13.4968 60.1056C13.4968 58.3795 13.4968 56.6529 13.4968 54.9269Z" fill="#01163E"/>
<path fill-rule="evenodd" clip-rule="evenodd" d="M95.3207 43.0158C95.837 51.5566 96.0095 60.1874 95.8386 68.9094C91.0835 69.0788 86.4226 68.9058 81.856 68.3916C86.3444 68.3916 90.8323 68.3916 95.3207 68.3916C95.3207 62.8674 95.3207 57.3438 95.3207 51.8196C95.3207 48.8849 95.3207 45.9506 95.3207 43.0158Z" fill="#0E345A"/>
<path fill-rule="evenodd" clip-rule="evenodd" d="M200.967 51.8197C202.301 53.6224 203.509 55.5214 204.592 57.5163C205.065 60.5929 205.237 63.7002 205.11 66.838C204.419 66.838 203.729 66.838 203.038 66.838C202.524 69.94 200.971 72.3564 198.377 74.0882C197.859 74.2606 197.514 74.6061 197.342 75.1239C197.557 75.6672 198.593 75.9261 200.449 75.9007C200.161 76.0991 199.988 76.358 199.931 76.6775C194.58 76.6775 189.228 76.6775 183.877 76.6775C183.819 76.358 183.647 76.0991 183.359 75.9007C184.74 75.7283 186.121 75.5553 187.502 75.3829C186.97 75.1172 186.452 74.8583 185.948 74.6061C185.258 74.0882 184.567 73.5703 183.877 73.0524C182.24 71.5118 181.118 69.6127 180.511 67.3558C179.809 66.9001 179.032 66.7271 178.18 66.838C177.466 61.5816 178.501 56.7483 181.288 52.3375C184.113 50.0263 187.392 49.1635 191.127 49.7482C194.698 49.3339 197.978 50.0247 200.967 51.8197Z" fill="#09090C"/>
<path fill-rule="evenodd" clip-rule="evenodd" d="M2.62148 54.409C2.79409 54.409 2.96675 54.409 3.13936 54.409C3.28705 55.335 3.11445 56.1982 2.62148 56.9984C2.27622 56.6529 1.931 56.308 1.58574 55.9626C1.41313 56.1351 1.24047 56.308 1.06787 56.4805C1.81883 57.1796 2.1641 58.0424 2.10361 59.0699C1.58574 59.0699 1.06787 59.0699 0.549992 59.0699C0.372258 60.0968 0.717524 60.7876 1.58574 61.1413C1.26994 61.6028 1.09733 62.1206 1.06787 62.695C0.74813 62.6375 0.489194 62.465 0.291056 62.1771C0.0325339 59.7664 -0.0537437 57.35 0.0321196 54.9269C1.02369 55.0739 1.88678 54.9015 2.62148 54.409Z" fill="#5170A6"/>
<path fill-rule="evenodd" clip-rule="evenodd" d="M189.574 57.5162C193.025 56.829 195.787 57.8648 197.859 60.6235C197.773 60.7959 197.687 60.9689 197.601 61.1414C194.897 58.119 191.704 57.3422 188.02 58.8109C188.575 58.3697 189.092 57.9383 189.574 57.5162Z" fill="#606162"/>
<path fill-rule="evenodd" clip-rule="evenodd" d="M39.9083 55.4448C41.7109 55.7736 43.955 55.7736 46.6407 55.4448C46.6407 58.3795 46.6407 61.3138 46.6407 64.2486C45.305 64.4646 44.1829 64.1191 43.2745 63.2129C42.1837 64.1404 40.8891 64.4858 39.3904 64.2486C39.2236 61.2149 39.3962 58.2801 39.9083 55.4448Z" fill="#0E264C"/>
<path fill-rule="evenodd" clip-rule="evenodd" d="M196.824 67.8737C196.415 67.7272 196.07 67.4682 195.788 67.0969C196.551 66.7292 196.896 66.1254 196.824 65.2844C196.215 65.3978 195.697 65.2253 195.27 64.7665C195.848 64.8172 196.366 64.5583 196.824 63.9897C196.614 63.5003 196.269 63.1549 195.788 62.9539C196.281 62.5821 196.367 62.1507 196.047 61.6592C195.606 62.2139 195.174 62.7318 194.752 63.2129C193.715 61.9275 192.334 61.4096 190.609 61.6592C190.677 61.2056 190.505 60.8602 190.091 60.6235C189.563 61.349 189.045 62.0399 188.538 62.695C187.157 63.0404 187.157 63.3853 188.538 63.7307C188.146 65.027 187.628 66.2357 186.984 67.3558C185.566 62.7685 187.206 60.0067 191.904 59.0699C197.066 60.0746 198.706 63.0093 196.824 67.8737Z" fill="#E1E0DE"/>
<path fill-rule="evenodd" clip-rule="evenodd" d="M194.234 60.6235C195.186 60.6955 195.358 61.0409 194.752 61.6592C194.339 61.4226 194.167 61.0771 194.234 60.6235Z" fill="#222121"/>
<path fill-rule="evenodd" clip-rule="evenodd" d="M1.58573 61.1413C2.29698 61.06 2.98751 61.1465 3.65722 61.4002C4.27556 62.7768 3.75769 63.3806 2.10361 63.2128C1.59008 63.3019 1.24482 63.1289 1.06786 62.6949C1.09733 62.1206 1.26993 61.6027 1.58573 61.1413Z" fill="#B16B33"/>
<path fill-rule="evenodd" clip-rule="evenodd" d="M25.4079 62.695C23.232 62.8591 21.1605 62.6862 19.1934 62.1771C19.1075 59.754 19.1938 57.3376 19.4523 54.9269C19.7976 64.594 20.1428 64.594 20.4881 54.9269C20.8334 64.594 21.1786 64.594 21.5238 54.9269C21.8691 64.594 22.2143 64.594 22.5596 54.9269C22.9049 61.8317 23.2501 61.8317 23.5953 54.9269C23.9406 61.8317 24.2858 61.8317 24.6311 54.9269C24.8904 57.5204 25.1494 60.1098 25.4079 62.695Z" fill="#001947"/>
<path fill-rule="evenodd" clip-rule="evenodd" d="M188.538 62.6949C188.538 63.0404 188.538 63.3853 188.538 63.7307C187.157 63.3853 187.157 63.0404 188.538 62.6949Z" fill="#0F0E0C"/>
<path fill-rule="evenodd" clip-rule="evenodd" d="M198.377 62.1771C198.968 63.8032 199.055 65.5293 198.636 67.3559C198.419 67.9628 198.074 68.4807 197.601 68.9095C198.213 66.7681 198.472 64.5241 198.377 62.1771Z" fill="#5E5E5E"/>
<path fill-rule="evenodd" clip-rule="evenodd" d="M185.431 61.1414C185.263 63.7028 185.522 66.2921 186.207 68.9094C184.789 66.4703 184.531 63.8809 185.431 61.1414Z" fill="#616263"/>
<path fill-rule="evenodd" clip-rule="evenodd" d="M212.878 68.9095C210.288 68.9095 207.699 68.9095 205.11 68.9095C205.11 68.2191 205.11 67.5283 205.11 66.838C205.237 63.7002 205.065 60.5929 204.592 57.5163C204.592 56.9984 204.592 56.4805 204.592 55.9626C206.663 56.3081 207.527 55.4448 207.181 53.3733C207.699 53.3733 208.217 53.3733 208.735 53.3733C208.906 56.6379 209.165 56.465 209.512 52.8554C209.802 55.6571 209.802 58.4194 209.512 61.1414C209.868 60.6975 210.3 60.3526 210.806 60.1056C211.321 57.539 211.494 54.9497 211.324 52.3375C211.842 52.3375 212.36 52.3375 212.878 52.3375C213.161 55.2205 212.815 57.9823 211.842 60.6235C213.186 62.2382 213.186 63.8783 211.842 65.5433C212.62 66.5381 212.965 67.6603 212.878 68.9095Z" fill="#0D4EA1"/>
<path fill-rule="evenodd" clip-rule="evenodd" d="M206.663 64.2486C207.872 64.2486 209.08 64.2486 210.288 64.2486C210.436 65.1746 210.264 66.0378 209.771 66.838C208.782 66.3988 207.746 66.2258 206.663 66.3201C206.663 65.6298 206.663 64.9389 206.663 64.2486Z" fill="#585971"/>
<path fill-rule="evenodd" clip-rule="evenodd" d="M40.9441 66.32C41.87 66.1724 42.7332 66.3449 43.5334 66.8379C43.1019 67.0103 42.6703 67.1833 42.2387 67.3558C41.5264 67.2605 41.0948 66.9151 40.9441 66.32Z" fill="#E56D27"/>
<path fill-rule="evenodd" clip-rule="evenodd" d="M190.609 61.6592C188.812 63.2222 188.639 64.9487 190.091 66.8379C190.1 66.375 190.273 65.8571 190.609 65.2843C191.988 66.1492 192.852 65.8038 193.199 64.2486C194.53 66.3294 195.048 65.984 194.752 63.2128C195.174 62.7317 195.606 62.2139 196.047 61.6592C196.366 62.1507 196.281 62.5821 195.788 62.9539C196.269 63.1548 196.614 63.5003 196.824 63.9896C196.366 64.5583 195.848 64.8172 195.27 64.7665C195.697 65.2253 196.215 65.3977 196.824 65.2843C196.896 66.1254 196.551 66.7292 195.788 67.0969C196.07 67.4682 196.415 67.7271 196.824 67.8737C196.478 68.564 195.96 69.0819 195.27 69.4273C194.644 69.651 194.126 69.9965 193.717 70.4631C190.732 70.955 188.488 69.9193 186.984 67.3558C187.628 66.2357 188.146 65.0269 188.538 63.7307C188.538 63.3853 188.538 63.0404 188.538 62.695C189.045 62.0399 189.563 61.349 190.091 60.6235C190.505 60.8601 190.677 61.2056 190.609 61.6592Z" fill="#93928D"/>
<path fill-rule="evenodd" clip-rule="evenodd" d="M190.609 61.6592C192.334 61.4095 193.715 61.9274 194.752 63.2128C195.048 65.9839 194.53 66.3293 193.199 64.2485C192.834 63.2936 192.144 63.0346 191.127 63.4717C190.694 63.9953 190.521 64.5996 190.609 65.2843C190.273 65.857 190.1 66.3749 190.091 66.8379C188.639 64.9487 188.812 63.2221 190.609 61.6592Z" fill="#181816"/>
<path fill-rule="evenodd" clip-rule="evenodd" d="M193.199 64.2486C192.852 65.8038 191.988 66.1492 190.609 65.2843C190.521 64.5997 190.694 63.9954 191.127 63.4718C192.144 63.0347 192.834 63.2936 193.199 64.2486Z" fill="#E6E5E3"/>
<path fill-rule="evenodd" clip-rule="evenodd" d="M123.804 67.3558C123.804 67.8737 123.804 68.3916 123.804 68.9095C115 68.9095 106.196 68.9095 97.3922 68.9095C97.3922 68.3916 97.3922 67.8737 97.3922 67.3558C106.196 67.3558 115 67.3558 123.804 67.3558Z" fill="#D3D4D3"/>
<path fill-rule="evenodd" clip-rule="evenodd" d="M124.839 51.8196C125.012 51.8196 125.185 51.8196 125.357 51.8196C125.357 57.3438 125.357 62.8674 125.357 68.3916C142.793 68.3916 160.227 68.3916 177.662 68.3916C160.143 68.9084 142.536 69.0814 124.839 68.9094C124.839 63.2128 124.839 57.5162 124.839 51.8196Z" fill="#1D4179"/>
<path fill-rule="evenodd" clip-rule="evenodd" d="M238.771 68.9094C227.551 69.5997 216.33 69.5997 205.11 68.9094C207.699 68.9094 210.288 68.9094 212.878 68.9094C213.223 68.9094 213.568 68.9094 213.914 68.9094C222.19 68.2351 230.476 68.2351 238.771 68.9094Z" fill="#CCCED7"/>
<path fill-rule="evenodd" clip-rule="evenodd" d="M195.27 69.4273C195.487 69.8012 195.832 70.0601 196.306 70.2041C193.355 72.5682 190.42 72.5682 187.502 70.2041C188.875 70.6485 190.343 70.9074 191.904 70.9809C192.974 71.0462 193.579 70.8732 193.717 70.4631C194.126 69.9964 194.644 69.651 195.27 69.4273Z" fill="#464645"/>
<path fill-rule="evenodd" clip-rule="evenodd" d="M68.9092 55.9626C74.6519 58.2988 76.6369 62.4418 74.8647 68.3916C72.975 70.8473 70.4721 72.142 67.3556 72.2756C68.2189 72.4481 69.0816 72.6211 69.9449 72.7935C69.4271 72.966 68.9092 73.1389 68.3913 73.3114C68.1686 73.7878 67.9957 74.2192 67.8734 74.6061C66.1598 73.1249 64.5197 71.2259 62.9537 68.9095C61.6331 70.1208 61.3741 69.7753 62.1768 67.8737C61.5461 68.0762 61.1142 67.7308 60.8822 66.838C60.7097 67.1834 60.5367 67.5283 60.3643 67.8737C60.0189 66.1476 60.0189 64.4211 60.3643 62.695C60.5367 63.5583 60.7097 64.4211 60.8822 65.2844C61.4958 60.7877 63.9992 58.0253 68.3913 56.9984C68.8046 56.7617 68.977 56.4163 68.9092 55.9626Z" fill="#1F1F20"/>
<path fill-rule="evenodd" clip-rule="evenodd" d="M71.4985 63.2128C72.1749 63.4091 72.8652 63.5816 73.57 63.7307C71.5814 64.435 71.5814 65.2118 73.57 66.0611C72.2391 66.7597 72.2391 67.3641 73.57 67.8737C71.3799 70.5682 68.7906 71.086 65.8019 69.4273C66.0288 69.461 66.2017 69.375 66.3198 69.1684C64.9537 68.0845 65.1266 67.3076 66.8377 66.8379C66.9029 66.3517 67.0759 65.8338 67.3556 65.2843C69.0687 66.2082 69.932 65.6903 69.9449 63.7307C71.1412 65.9503 71.6591 65.7773 71.4985 63.2128Z" fill="#85837D"/>
<path fill-rule="evenodd" clip-rule="evenodd" d="M73.5701 67.8737C72.2391 67.3641 72.2391 66.7597 73.5701 66.0611C71.5814 65.2118 71.5814 64.435 73.5701 63.7307C72.8652 63.5815 72.1749 63.4091 71.4986 63.2128C71.264 62.7167 70.9191 62.2848 70.4628 61.9181C69.1112 61.842 67.9025 61.4101 66.8377 60.6234C66.6886 61.3283 66.5161 62.0186 66.3198 62.6949C64.2406 62.5789 63.8957 63.1833 65.2841 64.5075C63.8957 65.8317 64.2406 66.4361 66.3198 66.3201C66.3198 66.6655 66.4923 66.8379 66.8377 66.8379C65.1267 67.3076 64.9537 68.0844 66.3198 69.1684C66.2018 69.375 66.0288 69.4609 65.802 69.4273C63.1458 67.3807 62.5414 64.7913 63.9894 61.6592C67.2691 58.2065 70.5493 58.2065 73.829 61.6592C74.9362 63.8053 74.8497 65.8768 73.5701 67.8737Z" fill="#DFDEDB"/>
<path fill-rule="evenodd" clip-rule="evenodd" d="M69.9449 63.7308C69.932 65.6904 69.0687 66.2083 67.3556 65.2844C67.4369 63.3305 68.3002 62.8126 69.9449 63.7308Z" fill="#E4E4E2"/>
<path fill-rule="evenodd" clip-rule="evenodd" d="M66.3198 62.6949C65.6295 63.9031 65.6295 65.1118 66.3198 66.32C64.2406 66.436 63.8957 65.8317 65.2841 64.5075C63.8957 63.1833 64.2406 62.5789 66.3198 62.6949Z" fill="#706F6C"/>
<path fill-rule="evenodd" clip-rule="evenodd" d="M71.4985 63.2128C71.6591 65.7773 71.1412 65.9503 69.9449 63.7307C68.3002 62.8125 67.4369 63.3304 67.3556 65.2843C67.0759 65.8338 66.9029 66.3517 66.8377 66.8379C66.4923 66.8379 66.3198 66.6655 66.3198 66.3201C65.6295 65.1119 65.6295 63.9032 66.3198 62.695C66.5161 62.0186 66.6885 61.3283 66.8377 60.6235C67.9024 61.4101 69.1112 61.842 70.4628 61.9182C70.919 62.2848 71.264 62.7167 71.4985 63.2128Z" fill="#1D1C1B"/>
<path fill-rule="evenodd" clip-rule="evenodd" d="M70.9807 60.6235C71.932 60.6955 72.1045 61.0409 71.4986 61.6592C71.0853 61.4226 70.9129 61.0771 70.9807 60.6235Z" fill="#0D0C09"/>
<path fill-rule="evenodd" clip-rule="evenodd" d="M183.877 73.0524C184.567 73.5703 185.258 74.0882 185.948 74.606C185.771 75.04 185.426 75.213 184.913 75.1239C148.749 74.6066 112.498 74.4336 76.1594 74.606C111.756 74.2601 147.403 73.9147 183.1 73.5703C183.673 74.198 183.932 74.0255 183.877 73.0524Z" fill="#D2D1D5"/>
<path fill-rule="evenodd" clip-rule="evenodd" d="M60.1053 72.5345C60.7957 73.0524 61.4865 73.5703 62.1768 74.0882C47.5915 74.519 32.9186 74.778 18.1576 74.865C16.3304 74.9111 14.6041 75.2565 12.9789 75.9007C14.7788 76.5501 16.6777 76.8956 18.6755 76.9365C90.5739 77.3679 162.386 77.2814 234.111 76.6775C235.645 76.8759 236.162 76.358 235.664 75.1239C223.585 74.606 211.502 74.4336 199.413 74.606C211.754 74.0038 224.183 73.9173 236.7 74.3471C237.908 74.5196 239.117 74.6925 240.325 74.865C241.25 74.9665 241.94 75.3979 242.397 76.1597C240.363 76.7578 238.291 77.1892 236.182 77.4543C160.055 77.7998 83.9275 77.7998 7.80018 77.4543C5.74982 77.5626 4.88673 76.6128 5.21082 74.606C23.6664 74.0032 41.9645 73.3124 60.1053 72.5345Z" fill="#DCDDDC"/>
<path fill-rule="evenodd" clip-rule="evenodd" d="M62.1768 74.0882C64.6378 75.5175 64.1199 76.0354 60.6232 75.6418C53.9794 75.2964 47.2471 75.1239 40.4262 75.1239C33.142 75.0509 25.8918 75.3099 18.6755 75.9008C32.6317 76.6594 46.6142 76.9184 60.6232 76.6776C66.1474 76.6776 71.671 76.6776 77.1952 76.6776C112.756 76.6776 148.316 76.6776 183.877 76.6776C189.228 76.6776 194.58 76.6776 199.931 76.6776C200.276 76.6776 200.621 76.6776 200.967 76.6776C212.015 76.6776 223.063 76.6776 234.111 76.6776C162.386 77.2814 90.5739 77.3679 18.6755 76.9365C16.6777 76.8956 14.7788 76.5502 12.9789 75.9008C14.6041 75.2565 16.3304 74.9111 18.1577 74.865C32.9186 74.778 47.5915 74.5191 62.1768 74.0882Z" fill="#B2B2B2"/>
<path fill-rule="evenodd" clip-rule="evenodd" d="M198.377 74.0882C198.554 74.5222 198.899 74.6951 199.413 74.6061C211.502 74.4336 223.585 74.6061 235.664 75.1239C236.162 76.358 235.645 76.8759 234.111 76.6776C223.063 76.6776 212.015 76.6776 200.967 76.6776C211.931 76.3321 222.978 75.9872 234.111 75.6418C221.859 75.1239 209.603 74.9515 197.342 75.1239C197.514 74.6061 197.86 74.2606 198.377 74.0882Z" fill="#949492"/>
<path fill-rule="evenodd" clip-rule="evenodd" d="M60.6232 75.6419C60.6232 75.9873 60.6232 76.3322 60.6232 76.6776C46.6143 76.9184 32.6317 76.6595 18.6755 75.9008C25.8918 75.3099 33.142 75.051 40.4262 75.124C47.2471 75.124 53.9794 75.2964 60.6232 75.6419Z" fill="#7F8080"/>
<path fill-rule="evenodd" clip-rule="evenodd" d="M197.342 75.124C209.603 74.9515 221.859 75.124 234.111 75.6419C222.978 75.9873 211.931 76.3322 200.967 76.6776C200.621 76.6776 200.276 76.6776 199.931 76.6776C199.988 76.3581 200.161 76.0991 200.449 75.9008C198.593 75.9262 197.557 75.6672 197.342 75.124Z" fill="#777778"/>
<path fill-rule="evenodd" clip-rule="evenodd" d="M185.948 74.606C186.452 74.8582 186.97 75.1172 187.502 75.3828C186.121 75.5553 184.74 75.7282 183.359 75.9007C183.647 76.099 183.819 76.358 183.877 76.6775C148.316 76.6775 112.756 76.6775 77.1952 76.6775C76.6504 75.7681 75.7871 75.4227 74.6058 75.6418C111.287 75.1244 148.056 74.9514 184.913 75.1239C185.426 75.213 185.771 75.04 185.948 74.606Z" fill="#7D7E7C"/>
<path fill-rule="evenodd" clip-rule="evenodd" d="M75.1236 74.0882C75.3008 74.5222 75.6457 74.6951 76.1594 74.6061C112.498 74.4336 148.749 74.6066 184.913 75.1239C148.056 74.9515 111.287 75.1245 74.6058 75.6418C72.8103 75.2829 72.9828 74.7651 75.1236 74.0882Z" fill="#A7A9A9"/>
</svg>
