<svg width="127" height="58" viewBox="0 0 127 58" fill="none" xmlns="http://www.w3.org/2000/svg">
<path fill-rule="evenodd" clip-rule="evenodd" d="M29 0C12.9837 0 0 12.9837 0 29C0 45.0163 12.9837 58 29 58H98C114.016 58 127 45.0163 127 29C127 12.9837 114.016 0 98 0H29ZM29 15C21.268 15 15 21.268 15 29C15 36.732 21.268 43 29 43H98C105.732 43 112 36.732 112 29C112 21.268 105.732 15 98 15H29Z" fill="url(#paint0_linear_483_830)"/>
<defs>
<linearGradient id="paint0_linear_483_830" x1="0" y1="29" x2="127" y2="29" gradientUnits="userSpaceOnUse">
<stop offset="0.13" stop-color="#E84342"/>
<stop offset="1" stop-color="#FF9500"/>
</linearGradient>
</defs>
</svg>
