<svg width="1" height="1" viewBox="0 0 1 1" fill="none" xmlns="http://www.w3.org/2000/svg">
<g clip-path="url(#clip0_252_735)">
<path d="M0.916079 0.0671141C0.916079 0.030048 0.907475 0 0.896861 0H0.0192185C0.00860442 0 0 0.030048 0 0.0671141V0.72236C0 0.759426 0.00860439 0.789474 0.0192185 0.789474H0.0685458C0.0791599 0.789474 0.0877643 0.819522 0.0877643 0.856588V0.932886C0.0877643 0.969952 0.0963686 1 0.106983 1H0.980782C0.991396 1 1 0.969952 1 0.932886V0.272628C1 0.235562 0.991396 0.205514 0.980782 0.205514H0.935298C0.924684 0.205514 0.916079 0.175466 0.916079 0.1384V0.0671141Z" fill="black"/>
<path d="M0.96 0C0.982091 0 1 0.0170884 1 0.0381679V0.830153C1 0.851232 0.982091 0.868321 0.96 0.868321H0.828918C0.806827 0.868321 0.788918 0.885409 0.788918 0.906489V0.961832C0.788918 0.982912 0.771009 1 0.748918 1H0.04C0.0179086 1 0 0.982912 0 0.961832V0.553435C0 0.532356 0.0179086 0.515267 0.04 0.515267H0.0519375C0.0740289 0.515267 0.0919375 0.498179 0.0919375 0.477099V0.0381679C0.0919375 0.0170884 0.109846 0 0.131938 0H0.96Z" fill="#FFD9D9"/>
</g>
<defs>
<clipPath id="clip0_252_735">
<rect width="1" height="1" fill="white"/>
</clipPath>
</defs>
</svg>
