<svg width="736" height="472" viewBox="0 0 736 472" fill="none" xmlns="http://www.w3.org/2000/svg">
<path fill-rule="evenodd" clip-rule="evenodd" d="M736 109.566C736 131.899 736 154.233 736 176.566C726 176.566 716 176.566 706 176.566C706 187.233 706 197.899 706 208.566C700 208.566 694 208.566 688 208.566C688 189.233 688 169.899 688 150.566C680 150.566 672 150.566 664 150.566C664 166.233 664 181.899 664 197.566C657.667 197.566 651.333 197.566 645 197.566C645 195.899 645 194.233 645 192.566C642 192.566 639 192.566 636 192.566C636 184.233 636 175.899 636 167.566C629.333 167.566 622.667 167.566 616 167.566C616 173.566 616 179.566 616 185.566C609 185.566 602 185.566 595 185.566C595 195.899 595 206.233 595 216.566C591.063 216.859 587.23 216.526 583.5 215.566C583 192.235 582.833 168.902 583 145.566C588.667 145.566 594.333 145.566 600 145.566C600 136.899 600 128.233 600 119.566C604.667 119.566 609.333 119.566 614 119.566C614 101.566 614 83.5662 614 65.5662C621 65.5662 628 65.5662 635 65.5662C635 62.8992 635 60.2332 635 57.5662C636.667 57.5662 638.333 57.5662 640 57.5662C640 53.5662 640 49.5662 640 45.5662C642.667 45.5662 645.333 45.5662 648 45.5662C648.863 -3.57156 650.196 -3.57156 652 45.5662C654.667 45.5662 657.333 45.5662 660 45.5662C660 49.5662 660 53.5662 660 57.5662C661.333 57.5662 662.667 57.5662 664 57.5662C664 87.5662 664 117.566 664 147.566C670.333 147.566 676.667 147.566 683 147.566C683 145.566 683 143.566 683 141.566C686.667 141.566 690.333 141.566 694 141.566C693.669 133.538 694.002 125.538 695 117.566C698.683 115.725 702.016 113.392 705 110.566C715.312 109.567 725.645 109.234 736 109.566Z" fill="#EC6766" fill-opacity="0.48"/>
<path fill-rule="evenodd" clip-rule="evenodd" d="M247 82.5664C245.667 82.5664 244.333 82.5664 243 82.5664C241.641 73.6384 240.807 64.6384 240.5 55.5664C239.391 64.5464 238.557 73.5464 238 82.5664C235.333 82.5664 232.667 82.5664 230 82.5664C230 87.2334 230 91.8994 230 96.5664C227 96.5664 224 96.5664 221 96.5664C221 129.233 221 161.899 221 194.566C215.667 194.566 210.333 194.566 205 194.566C205 181.566 205 168.566 205 155.566C200 155.566 195 155.566 190 155.566C190 174.233 190 192.899 190 211.566C187.667 211.566 185.333 211.566 183 211.566C183 183.899 183 156.233 183 128.566C179.667 128.566 176.333 128.566 173 128.566C173 122.899 173 117.233 173 111.566C175.333 111.566 177.667 111.566 180 111.566C180 88.8994 180 66.2334 180 43.5664C202.333 43.5664 224.667 43.5664 247 43.5664C247 56.5664 247 69.5664 247 82.5664Z" fill="#EC6766" fill-opacity="0.47"/>
<path fill-rule="evenodd" clip-rule="evenodd" d="M435 28.5664C435.667 34.2334 436.333 39.8994 437 45.5664C436.835 48.9164 437.002 52.2494 437.5 55.5664C439.932 58.7544 442.599 61.7544 445.5 64.5664C445.999 68.2184 446.165 71.8844 446 75.5664C446 78.5664 446 81.5664 446 84.5664C447.667 84.5664 449.333 84.5664 451 84.5664C451 95.5664 451 106.566 451 117.566C453.333 117.566 455.667 117.566 458 117.566C458 143.233 458 168.899 458 194.566C463.667 194.566 469.333 194.566 475 194.566C475 197.566 475 200.566 475 203.566C476 203.566 477 203.566 478 203.566C478 219.566 478 235.566 478 251.566C474 251.566 470 251.566 466 251.566C466 249.566 466 247.566 466 245.566C461.333 245.566 456.667 245.566 452 245.566C452 248.233 452 250.899 452 253.566C450 253.566 448 253.566 446 253.566C445.014 258.036 444.681 262.703 445 267.566C442.333 267.566 439.667 267.566 437 267.566C437 251.233 437 234.899 437 218.566C424.667 218.566 412.333 218.566 400 218.566C400 228.233 400 237.899 400 247.566C392.667 247.566 385.333 247.566 378 247.566C378 238.899 378 230.233 378 221.566C374 221.566 370 221.566 366 221.566C366 211.566 366 201.566 366 191.566C364.667 191.566 363.333 191.566 362 191.566C362 192.899 362 194.233 362 195.566C360.667 195.566 359.333 195.566 358 195.566C358 192.233 358 188.899 358 185.566C356 185.566 354 185.566 352 185.566C352 182.899 352 180.233 352 177.566C349.667 177.566 347.333 177.566 345 177.566C345 174.566 345 171.566 345 168.566C344 168.566 343 168.566 342 168.566C340.173 160.387 339.506 152.054 340 143.566C343 143.566 346 143.566 349 143.566C349 148.899 349 154.233 349 159.566C356.667 159.566 364.333 159.566 372 159.566C372.992 152.418 373.325 145.085 373 137.566C382 137.566 391 137.566 400 137.566C399.67 157.406 400.003 177.073 401 196.566C405.333 196.566 409.667 196.566 414 196.566C414 175.233 414 153.899 414 132.566C414 127.899 414 123.233 414 118.566C416.333 118.566 418.667 118.566 421 118.566C421 107.233 421 95.8994 421 84.5664C422.667 84.5664 424.333 84.5664 426 84.5664C425.834 77.5584 426 70.5584 426.5 63.5664C429.206 61.1954 431.539 58.5294 433.5 55.5664C434.846 46.6254 435.346 37.6254 435 28.5664Z" fill="#FC7271"/>
<path fill-rule="evenodd" clip-rule="evenodd" d="M80 137.566C79.1981 136.114 78.6981 134.448 78.5 132.566C77.7782 140.228 77.1115 147.895 76.5 155.566C73.6667 158.399 70.8333 161.233 68 164.066C65.6902 164.563 63.3568 164.729 61 164.566C60.0025 187.393 59.6692 210.393 60 233.566C55.3333 233.566 50.6667 233.566 46 233.566C46.3298 216.724 45.9965 200.058 45 183.566C38.3333 183.566 31.6667 183.566 25 183.566C25 172.233 25 160.899 25 149.566C16.6667 149.566 8.33333 149.566 0 149.566C0 144.566 0 139.566 0 134.566C3.66667 134.566 7.33333 134.566 11 134.566C11 136.566 11 138.566 11 140.566C16.6667 140.566 22.3333 140.566 28 140.566C28 125.566 28 110.566 28 95.5664C30.6667 95.5664 33.3333 95.5664 36 95.5664C36 90.2334 36 84.8994 36 79.5664C38.6667 79.5664 41.3333 79.5664 44 79.5664C44 74.8994 44 70.2334 44 65.5664C46.3333 65.5664 48.6667 65.5664 51 65.5664C52.5829 57.0854 53.4162 48.4184 53.5 39.5664C53.8322 48.3044 54.6656 56.9704 56 65.5664C58.6667 65.5664 61.3333 65.5664 64 65.5664C64 69.8994 64 74.2334 64 78.5664C66.6667 78.5664 69.3333 78.5664 72 78.5664C72 84.2334 72 89.8994 72 95.5664C74.6667 95.5664 77.3333 95.5664 80 95.5664C80 109.566 80 123.566 80 137.566Z" fill="#EC6766" fill-opacity="0.58"/>
<path fill-rule="evenodd" clip-rule="evenodd" d="M446 75.5664C458.333 75.5664 470.667 75.5664 483 75.5664C483 83.2334 483 90.8994 483 98.5664C481.018 112.193 480.351 126.193 481 140.566C480 140.566 479 140.566 478 140.566C478 161.566 478 182.566 478 203.566C477 203.566 476 203.566 475 203.566C475 200.566 475 197.566 475 194.566C469.333 194.566 463.667 194.566 458 194.566C458 168.899 458 143.233 458 117.566C455.667 117.566 453.333 117.566 451 117.566C451 106.566 451 95.5664 451 84.5664C449.333 84.5664 447.667 84.5664 446 84.5664C446 81.5664 446 78.5664 446 75.5664Z" fill="#EC6766" fill-opacity="0.42"/>
<path fill-rule="evenodd" clip-rule="evenodd" d="M247 82.5664C248 82.5664 249 82.5664 250 82.5664C250 87.2334 250 91.8994 250 96.5664C252.787 97.5434 255.787 97.8764 259 97.5664C259 116.233 259 134.899 259 153.566C272.667 153.566 286.333 153.566 300 153.566C300 165.233 300 176.899 300 188.566C303.333 188.566 306.667 188.566 310 188.566C310 173.566 310 158.566 310 143.566C319.333 143.566 328.667 143.566 338 143.566C338.494 152.054 337.827 160.387 336 168.566C335 168.566 334 168.566 333 168.566C333 171.566 333 174.566 333 177.566C331 177.566 329 177.566 327 177.566C327 180.233 327 182.899 327 185.566C324.667 185.566 322.333 185.566 320 185.566C320 188.899 320 192.233 320 195.566C318.667 195.566 317.333 195.566 316 195.566C316 194.233 316 192.899 316 191.566C314.667 191.566 313.333 191.566 312 191.566C312 213.899 312 236.233 312 258.566C309.333 258.566 306.667 258.566 304 258.566C302.05 263.801 301.383 269.468 302 275.566C300.667 275.566 299.333 275.566 298 275.566C298.331 252.393 297.998 229.393 297 206.566C296.012 201.426 295.679 196.092 296 190.566C290.656 190.4 285.323 190.567 280 191.066C270.904 192.585 261.904 194.418 253 196.566C253 198.233 253 199.899 253 201.566C250.667 201.566 248.333 201.566 246 201.566C245.099 214.54 244.765 227.54 245 240.566C243 240.566 241 240.566 239 240.566C236.805 250.078 235.805 259.745 236 269.566C234.333 269.566 232.667 269.566 231 269.566C231 272.899 231 276.233 231 279.566C227.667 279.566 224.333 279.566 221 279.566C221.332 270.541 220.998 261.541 220 252.566C218.479 246.296 217.479 239.963 217 233.566C215.333 233.566 213.667 233.566 212 233.566C212 231.899 212 230.233 212 228.566C210.667 228.566 209.333 228.566 208 228.566C206.704 211.339 206.037 211.339 206 228.566C204.667 228.566 203.333 228.566 202 228.566C202 230.566 202 232.566 202 234.566C200.333 234.566 198.667 234.566 197 234.566C196.521 240.963 195.521 247.296 194 253.566C193.001 263.878 192.668 274.211 193 284.566C191.333 284.566 189.667 284.566 188 284.566C188 281.566 188 278.566 188 275.566C184.667 275.566 181.333 275.566 178 275.566C178.792 267.563 177.625 259.897 174.5 252.566C173.167 249.899 171.167 247.899 168.5 246.566C168 239.574 167.834 232.574 168 225.566C166.333 225.566 164.667 225.566 163 225.566C163.883 217.644 162.55 210.311 159 203.566C158.168 193.249 157.668 182.915 157.5 172.566C157.446 184.662 156.612 196.662 155 208.566C154 208.566 153 208.566 152 208.566C152 214.233 152 219.899 152 225.566C150.667 225.566 149.333 225.566 148 225.566C148 228.899 148 232.233 148 235.566C144.321 235.342 140.654 235.008 137 234.566C137 246.899 137 259.233 137 271.566C133 271.566 129 271.566 125 271.566C125 262.899 125 254.233 125 245.566C115.667 245.566 106.333 245.566 97 245.566C97 224.566 97 203.566 97 182.566C105.34 182.4 113.673 182.566 122 183.066C123.243 184.22 124.243 185.554 125 187.066C129.655 187.565 134.321 187.732 139 187.566C139 197.233 139 206.899 139 216.566C142 216.566 145 216.566 148 216.566C148 194.899 148 173.233 148 151.566C148 144.233 148 136.899 148 129.566C159.333 129.566 170.667 129.566 182 129.566C181.669 157.071 182.002 184.404 183 211.566C185.333 211.566 187.667 211.566 190 211.566C190 192.899 190 174.233 190 155.566C195 155.566 200 155.566 205 155.566C205 168.566 205 181.566 205 194.566C210.333 194.566 215.667 194.566 221 194.566C221 161.899 221 129.233 221 96.5664C224 96.5664 227 96.5664 230 96.5664C230 91.8994 230 87.2334 230 82.5664C232.667 82.5664 235.333 82.5664 238 82.5664C238.557 73.5464 239.391 64.5464 240.5 55.5664C240.807 64.6384 241.641 73.6384 243 82.5664C244.333 82.5664 245.667 82.5664 247 82.5664Z" fill="#FC7271"/>
<path fill-rule="evenodd" clip-rule="evenodd" d="M299 55.5664C311 55.5664 323 55.5664 335 55.5664C335 76.8994 335 98.2334 335 119.566C339.863 119.885 344.53 119.552 349 118.566C349 108.899 349 99.2334 349 89.5664C364 89.5664 379 89.5664 394 89.5664C394 103.899 394 118.233 394 132.566C400.667 132.566 407.333 132.566 414 132.566C414 153.899 414 175.233 414 196.566C409.667 196.566 405.333 196.566 401 196.566C401 176.566 401 156.566 401 136.566C391.333 136.566 381.667 136.566 372 136.566C372 144.233 372 151.899 372 159.566C364.333 159.566 356.667 159.566 349 159.566C349 154.233 349 148.899 349 143.566C346 143.566 343 143.566 340 143.566C340.449 137.714 339.949 132.047 338.5 126.566C338.001 132.223 337.834 137.89 338 143.566C328.667 143.566 319.333 143.566 310 143.566C309.004 158.056 308.671 172.723 309 187.566C306.333 187.566 303.667 187.566 301 187.566C301 175.899 301 164.233 301 152.566C287.333 152.566 273.667 152.566 260 152.566C260 141.566 260 130.566 260 119.566C264.333 119.566 268.667 119.566 273 119.566C273 126.566 273 133.566 273 140.566C278 140.566 283 140.566 288 140.566C288 133.233 288 125.899 288 118.566C291.667 118.566 295.333 118.566 299 118.566C299 97.5664 299 76.5664 299 55.5664Z" fill="#EC6766" fill-opacity="0.58"/>
<path fill-rule="evenodd" clip-rule="evenodd" d="M489 82.5664C489 88.2334 489 93.8994 489 99.5664C486.667 99.5664 484.333 99.5664 482 99.5664C482.329 113.41 481.996 127.076 481 140.566C480.351 126.193 481.018 112.193 483 98.5664C484.667 98.5664 486.333 98.5664 488 98.5664C487.679 93.0404 488.012 87.7064 489 82.5664Z" fill="#FC7271"/>
<path fill-rule="evenodd" clip-rule="evenodd" d="M540 98.5664C542.333 98.5664 544.667 98.5664 547 98.5664C547 111.233 547 123.899 547 136.566C546.005 124.411 545.671 112.077 546 99.5664C543.765 99.8614 541.765 99.5274 540 98.5664Z" fill="#FC7271"/>
<path fill-rule="evenodd" clip-rule="evenodd" d="M148 151.566C148 173.233 148 194.899 148 216.566C145 216.566 142 216.566 139 216.566C139 206.899 139 197.233 139 187.566C134.321 187.732 129.655 187.565 125 187.066C124.243 185.554 123.243 184.22 122 183.066C113.673 182.566 105.34 182.4 96.9999 182.566C96.9999 176.566 96.9999 170.566 96.9999 164.566C94.3126 164.73 91.6459 164.563 88.9999 164.066C86.1666 161.233 83.3332 158.399 80.4999 155.566C80.0005 149.909 79.8338 144.242 79.9999 138.566C81.8791 137.725 83.8791 137.391 85.9999 137.566C85.9999 139.233 85.9999 140.899 85.9999 142.566C91.3332 142.566 96.6666 142.566 102 142.566C102 134.899 102 127.233 102 119.566C113 119.566 124 119.566 135 119.566C135 130.233 135 140.899 135 151.566C139.333 151.566 143.667 151.566 148 151.566Z" fill="#EC6766" fill-opacity="0.47"/>
<path fill-rule="evenodd" clip-rule="evenodd" d="M148 129.566C156.15 128.573 164.483 128.24 173 128.566C176.333 128.566 179.667 128.566 183 128.566C183 156.233 183 183.899 183 211.566C182.002 184.404 181.669 157.071 182 129.566C170.667 129.566 159.333 129.566 148 129.566Z" fill="#FC7271"/>
<path fill-rule="evenodd" clip-rule="evenodd" d="M547 136.566C559 136.566 571 136.566 583 136.566C583 139.566 583 142.566 583 145.566C582.833 168.902 583 192.235 583.5 215.566C587.23 216.526 591.063 216.859 595 216.566C595 206.233 595 195.899 595 185.566C602 185.566 609 185.566 616 185.566C616 179.566 616 173.566 616 167.566C622.667 167.566 629.333 167.566 636 167.566C636 175.899 636 184.233 636 192.566C639 192.566 642 192.566 645 192.566C645 194.233 645 195.899 645 197.566C651.333 197.566 657.667 197.566 664 197.566C664 181.899 664 166.233 664 150.566C672 150.566 680 150.566 688 150.566C688 169.899 688 189.233 688 208.566C694 208.566 700 208.566 706 208.566C706 197.899 706 187.233 706 176.566C716 176.566 726 176.566 736 176.566C736 204.566 736 232.566 736 260.566C728.667 260.566 721.333 260.566 714 260.566C714 262.566 714 264.566 714 266.566C703.333 266.566 692.667 266.566 682 266.566C682 249.566 682 232.566 682 215.566C673.667 215.566 665.333 215.566 657 215.566C657 231.899 657 248.233 657 264.566C654 264.566 651 264.566 648 264.566C648 258.233 648 251.899 648 245.566C639.667 245.566 631.333 245.566 623 245.566C623 252.899 623 260.233 623 267.566C620.667 267.566 618.333 267.566 616 267.566C616 271.233 616 274.899 616 278.566C602.667 278.566 589.333 278.566 576 278.566C576 283.899 576 289.233 576 294.566C570 294.566 564 294.566 558 294.566C558 280.233 558 265.899 558 251.566C555.667 251.566 553.333 251.566 551 251.566C551.332 214.396 550.998 177.396 550 140.566C549 140.566 548 140.566 547 140.566C547 139.233 547 137.899 547 136.566Z" fill="#FC7271"/>
<path fill-rule="evenodd" clip-rule="evenodd" d="M340 143.566C339.333 143.566 338.667 143.566 338 143.566C337.834 137.89 338.001 132.223 338.5 126.566C339.949 132.047 340.449 137.714 340 143.566Z" fill="#861817"/>
<path fill-rule="evenodd" clip-rule="evenodd" d="M401 196.566C400.003 177.073 399.67 157.406 400 137.566C391 137.566 382 137.566 373 137.566C373.325 145.085 372.992 152.418 372 159.566C372 151.899 372 144.233 372 136.566C381.667 136.566 391.333 136.566 401 136.566C401 156.566 401 176.566 401 196.566Z" fill="#964948"/>
<path fill-rule="evenodd" clip-rule="evenodd" d="M550 140.566C550.998 177.396 551.332 214.396 551 251.566C553.333 251.566 555.667 251.566 558 251.566C558 265.899 558 280.233 558 294.566C557.004 280.743 556.671 266.743 557 252.566C554.667 252.566 552.333 252.566 550 252.566C550 215.233 550 177.899 550 140.566Z" fill="#FC7271"/>
<path fill-rule="evenodd" clip-rule="evenodd" d="M0 150.566C8 150.566 16 150.566 24 150.566C23.6721 161.745 24.0054 172.745 25 183.566C31.6667 183.566 38.3333 183.566 45 183.566C45 200.566 45 217.566 45 234.566C50.3333 234.566 55.6667 234.566 61 234.566C61 247.566 61 260.566 61 273.566C56.3333 273.566 51.6667 273.566 47 273.566C47 274.566 47 275.566 47 276.566C45 276.566 43 276.566 41 276.566C41 273.899 41 271.233 41 268.566C37.6667 268.566 34.3333 268.566 31 268.566C31 260.566 31 252.566 31 244.566C27 244.566 23 244.566 19 244.566C19 241.566 19 238.566 19 235.566C12.6667 235.566 6.33333 235.566 0 235.566C0 207.233 0 178.899 0 150.566Z" fill="#FC7271"/>
<path fill-rule="evenodd" clip-rule="evenodd" d="M0 150.566C0 150.233 0 149.899 0 149.566C8.33333 149.566 16.6667 149.566 25 149.566C25 160.899 25 172.233 25 183.566C24.0054 172.745 23.6721 161.745 24 150.566C16 150.566 8 150.566 0 150.566Z" fill="#FC7271"/>
<path fill-rule="evenodd" clip-rule="evenodd" d="M80 137.566C80 137.899 80 138.233 80 138.566C79.8339 144.242 80.0006 149.909 80.5 155.566C83.3333 158.399 86.1667 161.233 89 164.066C91.646 164.563 94.3127 164.73 97 164.566C97 170.566 97 176.566 97 182.566C97 203.566 97 224.566 97 245.566C106.333 245.566 115.667 245.566 125 245.566C125 254.233 125 262.899 125 271.566C129 271.566 133 271.566 137 271.566C137 282.566 137 293.566 137 304.566C132 304.566 127 304.566 122 304.566C122 298.233 122 291.899 122 285.566C105 285.566 88 285.566 71 285.566C70.0032 303.725 69.6698 322.058 70 340.566C65.6667 340.566 61.3333 340.566 57 340.566C57 324.899 57 309.233 57 293.566C44 293.566 31 293.566 18 293.566C18 287.233 18 280.899 18 274.566C12 274.566 6 274.566 0 274.566C0 261.566 0 248.566 0 235.566C6.33333 235.566 12.6667 235.566 19 235.566C19 238.566 19 241.566 19 244.566C23 244.566 27 244.566 31 244.566C31 252.566 31 260.566 31 268.566C34.3333 268.566 37.6667 268.566 41 268.566C41 271.233 41 273.899 41 276.566C43 276.566 45 276.566 47 276.566C47 275.566 47 274.566 47 273.566C51.6667 273.566 56.3333 273.566 61 273.566C61 260.566 61 247.566 61 234.566C61 211.233 61 187.899 61 164.566C63.3568 164.729 65.6902 164.563 68 164.066C70.8333 161.233 73.6667 158.399 76.5 155.566C77.1115 147.895 77.7782 140.228 78.5 132.566C78.6981 134.448 79.1981 136.114 80 137.566Z" fill="#FC7271"/>
<path fill-rule="evenodd" clip-rule="evenodd" d="M250 96.5664C253.333 96.5664 256.667 96.5664 260 96.5664C260 104.233 260 111.899 260 119.566C260 130.566 260 141.566 260 152.566C273.667 152.566 287.333 152.566 301 152.566C301 164.233 301 175.899 301 187.566C303.667 187.566 306.333 187.566 309 187.566C308.671 172.723 309.004 158.056 310 143.566C310 158.566 310 173.566 310 188.566C306.667 188.566 303.333 188.566 300 188.566C300 176.899 300 165.233 300 153.566C286.333 153.566 272.667 153.566 259 153.566C259 134.899 259 116.233 259 97.5664C255.787 97.8764 252.787 97.5434 250 96.5664Z" fill="#964948"/>
<path fill-rule="evenodd" clip-rule="evenodd" d="M338 143.566C338.667 143.566 339.333 143.566 340 143.566C339.506 152.054 340.173 160.387 342 168.566C343 168.566 344 168.566 345 168.566C345 171.566 345 174.566 345 177.566C347.333 177.566 349.667 177.566 352 177.566C352 180.233 352 182.899 352 185.566C354 185.566 356 185.566 358 185.566C358 188.899 358 192.233 358 195.566C359.333 195.566 360.667 195.566 362 195.566C362 194.233 362 192.899 362 191.566C363.333 191.566 364.667 191.566 366 191.566C366 201.566 366 211.566 366 221.566C366 253.233 366 284.899 366 316.566C372 316.566 378 316.566 384 316.566C384 306.233 384 295.899 384 285.566C399 285.566 414 285.566 429 285.566C429 300.899 429 316.233 429 331.566C434.667 331.566 440.333 331.566 446 331.566C446 305.566 446 279.566 446 253.566C448 253.566 450 253.566 452 253.566C463.667 253.566 475.333 253.566 487 253.566C487 272.566 487 291.566 487 310.566C491 310.566 495 310.566 499 310.566C498.587 272.869 499.253 235.202 501 197.566C502 197.566 503 197.566 504 197.566C503.991 195.758 504.491 194.091 505.5 192.566C505.905 146.041 506.905 146.041 508.5 192.566C508.654 195.591 510.154 197.257 513 197.566C513.52 208.91 514.186 220.243 515 231.566C520.333 231.566 525.667 231.566 531 231.566C531.814 220.243 532.48 208.91 533 197.566C534 197.566 535 197.566 536 197.566C535.731 195.637 536.231 193.971 537.5 192.566C537.833 184.233 538.167 175.899 538.5 167.566C538.918 176.252 539.585 184.919 540.5 193.566C541.124 195.82 542.457 197.487 544.5 198.566C544.673 204.414 545.173 210.081 546 215.566C545.339 256.246 546.006 296.58 548 336.566C550 336.566 552 336.566 554 336.566C554 329.899 554 323.233 554 316.566C565.667 316.566 577.333 316.566 589 316.566C589 326.233 589 335.899 589 345.566C592 345.566 595 345.566 598 345.566C598 342.566 598 339.566 598 336.566C611.667 336.566 625.333 336.566 639 336.566C639 325.899 639 315.233 639 304.566C650.333 304.566 661.667 304.566 673 304.566C673 323.566 673 342.566 673 361.566C679.333 361.566 685.667 361.566 692 361.566C692 346.566 692 331.566 692 316.566C695.333 316.566 698.667 316.566 702 316.566C702 302.566 702 288.566 702 274.566C713.333 274.566 724.667 274.566 736 274.566C736 340.233 736 405.899 736 471.566C490.667 471.566 245.333 471.566 0 471.566C0 405.899 0 340.233 0 274.566C6 274.566 12 274.566 18 274.566C18 280.899 18 287.233 18 293.566C30.489 294.561 43.1557 294.895 56 294.566C56 310.233 56 325.899 56 341.566C61 341.566 66 341.566 71 341.566C71 322.899 71 304.233 71 285.566C88 285.566 105 285.566 122 285.566C122 291.899 122 298.233 122 304.566C127 304.566 132 304.566 137 304.566C137 293.566 137 282.566 137 271.566C137 259.233 137 246.899 137 234.566C140.654 235.008 144.321 235.342 148 235.566C148 232.233 148 228.899 148 225.566C149.333 225.566 150.667 225.566 152 225.566C152 219.899 152 214.233 152 208.566C153 208.566 154 208.566 155 208.566C155 196.5 157.446 183.096 157.5 171C157.668 181.349 159.168 193.183 160 203.5C163.55 210.245 163.883 217.644 163 225.566C164.667 225.566 166.333 225.566 168 225.566C167.834 232.574 168 239.574 168.5 246.566C171.167 247.899 173.167 249.899 174.5 252.566C177.625 259.897 178.792 267.563 178 275.566C178 287.233 178 298.899 178 310.566C186.333 310.566 194.667 310.566 203 310.566C203 327.566 203 344.566 203 361.566C210 361.566 217 361.566 224 361.566C224 340.233 224 318.899 224 297.566C232.667 297.566 241.333 297.566 250 297.566C250 304.566 250 311.566 250 318.566C266.825 319.563 283.825 319.896 301 319.566C300.67 336.408 301.003 353.074 302 369.566C305.333 369.566 308.667 369.566 312 369.566C312 332.566 312 295.566 312 258.566C312 236.233 312 213.899 312 191.566C313.333 191.566 314.667 191.566 316 191.566C316 192.899 316 194.233 316 195.566C317.333 195.566 318.667 195.566 320 195.566C320 192.233 320 188.899 320 185.566C322.333 185.566 324.667 185.566 327 185.566C327 182.899 327 180.233 327 177.566C329 177.566 331 177.566 333 177.566C333 174.566 333 171.566 333 168.566C334 168.566 335 168.566 336 168.566C337.827 160.387 338.494 152.054 338 143.566Z" fill="#861817"/>
<path fill-rule="evenodd" clip-rule="evenodd" d="M61 164.566C61 187.899 61 211.233 61 234.566C55.6667 234.566 50.3333 234.566 45 234.566C45 217.566 45 200.566 45 183.566C45.9965 200.058 46.3298 216.724 46 233.566C50.6667 233.566 55.3333 233.566 60 233.566C59.6692 210.393 60.0025 187.393 61 164.566Z" fill="#FC7271"/>
<path fill-rule="evenodd" clip-rule="evenodd" d="M297 206.566C297 229.899 297 253.233 297 276.566C299 276.566 301 276.566 303 276.566C302.711 270.475 303.045 264.475 304 258.566C306.667 258.566 309.333 258.566 312 258.566C312 295.566 312 332.566 312 369.566C308.667 369.566 305.333 369.566 302 369.566C302 352.566 302 335.566 302 318.566C284.667 318.566 267.333 318.566 250 318.566C250 311.566 250 304.566 250 297.566C241.333 297.566 232.667 297.566 224 297.566C224 318.899 224 340.233 224 361.566C217 361.566 210 361.566 203 361.566C203 344.566 203 327.566 203 310.566C194.667 310.566 186.333 310.566 178 310.566C178 298.899 178 287.233 178 275.566C181.333 275.566 184.667 275.566 188 275.566C188 278.566 188 281.566 188 284.566C189.667 284.566 191.333 284.566 193 284.566C192.668 274.211 193.001 263.878 194 253.566C195.521 247.296 196.521 240.963 197 234.566C198.667 234.566 200.333 234.566 202 234.566C202 232.566 202 230.566 202 228.566C203.333 228.566 204.667 228.566 206 228.566C206.037 211.339 206.704 211.339 208 228.566C209.333 228.566 210.667 228.566 212 228.566C212 230.233 212 231.899 212 233.566C213.667 233.566 215.333 233.566 217 233.566C217.479 239.963 218.479 246.296 220 252.566C220.998 261.541 221.332 270.541 221 279.566C224.333 279.566 227.667 279.566 231 279.566C231 276.233 231 272.899 231 269.566C232.667 269.566 234.333 269.566 236 269.566C235.805 259.745 236.805 250.078 239 240.566C241 240.566 243 240.566 245 240.566C244.765 227.54 245.099 214.54 246 201.566C248.333 201.566 250.667 201.566 253 201.566C253 199.899 253 198.233 253 196.566C261.904 194.418 270.904 192.585 280 191.066C285.323 190.567 290.656 190.4 296 190.566C295.679 196.092 296.012 201.426 297 206.566Z" fill="#EB5757"/>
<path fill-rule="evenodd" clip-rule="evenodd" d="M297 206.566C297.998 229.393 298.331 252.393 298 275.566C299.333 275.566 300.667 275.566 302 275.566C301.383 269.468 302.05 263.801 304 258.566C303.045 264.475 302.711 270.475 303 276.566C301 276.566 299 276.566 297 276.566C297 253.233 297 229.899 297 206.566Z" fill="#FC7271"/>
<path fill-rule="evenodd" clip-rule="evenodd" d="M513.5 0.566466C514.167 8.56647 514.333 -5.43326 515 2.56674C514.834 11.906 515 21.2397 515.5 30.5667C517.237 35.4197 518.57 40.4197 519.5 45.5667C523.833 51.5667 528.167 57.5667 532.5 63.5667C533 69.8917 533.166 76.2247 533 82.5667C535.333 82.5667 537.667 82.5667 540 82.5667C540 87.8997 540 93.2337 540 98.5667C541.765 99.5277 543.765 99.8617 546 99.5667C545.671 112.078 546.005 124.412 547 136.567C547 137.9 547 139.234 547 140.567C548 140.567 549 140.567 550 140.567C550 177.9 550 215.234 550 252.567C552.333 252.567 554.667 252.567 557 252.567C556.671 266.744 557.004 280.744 558 294.567C564 294.567 570 294.567 576 294.567C576 289.234 576 283.9 576 278.567C589.333 278.567 602.667 278.567 616 278.567C616 274.9 616 271.234 616 267.567C618.333 267.567 620.667 267.567 623 267.567C623 260.234 623 252.9 623 245.567C631.333 245.567 639.667 245.567 648 245.567C648 251.9 648 258.234 648 264.567C651 264.567 654 264.567 657 264.567C657 248.234 657 231.9 657 215.567C665.333 215.567 673.667 215.567 682 215.567C682 232.567 682 249.567 682 266.567C692.667 266.567 703.333 266.567 714 266.567C714 264.567 714 262.567 714 260.567C721.333 260.567 728.667 260.567 736 260.567C736 265.234 736 269.9 736 274.567C724.667 274.567 713.333 274.567 702 274.567C702 288.567 702 302.567 702 316.567C698.667 316.567 695.333 316.567 692 316.567C692 331.567 692 346.567 692 361.567C685.667 361.567 679.333 361.567 673 361.567C673 342.567 673 323.567 673 304.567C661.667 304.567 650.333 304.567 639 304.567C639 315.234 639 325.9 639 336.567C625.333 336.567 611.667 336.567 598 336.567C598 339.567 598 342.567 598 345.567C595 345.567 592 345.567 589 345.567C589 335.9 589 326.234 589 316.567C577.333 316.567 565.667 316.567 554 316.567C554 323.234 554 329.9 554 336.567C552 336.567 550 336.567 548 336.567C547.339 296.136 546.672 255.803 546 215.567C545.173 210.082 544.673 204.415 544.5 198.567C542.457 197.488 541.124 195.821 540.5 193.567C539.585 184.92 538.918 176.253 538.5 167.567C538.167 175.9 537.833 184.234 537.5 192.567C536.231 193.972 535.731 195.638 536 197.567C535 197.567 534 197.567 533 197.567C532.48 208.911 531.814 220.244 531 231.567C525.667 231.567 520.333 231.567 515 231.567C514.186 220.244 513.52 208.911 513 197.567C510.154 197.258 508.654 195.592 508.5 192.567C506.905 146.042 505.905 146.042 505.5 192.567C504.491 194.092 503.991 195.759 504 197.567C503 197.567 502 197.567 501 197.567C499.253 235.203 498.587 272.87 499 310.567C495 310.567 491 310.567 487 310.567C487 291.567 487 272.567 487 253.567C475.333 253.567 463.667 253.567 452 253.567C452 250.9 452 248.234 452 245.567C456.667 245.567 461.333 245.567 466 245.567C466 247.567 466 249.567 466 251.567C470 251.567 474 251.567 478 251.567C478 235.567 478 219.567 478 203.567C478 182.567 478 161.567 478 140.567C479 140.567 480 140.567 481 140.567C481.996 127.077 482.329 113.411 482 99.5667C484.333 99.5667 486.667 99.5667 489 99.5667C489 93.8997 489 88.2337 489 82.5667C491 82.5667 493 82.5667 495 82.5667C494.834 76.2247 495 69.8917 495.5 63.5667C499.833 57.2337 504.167 50.8997 508.5 44.5667C508.56 39.6297 509.56 34.9627 511.5 30.5667C512.799 13.2596 513.799 17.9261 513.5 0.566466Z" fill="#EB5757"/>
<path fill-rule="evenodd" clip-rule="evenodd" d="M446 253.566C446 279.566 446 305.566 446 331.566C440.333 331.566 434.667 331.566 429 331.566C429 316.233 429 300.899 429 285.566C414 285.566 399 285.566 384 285.566C384 295.899 384 306.233 384 316.566C378 316.566 372 316.566 366 316.566C366 284.899 366 253.233 366 221.566C370 221.566 374 221.566 378 221.566C378 230.233 378 238.899 378 247.566C385.333 247.566 392.667 247.566 400 247.566C400 237.899 400 228.233 400 218.566C412.333 218.566 424.667 218.566 437 218.566C437 234.899 437 251.233 437 267.566C439.667 267.566 442.333 267.566 445 267.566C444.681 262.703 445.014 258.036 446 253.566Z" fill="#EB5757"/>
<path fill-rule="evenodd" clip-rule="evenodd" d="M546 215.566C546.672 255.802 547.339 296.135 548 336.566C546.006 296.58 545.339 256.246 546 215.566Z" fill="#814141"/>
<path fill-rule="evenodd" clip-rule="evenodd" d="M71 285.566C71 304.233 71 322.899 71 341.566C66 341.566 61 341.566 56 341.566C56 325.899 56 310.233 56 294.566C43.1557 294.895 30.489 294.561 18 293.566C31 293.566 44 293.566 57 293.566C57 309.233 57 324.899 57 340.566C61.3333 340.566 65.6667 340.566 70 340.566C69.6698 322.058 70.0032 303.725 71 285.566Z" fill="#814141"/>
<path fill-rule="evenodd" clip-rule="evenodd" d="M250 318.566C267.333 318.566 284.667 318.566 302 318.566C302 335.566 302 352.566 302 369.566C301.003 353.074 300.67 336.408 301 319.566C283.825 319.896 266.825 319.563 250 318.566Z" fill="#814141"/>
<rect x="152" y="168" width="11" height="35" fill="#FC7271"/>
</svg>
