<svg width="92" height="40" viewBox="0 0 92 40" fill="none" xmlns="http://www.w3.org/2000/svg">
<path opacity="0.979" fill-rule="evenodd" clip-rule="evenodd" d="M16.5668 0.421565C20.9739 0.369073 25.3757 0.424096 29.7722 0.586632C30.2204 0.858993 30.4405 1.26253 30.4325 1.79713C30.2744 2.70467 30.0726 3.60329 29.8272 4.49323C29.6552 4.84845 29.3801 5.08692 29.0019 5.20852C25.9573 5.24516 22.9128 5.28192 19.8681 5.31856C19.6344 5.44203 19.4327 5.6071 19.2629 5.81376C17.2876 8.4862 15.2701 11.1273 13.2104 13.737C13.1034 13.9452 13.03 14.1653 12.9903 14.3973C12.7701 21.1484 12.5134 27.8978 12.22 34.6455C12.1335 34.9848 11.9318 35.2231 11.6148 35.3608C9.78066 35.4342 7.94665 35.4342 6.11253 35.3608C5.83742 35.2324 5.63571 35.0307 5.50729 34.7556C5.45061 27.7857 5.48726 20.8162 5.61733 13.847C6.85633 12.1126 8.1586 10.4252 9.52392 8.78498C8.30199 8.51812 7.09149 8.57314 5.89244 8.95004C5.53381 9.08331 5.22205 9.28502 4.95706 9.55529C4.36535 11.6698 3.81513 13.7973 3.30639 15.9379C3.25137 16.1396 3.12294 16.268 2.92123 16.3231C2.30256 16.4437 1.67899 16.5353 1.05047 16.5982C0.832481 16.6051 0.649069 16.5317 0.500244 16.3781C0.849989 14.5744 1.23515 12.777 1.65572 10.9859C2.42581 7.72106 4.46164 5.83192 7.76321 5.31856C9.30615 5.15614 10.8468 5.10111 12.3851 5.15349C13.5039 3.72291 14.6226 2.29233 15.7415 0.861744C15.9896 0.641764 16.2647 0.495075 16.5668 0.421565Z" fill="white"/>
<path opacity="0.97" fill-rule="evenodd" clip-rule="evenodd" d="M41.2169 0.421932C53.1385 0.403555 65.06 0.421932 76.9815 0.476955C77.3197 0.558278 77.5581 0.75999 77.6968 1.0822C77.7702 2.18342 77.807 3.28387 77.8068 4.38355C77.7514 4.77091 77.5497 5.04602 77.2016 5.20889C64.7299 5.28229 52.2581 5.28229 39.7863 5.20889C39.5479 5.11722 39.3828 4.95215 39.2911 4.71368C39.2177 4.3469 39.2177 3.98001 39.2911 3.61323C39.7013 2.6828 40.1415 1.7658 40.6117 0.862112C40.7767 0.645434 40.9785 0.498744 41.2169 0.421932Z" fill="white"/>
<path opacity="0.969" fill-rule="evenodd" clip-rule="evenodd" d="M36.0449 11.7563C38.9794 11.7563 41.9139 11.7563 44.8484 11.7563C44.7601 12.8232 44.65 13.887 44.5183 14.9476C41.8036 14.9293 39.0891 14.9476 36.375 15.0027C36.2097 15.0668 36.063 15.1585 35.9348 15.2778C35.8078 15.6026 35.6978 15.9328 35.6047 16.2682C38.5383 16.3782 41.4728 16.4149 44.4083 16.3782C44.3127 17.4072 44.2027 18.4342 44.0781 19.4595C41.1436 19.4595 38.2091 19.4595 35.2745 19.4595C35.2937 19.8308 35.3487 20.1976 35.4396 20.5599C35.4946 20.7617 35.6231 20.8901 35.8248 20.9451C38.5389 21.0001 41.2534 21.0185 43.9681 21.0001C43.8291 22.0967 43.7191 23.1972 43.638 24.3015C40.5565 24.3198 37.4752 24.3015 34.3942 24.2464C32.6324 23.8403 31.697 22.7214 31.588 20.8901C31.3845 18.7406 31.6412 16.6497 32.3583 14.6175C33.0593 12.9586 34.2881 12.0048 36.0449 11.7563Z" fill="white"/>
<path opacity="0.968" fill-rule="evenodd" clip-rule="evenodd" d="M49.1401 11.7563C52.0379 11.7563 54.9358 11.7563 57.8336 11.7563C57.7821 12.8217 57.7087 13.8855 57.6135 14.9476C54.8622 14.9293 52.1111 14.9476 49.3602 15.0027C49.2027 15.0538 49.0744 15.1456 48.975 15.2778C48.8262 15.6321 48.7345 15.9989 48.6999 16.3782C51.5977 16.3782 54.4956 16.3782 57.3935 16.3782C57.3201 17.4053 57.2468 18.4324 57.1734 19.4595C54.2388 19.4595 51.3043 19.4595 48.3698 19.4595C48.3516 19.7916 48.37 20.1217 48.4248 20.4499C48.5165 20.6884 48.6815 20.8534 48.92 20.9451C51.5975 21.0001 54.2752 21.0185 56.9533 21.0001C56.8722 22.1044 56.7621 23.2049 56.6231 24.3015C53.5417 24.3198 50.4604 24.3015 47.3794 24.2464C45.9797 23.984 45.1177 23.1586 44.7933 21.7704C44.3739 19.3775 44.5573 17.0298 45.3435 14.7276C46.052 13.0089 47.3175 12.0185 49.1401 11.7563Z" fill="white"/>
<path opacity="0.97" fill-rule="evenodd" clip-rule="evenodd" d="M62.1258 11.7563C63.4097 11.7563 64.6935 11.7563 65.9774 11.7563C65.6925 14.5054 65.4174 17.2565 65.1521 20.0097C64.9465 22.1952 63.791 23.5708 61.6857 24.1364C60.1862 24.2863 58.6823 24.3413 57.1738 24.3015C57.3201 23.2424 57.4301 22.1786 57.504 21.1102C58.4584 21.1284 59.4121 21.1102 60.3651 21.0551C60.7503 20.8901 61.0254 20.615 61.1905 20.2298C61.5457 17.4116 61.8574 14.5871 62.1258 11.7563Z" fill="white"/>
<path opacity="0.974" fill-rule="evenodd" clip-rule="evenodd" d="M69.8282 11.7564C71.7727 11.738 73.7167 11.7564 75.6606 11.8114C77.62 12.1869 78.537 13.379 78.4117 15.3879C78.1656 18.2882 77.8905 21.186 77.5863 24.0814C76.4593 24.2973 75.3038 24.3706 74.1199 24.3015C74.2522 23.0517 74.399 21.8046 74.5601 20.56C72.7628 20.4133 70.9653 20.4133 69.1679 20.56C69.0212 21.7705 68.8744 22.981 68.7277 24.1915C67.5562 24.3014 66.3823 24.3381 65.2063 24.3015C65.4886 21.5889 65.7637 18.8745 66.0316 16.1582C66.1888 13.7099 67.4543 12.2427 69.8282 11.7564ZM70.7085 14.7276C72.0008 14.6796 73.2847 14.7347 74.5601 14.8927C74.7306 15.0263 74.8589 15.1913 74.9453 15.3879C74.9855 16.0124 74.9673 16.6359 74.8902 17.2586C73.0929 17.2586 71.2954 17.2586 69.498 17.2586C69.5296 16.5891 69.6213 15.9289 69.7732 15.2778C70.037 14.9908 70.3488 14.8074 70.7085 14.7276Z" fill="white"/>
<path opacity="0.969" fill-rule="evenodd" clip-rule="evenodd" d="M79.0721 11.7563C80.2092 11.7563 81.3464 11.7563 82.4835 11.7563C82.3006 13.1079 82.2088 14.4651 82.2084 15.828C82.2596 15.9855 82.3514 16.1138 82.4835 16.2132C84.1235 16.3746 85.7742 16.4296 87.4355 16.3782C87.5532 14.8347 87.7 13.2941 87.8757 11.7563C89.0496 11.7563 90.2233 11.7563 91.3972 11.7563C91.0851 15.2808 90.7366 18.8022 90.3517 22.3207C90.0558 23.4331 89.3405 24.1116 88.2059 24.3565C84.795 24.4528 81.3836 24.5078 77.9717 24.5216C78.0356 23.378 78.1457 22.2409 78.3018 21.1102C80.9788 21.0185 83.6566 20.9635 86.3351 20.9451C86.6876 20.7548 86.9077 20.4613 86.9954 20.0647C85.0512 20.0281 83.1071 19.9913 81.163 19.9547C79.7552 19.7207 78.9298 18.8954 78.687 17.4787C78.6479 15.5589 78.7762 13.6514 79.0721 11.7563Z" fill="white"/>
<path opacity="0.978" fill-rule="evenodd" clip-rule="evenodd" d="M20.6382 11.8662C24.3797 11.8662 28.1212 11.8662 31.8628 11.8662C31.8628 12.82 31.8628 13.7736 31.8628 14.7274C30.4688 14.7274 29.075 14.7274 27.6811 14.7274C27.1516 17.8095 27.1883 20.8908 27.7911 23.9711C26.3256 24.0811 24.8584 24.1178 23.3893 24.0812C23.3484 20.9237 23.6785 17.8058 24.3797 14.7274C23.1326 14.7274 21.8853 14.7274 20.6382 14.7274C20.6382 13.7736 20.6382 12.82 20.6382 11.8662Z" fill="white"/>
<path opacity="0.892" fill-rule="evenodd" clip-rule="evenodd" d="M67.5178 25.732C67.848 25.732 68.1781 25.732 68.5082 25.732C68.8013 26.7392 69.1497 27.7296 69.5537 28.7032C69.8913 27.7453 70.2398 26.7915 70.5991 25.842C70.9213 25.7338 71.2514 25.6971 71.5895 25.732C71.5895 27.3093 71.5895 28.8867 71.5895 30.4639C71.3327 30.4639 71.0759 30.4639 70.8192 30.4639C70.8374 29.4729 70.8192 28.4825 70.7641 27.4927C70.4551 28.2913 70.18 29.0983 69.9388 29.9137C69.6721 29.9476 69.4153 29.9108 69.1685 29.8037C68.8826 29.0743 68.6075 28.3406 68.3432 27.6028C68.2881 28.5557 68.2699 29.5095 68.2881 30.4639C68.0314 30.4639 67.7746 30.4639 67.5178 30.4639C67.5178 28.8867 67.5178 27.3093 67.5178 25.732Z" fill="white"/>
<path opacity="0.896" fill-rule="evenodd" clip-rule="evenodd" d="M73.5703 25.7318C74.6496 25.4737 75.4016 25.8405 75.8262 26.8322C75.8996 27.6759 75.8996 28.5196 75.8262 29.3633C75.2084 30.4957 74.3098 30.7709 73.1301 30.1886C72.9234 30.0188 72.7584 29.8171 72.6349 29.5834C72.3827 28.5045 72.4193 27.4407 72.7449 26.3921C72.9798 26.1001 73.2549 25.88 73.5703 25.7318ZM74.0104 26.5021C74.3411 26.4749 74.6162 26.585 74.8358 26.8322C74.9561 27.2412 75.0111 27.6631 75.0009 28.0978C75.0111 28.5324 74.9561 28.9543 74.8358 29.3633C74.4 29.801 73.9598 29.801 73.5152 29.3633C73.2952 28.5196 73.2952 27.6759 73.5152 26.8322C73.6703 26.6913 73.8354 26.5812 74.0104 26.5021Z" fill="white"/>
<path opacity="0.882" fill-rule="evenodd" clip-rule="evenodd" d="M76.2112 25.7319C77.3483 25.7319 78.4855 25.7319 79.6226 25.7319C79.6226 25.9887 79.6226 26.2455 79.6226 26.5022C79.1824 26.5022 78.7422 26.5022 78.302 26.5022C78.302 27.8228 78.302 29.1433 78.302 30.4639C78.0085 30.4639 77.7152 30.4639 77.4217 30.4639C77.4217 29.1433 77.4217 27.8228 77.4217 26.5022C77.0181 26.5022 76.6147 26.5022 76.2112 26.5022C76.2112 26.2455 76.2112 25.9887 76.2112 25.7319Z" fill="white"/>
<path opacity="0.896" fill-rule="evenodd" clip-rule="evenodd" d="M80.9428 25.7318C82.0221 25.4737 82.7742 25.8405 83.1987 26.8322C83.2721 27.6759 83.2721 28.5196 83.1987 29.3633C82.581 30.4957 81.6823 30.7709 80.5026 30.1886C80.296 30.0188 80.1309 29.8171 80.0074 29.5834C79.7552 28.5045 79.7919 27.4407 80.1175 26.3921C80.3523 26.1001 80.6274 25.88 80.9428 25.7318ZM81.383 26.5021C81.7137 26.4749 81.9888 26.585 82.2083 26.8322C82.3286 27.2412 82.3836 27.6631 82.3734 28.0978C82.3836 28.5324 82.3286 28.9543 82.2083 29.3633C81.7726 29.801 81.3324 29.801 80.8878 29.3633C80.6677 28.5196 80.6677 27.6759 80.8878 26.8322C81.0429 26.6913 81.2079 26.5812 81.383 26.5021Z" fill="white"/>
<path opacity="0.902" fill-rule="evenodd" clip-rule="evenodd" d="M84.1345 25.7315C84.9424 25.7132 85.7493 25.7315 86.5555 25.7865C87.4312 26.2688 87.6697 26.9841 87.2708 27.9324C87.0667 28.1365 86.865 28.3382 86.6656 28.5376C86.9938 29.1601 87.324 29.7836 87.656 30.4084C87.3258 30.4818 86.9957 30.4818 86.6656 30.4084C86.3119 29.8663 86 29.2977 85.7302 28.7027C85.4682 28.5998 85.193 28.5631 84.9048 28.5926C84.9048 29.2162 84.9048 29.8398 84.9048 30.4634C84.6481 30.4634 84.3913 30.4634 84.1345 30.4634C84.1345 28.8861 84.1345 27.3087 84.1345 25.7315ZM84.9048 26.5018C85.31 26.4836 85.7134 26.5019 86.1153 26.5568C86.6099 26.8283 86.6832 27.1951 86.3354 27.6572C85.8599 27.7122 85.3831 27.7305 84.9048 27.7123C84.9048 27.3087 84.9048 26.9053 84.9048 26.5018Z" fill="white"/>
<path opacity="0.878" fill-rule="evenodd" clip-rule="evenodd" d="M89.0865 25.7314C89.6014 25.7132 90.1149 25.7316 90.6272 25.7865C90.9018 25.9053 91.1587 26.0521 91.3975 26.2266C91.2008 26.8913 90.834 27.0014 90.297 26.5568C90.0035 26.4834 89.7102 26.4834 89.4167 26.5568C88.978 26.7706 88.9046 27.0641 89.1966 27.4371C89.699 27.6178 90.2125 27.7645 90.7372 27.8773C91.6746 28.5529 91.748 29.3232 90.9573 30.1883C90.2879 30.4605 89.591 30.5339 88.8664 30.4083C88.4992 30.3352 88.2058 30.1518 87.9861 29.8581C88.0932 29.6248 88.2398 29.4231 88.4263 29.2529C89.1277 29.7652 89.843 29.8019 90.5721 29.3629C90.6539 29.1493 90.6355 28.9476 90.5171 28.7577C89.8984 28.5627 89.2748 28.3792 88.6464 28.2075C88.4759 28.0739 88.3476 27.9088 88.2612 27.7122C87.9778 26.7954 88.2529 26.1351 89.0865 25.7314Z" fill="white"/>
<path opacity="0.967" fill-rule="evenodd" clip-rule="evenodd" d="M23.7192 30.2438C26.4175 29.941 28.2516 31.0414 29.2215 33.5452C31.568 33.6552 33.9155 33.6919 36.2643 33.6552C36.2643 34.2421 36.2643 34.8291 36.2643 35.416C33.9534 35.416 31.6425 35.416 29.3315 35.416C28.8779 37.9966 27.3373 39.3906 24.7096 39.5977C22.0812 39.3897 20.5406 37.9957 20.0877 35.416C17.9969 35.416 15.906 35.416 13.8152 35.416C13.8152 34.8291 13.8152 34.2421 13.8152 33.6552C15.9427 33.6552 18.0703 33.6552 20.1978 33.6552C20.7229 31.8462 21.8968 30.7091 23.7192 30.2438ZM24.0494 32.7749C25.3722 32.5647 26.2709 33.0782 26.7455 34.3155C26.8906 36.2612 25.9919 37.1232 24.0494 36.9016C22.5516 36.1375 22.2032 35.0188 23.0039 33.5452C23.3416 33.2609 23.6901 33.0042 24.0494 32.7749Z" fill="white"/>
</svg>
