<svg width="91" height="41" viewBox="0 0 91 41" fill="none" xmlns="http://www.w3.org/2000/svg">
<path opacity="0.979" fill-rule="evenodd" clip-rule="evenodd" d="M16.0668 0.921565C20.4739 0.869073 24.8757 0.924096 29.2722 1.08663C29.7204 1.35899 29.9405 1.76253 29.9325 2.29713C29.7744 3.20467 29.5726 4.10329 29.3272 4.99323C29.1552 5.34845 28.8801 5.58692 28.5019 5.70852C25.4573 5.74516 22.4128 5.78192 19.3681 5.81856C19.1344 5.94203 18.9327 6.1071 18.7629 6.31376C16.7876 8.9862 14.7701 11.6273 12.7104 14.237C12.6034 14.4452 12.53 14.6653 12.4903 14.8973C12.2701 21.6484 12.0134 28.3978 11.72 35.1455C11.6335 35.4848 11.4318 35.7231 11.1148 35.8608C9.28066 35.9342 7.44665 35.9342 5.61253 35.8608C5.33742 35.7324 5.13571 35.5307 5.00729 35.2556C4.95061 28.2857 4.98726 21.3162 5.11733 14.347C6.35633 12.6126 7.6586 10.9252 9.02392 9.28498C7.80199 9.01812 6.59149 9.07314 5.39244 9.45004C5.03381 9.58331 4.72205 9.78502 4.45706 10.0553C3.86535 12.1698 3.31513 14.2973 2.80639 16.4379C2.75137 16.6396 2.62294 16.768 2.42123 16.8231C1.80256 16.9437 1.17899 17.0353 0.550469 17.0982C0.332481 17.1051 0.149069 17.0317 0.000244141 16.8781C0.349989 15.0744 0.735146 13.277 1.15572 11.4859C1.92581 8.22106 3.96164 6.33192 7.26321 5.81856C8.80615 5.65614 10.3468 5.60111 11.8851 5.65349C13.0039 4.22291 14.1226 2.79233 15.2415 1.36174C15.4896 1.14176 15.7647 0.995075 16.0668 0.921565Z" fill="black"/>
<path opacity="0.97" fill-rule="evenodd" clip-rule="evenodd" d="M40.7169 0.921688C52.6385 0.903311 64.56 0.921688 76.4815 0.976711C76.8197 1.05803 77.0581 1.25975 77.1968 1.58196C77.2702 2.68318 77.307 3.78363 77.3068 4.8833C77.2514 5.27066 77.0497 5.54577 76.7016 5.70864C64.2299 5.78204 51.7581 5.78204 39.2863 5.70864C39.0479 5.61697 38.8828 5.45191 38.7911 5.21344C38.7177 4.84666 38.7177 4.47977 38.7911 4.11299C39.2013 3.18256 39.6415 2.26556 40.1117 1.36187C40.2767 1.14519 40.4785 0.9985 40.7169 0.921688Z" fill="black"/>
<path opacity="0.969" fill-rule="evenodd" clip-rule="evenodd" d="M35.5449 12.2561C38.4794 12.2561 41.4139 12.2561 44.3484 12.2561C44.2601 13.323 44.15 14.3868 44.0183 15.4474C41.3036 15.429 38.5891 15.4474 35.875 15.5024C35.7097 15.5666 35.563 15.6583 35.4348 15.7775C35.3078 16.1024 35.1978 16.4325 35.1047 16.7679C38.0383 16.878 40.9728 16.9146 43.9083 16.878C43.8127 17.9069 43.7027 18.934 43.5781 19.9592C40.6436 19.9592 37.7091 19.9592 34.7745 19.9592C34.7937 20.3305 34.8487 20.6973 34.9396 21.0597C34.9946 21.2614 35.1231 21.3898 35.3248 21.4449C38.0389 21.4999 40.7534 21.5183 43.4681 21.4999C43.3291 22.5965 43.2191 23.6969 43.138 24.8012C40.0565 24.8196 36.9752 24.8012 33.8942 24.7462C32.1324 24.34 31.197 23.2212 31.088 21.3898C30.8845 19.2403 31.1412 17.1495 31.8583 15.1173C32.5593 13.4583 33.7881 12.5046 35.5449 12.2561Z" fill="#E84342"/>
<path opacity="0.968" fill-rule="evenodd" clip-rule="evenodd" d="M48.6401 12.2561C51.5379 12.2561 54.4358 12.2561 57.3336 12.2561C57.2821 13.3214 57.2087 14.3853 57.1135 15.4474C54.3622 15.429 51.6111 15.4474 48.8602 15.5024C48.7027 15.5536 48.5744 15.6454 48.475 15.7775C48.3262 16.1319 48.2345 16.4987 48.1999 16.878C51.0977 16.878 53.9956 16.878 56.8935 16.878C56.8201 17.905 56.7468 18.9322 56.6734 19.9592C53.7388 19.9592 50.8043 19.9592 47.8698 19.9592C47.8516 20.2914 47.87 20.6215 47.9248 20.9496C48.0165 21.1881 48.1815 21.3532 48.42 21.4449C51.0975 21.4999 53.7752 21.5183 56.4533 21.4999C56.3722 22.6042 56.2621 23.7046 56.1231 24.8012C53.0417 24.8196 49.9604 24.8012 46.8794 24.7462C45.4797 24.4837 44.6177 23.6584 44.2933 22.2702C43.8739 19.8773 44.0573 17.5296 44.8435 15.2273C45.552 13.5086 46.8175 12.5182 48.6401 12.2561Z" fill="#E84342"/>
<path opacity="0.97" fill-rule="evenodd" clip-rule="evenodd" d="M61.6258 12.2561C62.9097 12.2561 64.1935 12.2561 65.4774 12.2561C65.1925 15.0051 64.9174 17.7563 64.6521 20.5095C64.4465 22.695 63.291 24.0705 61.1857 24.6362C59.6862 24.786 58.1823 24.8411 56.6738 24.8012C56.8201 23.7421 56.9301 22.6783 57.004 21.6099C57.9584 21.6282 58.9121 21.6099 59.8651 21.5549C60.2503 21.3898 60.5254 21.1147 60.6905 20.7296C61.0457 17.9113 61.3574 15.0869 61.6258 12.2561Z" fill="#E84342"/>
<path opacity="0.974" fill-rule="evenodd" clip-rule="evenodd" d="M69.3282 12.2566C71.2727 12.2383 73.2167 12.2566 75.1606 12.3117C77.12 12.6871 78.037 13.8793 77.9117 15.8881C77.6656 18.7885 77.3905 21.6863 77.0863 24.5817C75.9593 24.7976 74.8038 24.8709 73.6199 24.8018C73.7522 23.552 73.899 22.3048 74.0601 21.0602C72.2628 20.9135 70.4653 20.9135 68.6679 21.0602C68.5212 22.2707 68.3744 23.4812 68.2277 24.6917C67.0562 24.8017 65.8823 24.8383 64.7063 24.8018C64.9886 22.0892 65.2637 19.3748 65.5316 16.6584C65.6888 14.2102 66.9543 12.7429 69.3282 12.2566ZM70.2085 15.2279C71.5008 15.1799 72.7847 15.2349 74.0601 15.3929C74.2306 15.5265 74.3589 15.6916 74.4453 15.8881C74.4855 16.5126 74.4673 17.1361 74.3902 17.7589C72.5929 17.7589 70.7954 17.7589 68.998 17.7589C69.0296 17.0894 69.1213 16.4291 69.2732 15.7781C69.537 15.4911 69.8488 15.3076 70.2085 15.2279Z" fill="#E84342"/>
<path opacity="0.969" fill-rule="evenodd" clip-rule="evenodd" d="M78.5721 12.2561C79.7092 12.2561 80.8464 12.2561 81.9835 12.2561C81.8006 13.6077 81.7088 14.9649 81.7084 16.3278C81.7596 16.4852 81.8514 16.6136 81.9835 16.7129C83.6235 16.8744 85.2742 16.9294 86.9355 16.878C87.0532 15.3345 87.2 13.7939 87.3757 12.2561C88.5496 12.2561 89.7233 12.2561 90.8972 12.2561C90.5851 15.7805 90.2366 19.3019 89.8517 22.8204C89.5558 23.9329 88.8405 24.6114 87.7059 24.8562C84.295 24.9525 80.8836 25.0076 77.4717 25.0213C77.5356 23.8777 77.6457 22.7406 77.8018 21.6099C80.4788 21.5183 83.1566 21.4632 85.8351 21.4449C86.1876 21.2546 86.4077 20.9611 86.4954 20.5645C84.5512 20.5278 82.6071 20.4911 80.663 20.4544C79.2552 20.2205 78.4298 19.3952 78.187 17.9784C78.1479 16.0587 78.2762 14.1512 78.5721 12.2561Z" fill="#E84342"/>
<path opacity="0.978" fill-rule="evenodd" clip-rule="evenodd" d="M20.1382 12.3662C23.8797 12.3662 27.6212 12.3662 31.3628 12.3662C31.3628 13.32 31.3628 14.2736 31.3628 15.2274C29.9688 15.2274 28.575 15.2274 27.1811 15.2274C26.6516 18.3095 26.6883 21.3908 27.2911 24.4711C25.8256 24.5811 24.3584 24.6178 22.8893 24.5812C22.8484 21.4237 23.1785 18.3058 23.8797 15.2274C22.6326 15.2274 21.3853 15.2274 20.1382 15.2274C20.1382 14.2736 20.1382 13.32 20.1382 12.3662Z" fill="#E84342"/>
<path opacity="0.892" fill-rule="evenodd" clip-rule="evenodd" d="M67.0178 26.232C67.348 26.232 67.6781 26.232 68.0082 26.232C68.3013 27.2392 68.6497 28.2296 69.0537 29.2032C69.3913 28.2453 69.7398 27.2915 70.0991 26.342C70.4213 26.2338 70.7514 26.1971 71.0895 26.232C71.0895 27.8093 71.0895 29.3867 71.0895 30.9639C70.8327 30.9639 70.5759 30.9639 70.3192 30.9639C70.3374 29.9729 70.3192 28.9825 70.2641 27.9927C69.9551 28.7913 69.68 29.5983 69.4388 30.4137C69.1721 30.4476 68.9153 30.4108 68.6685 30.3037C68.3826 29.5743 68.1075 28.8406 67.8432 28.1028C67.7881 29.0557 67.7699 30.0095 67.7881 30.9639C67.5314 30.9639 67.2746 30.9639 67.0178 30.9639C67.0178 29.3867 67.0178 27.8093 67.0178 26.232Z" fill="black"/>
<path opacity="0.896" fill-rule="evenodd" clip-rule="evenodd" d="M73.0703 26.2318C74.1496 25.9737 74.9016 26.3405 75.3262 27.3322C75.3996 28.1759 75.3996 29.0196 75.3262 29.8633C74.7084 30.9957 73.8098 31.2709 72.6301 30.6886C72.4234 30.5188 72.2584 30.3171 72.1349 30.0834C71.8827 29.0045 71.9193 27.9407 72.2449 26.8921C72.4798 26.6001 72.7549 26.38 73.0703 26.2318ZM73.5104 27.0021C73.8411 26.9749 74.1162 27.085 74.3358 27.3322C74.4561 27.7412 74.5111 28.1631 74.5009 28.5978C74.5111 29.0324 74.4561 29.4543 74.3358 29.8633C73.9 30.301 73.4598 30.301 73.0152 29.8633C72.7952 29.0196 72.7952 28.1759 73.0152 27.3322C73.1703 27.1913 73.3354 27.0812 73.5104 27.0021Z" fill="black"/>
<path opacity="0.882" fill-rule="evenodd" clip-rule="evenodd" d="M75.7112 26.2319C76.8483 26.2319 77.9855 26.2319 79.1226 26.2319C79.1226 26.4887 79.1226 26.7455 79.1226 27.0022C78.6824 27.0022 78.2422 27.0022 77.802 27.0022C77.802 28.3228 77.802 29.6433 77.802 30.9639C77.5085 30.9639 77.2152 30.9639 76.9217 30.9639C76.9217 29.6433 76.9217 28.3228 76.9217 27.0022C76.5181 27.0022 76.1147 27.0022 75.7112 27.0022C75.7112 26.7455 75.7112 26.4887 75.7112 26.2319Z" fill="black"/>
<path opacity="0.896" fill-rule="evenodd" clip-rule="evenodd" d="M80.4428 26.2318C81.5221 25.9737 82.2742 26.3405 82.6987 27.3322C82.7721 28.1759 82.7721 29.0196 82.6987 29.8633C82.081 30.9957 81.1823 31.2709 80.0026 30.6886C79.796 30.5188 79.6309 30.3171 79.5074 30.0834C79.2552 29.0045 79.2919 27.9407 79.6175 26.8921C79.8523 26.6001 80.1274 26.38 80.4428 26.2318ZM80.883 27.0021C81.2137 26.9749 81.4888 27.085 81.7083 27.3322C81.8286 27.7412 81.8836 28.1631 81.8734 28.5978C81.8836 29.0324 81.8286 29.4543 81.7083 29.8633C81.2726 30.301 80.8324 30.301 80.3878 29.8633C80.1677 29.0196 80.1677 28.1759 80.3878 27.3322C80.5429 27.1913 80.7079 27.0812 80.883 27.0021Z" fill="black"/>
<path opacity="0.902" fill-rule="evenodd" clip-rule="evenodd" d="M83.6345 26.2317C84.4424 26.2134 85.2493 26.2317 86.0555 26.2867C86.9312 26.769 87.1697 27.4843 86.7708 28.4326C86.5667 28.6367 86.365 28.8384 86.1656 29.0378C86.4938 29.6604 86.824 30.2839 87.156 30.9086C86.8258 30.982 86.4957 30.982 86.1656 30.9086C85.8119 30.3665 85.5 29.7979 85.2302 29.2029C84.9682 29.1 84.693 29.0634 84.4048 29.0929C84.4048 29.7165 84.4048 30.34 84.4048 30.9636C84.1481 30.9636 83.8913 30.9636 83.6345 30.9636C83.6345 29.3864 83.6345 27.809 83.6345 26.2317ZM84.4048 27.002C84.81 26.9839 85.2134 27.0021 85.6153 27.057C86.1099 27.3285 86.1832 27.6953 85.8354 28.1575C85.3599 28.2124 84.8831 28.2308 84.4048 28.2125C84.4048 27.809 84.4048 27.4055 84.4048 27.002Z" fill="black"/>
<path opacity="0.878" fill-rule="evenodd" clip-rule="evenodd" d="M88.5865 26.2317C89.1014 26.2134 89.6149 26.2318 90.1272 26.2867C90.4018 26.4056 90.6587 26.5524 90.8975 26.7269C90.7008 27.3916 90.334 27.5016 89.797 27.057C89.5035 26.9836 89.2102 26.9836 88.9167 27.057C88.478 27.2708 88.4046 27.5643 88.6966 27.9374C89.199 28.1181 89.7125 28.2648 90.2372 28.3776C91.1746 29.0531 91.248 29.8234 90.4573 30.6885C89.7879 30.9608 89.091 31.0342 88.3664 30.9086C87.9992 30.8354 87.7058 30.6521 87.4861 30.3584C87.5932 30.1251 87.7398 29.9234 87.9263 29.7531C88.6277 30.2655 89.343 30.3021 90.0721 29.8632C90.1539 29.6496 90.1355 29.4479 90.0171 29.2579C89.3984 29.0629 88.7748 28.8795 88.1464 28.7077C87.9759 28.5741 87.8476 28.409 87.7612 28.2125C87.4778 27.2956 87.7529 26.6353 88.5865 26.2317Z" fill="black"/>
<path opacity="0.967" fill-rule="evenodd" clip-rule="evenodd" d="M23.2192 30.7436C25.9175 30.4408 27.7516 31.5412 28.7215 34.0449C31.068 34.155 33.4155 34.1916 35.7643 34.155C35.7643 34.7419 35.7643 35.3288 35.7643 35.9157C33.4534 35.9157 31.1425 35.9157 28.8315 35.9157C28.3779 38.4964 26.8373 39.8903 24.2096 40.0974C21.5812 39.8894 20.0406 38.4955 19.5877 35.9157C17.4969 35.9157 15.406 35.9157 13.3152 35.9157C13.3152 35.3288 13.3152 34.7419 13.3152 34.155C15.4427 34.155 17.5703 34.155 19.6978 34.155C20.2229 32.346 21.3968 31.2089 23.2192 30.7436ZM23.5494 33.2746C24.8722 33.0644 25.7709 33.5779 26.2455 34.8153C26.3906 36.761 25.4919 37.6229 23.5494 37.4013C22.0516 36.6373 21.7032 35.5186 22.5039 34.0449C22.8416 33.7607 23.1901 33.504 23.5494 33.2746Z" fill="black"/>
</svg>
