<svg width="153" height="43" viewBox="0 0 153 43" fill="none" xmlns="http://www.w3.org/2000/svg">
<path fill-rule="evenodd" clip-rule="evenodd" d="M89.2442 0.376011C89.4632 0.592983 89.6411 0.616112 89.8513 0.45443C90.2621 0.138554 92.083 0.970757 92.3743 1.60735C92.5406 1.97015 92.5596 1.87807 92.4502 1.24236L92.3037 0.392092L93.3458 0.561264C94.8698 0.808854 95.3116 0.835507 95.5737 0.695632C95.9119 0.515226 97.4313 0.665234 97.7538 0.910842C97.9336 1.04785 98.0639 1.02208 98.1326 0.835287C98.2168 0.606861 98.3921 0.603557 99.0199 0.818106C99.5533 1.00027 99.9419 1.01613 100.241 0.868108C100.575 0.70224 100.794 0.756869 101.163 1.09852C101.565 1.471 101.816 1.51968 102.654 1.3884C103.209 1.30139 103.77 1.26328 103.901 1.30359C104.031 1.34368 104.727 1.40712 105.446 1.44435C107.525 1.55207 107.587 1.56044 107.587 1.73776C107.587 1.83049 107.924 1.86023 108.336 1.80428C109.007 1.71309 109.072 1.7523 108.953 2.1728C108.864 2.48868 108.93 2.64331 109.155 2.64331C109.339 2.64331 109.489 2.49463 109.489 2.3129C109.489 2.09262 109.727 1.98248 110.203 1.98248C110.615 1.98248 110.916 2.09879 110.916 2.25783C110.916 2.42788 111.285 2.54441 111.88 2.56269C112.976 2.59617 113.323 2.79332 112.812 3.09246C112.575 3.23123 112.558 3.29841 112.759 3.30084C112.923 3.3026 113.057 3.45283 113.057 3.63456C113.057 3.81628 113.217 3.96497 113.413 3.96497C113.61 3.96497 113.77 3.81628 113.77 3.63456C113.77 3.45283 113.663 3.30414 113.532 3.30414C113.401 3.30414 113.294 3.20502 113.294 3.08387C113.294 2.75169 113.939 2.81953 114.083 3.16669C114.159 3.35128 114.43 3.43058 114.776 3.36934C115.301 3.27661 115.336 3.32771 115.246 4.04251C115.153 4.77801 114.565 5.29301 114.265 4.90114C114.189 4.80224 113.832 4.70378 113.473 4.68263C113.113 4.66148 112.685 4.63285 112.521 4.61897C112.358 4.60509 111.984 4.66214 111.689 4.74563C111.29 4.85907 111.154 4.80863 111.154 4.54672C111.154 4.26146 111.041 4.23613 110.544 4.41103C109.626 4.73417 108.776 4.67866 108.776 4.29538C108.776 4.08987 108.551 3.96497 108.181 3.96497C107.834 3.96497 107.587 4.09163 107.587 4.26939C107.587 4.68659 105.705 4.71303 105.534 4.29825C105.465 4.13304 105.123 4.00308 104.774 4.00924C103.564 4.03083 103.306 3.96343 103.306 3.62486C103.306 3.43785 103.172 3.30084 103.009 3.32066C102.845 3.34027 102.467 3.34467 102.168 3.33013C101.703 3.30789 101.661 3.24158 101.876 2.86866C102.082 2.51313 102.061 2.45674 101.766 2.56159C101.566 2.63252 101.404 2.82856 101.404 2.9973C101.404 3.16603 101.254 3.30414 101.072 3.30414C100.89 3.30414 100.68 3.45129 100.605 3.63103C100.407 4.11123 97.5385 3.98369 96.8853 3.4656C96.3828 3.06712 95.8106 2.94135 96.0358 3.27903C96.1074 3.3863 95.8971 3.52155 95.5685 3.57993C95.24 3.63808 94.9128 3.59821 94.8415 3.49138C94.7701 3.38432 94.6122 3.35392 94.4904 3.42375C94.3687 3.49336 94.269 3.44534 94.269 3.31714C94.269 3.18894 94.0486 3.08387 93.7794 3.08387C93.5102 3.08387 93.3558 3.18299 93.4367 3.30414C93.527 3.43961 93.1893 3.51164 92.5589 3.49138C91.8754 3.46935 91.7475 3.42816 92.1751 3.3678C92.6319 3.30326 92.776 3.18079 92.6771 2.94179C92.6007 2.75742 92.4728 2.68913 92.3929 2.79002C92.1679 3.07439 91.2219 3.52442 90.8487 3.52442C90.6647 3.52442 90.0211 3.09334 89.4188 2.56622C88.6689 1.91023 88.3236 1.72168 88.3236 1.96817C88.3236 2.16598 88.6466 2.50476 89.0413 2.72063C89.8492 3.16272 89.7809 3.52442 88.8901 3.52442C88.5098 3.52442 88.3552 3.43499 88.4611 3.27639C88.5797 3.09862 88.5065 3.09047 88.2035 3.24753C87.6682 3.52508 86.8967 3.3482 86.8967 2.94795C86.8967 2.78054 86.7897 2.64331 86.6589 2.64331C86.5281 2.64331 86.4211 2.77548 86.4211 2.93694C86.4211 3.39776 83.6201 3.34511 83.4857 2.88187C83.4025 2.59441 83.3799 2.6008 83.357 2.91866C83.3252 3.36273 82.8424 3.42573 82.4257 3.03981C82.2093 2.83936 82.1404 2.83826 82.1404 3.03518C82.1404 3.32331 77.9638 3.31075 77.4637 3.02131C77.3115 2.93298 77.1324 2.9854 77.0658 3.13761C76.9731 3.34886 76.8879 3.33872 76.7043 3.09444C76.5723 2.91844 76.5162 2.69662 76.5797 2.60124C76.6432 2.50608 76.5293 2.48714 76.3262 2.55917C76.1231 2.63142 75.9571 2.8072 75.9571 2.95016C75.9571 3.23409 75.5029 3.29885 73.6978 3.27242C73.0439 3.26273 71.6526 3.27749 70.6062 3.30502C67.273 3.39291 67.0673 3.38256 66.9736 3.12263C66.9101 2.94575 66.7731 2.96822 66.5272 3.19599C66.0796 3.61055 64.607 3.61914 63.558 3.21317C62.8653 2.94509 62.6902 2.94509 62.2945 3.21317C61.7328 3.5938 61.2424 3.62883 61.6405 3.26009C62.0289 2.90038 61.9991 2.64331 61.5692 2.64331C61.373 2.64331 61.2124 2.792 61.2124 2.97373C61.2124 3.15545 61.025 3.31229 60.7963 3.32198C60.5675 3.3319 60.059 3.3634 59.6666 3.39203C59.2742 3.42067 58.8745 3.33828 58.7784 3.20898C58.6616 3.05171 58.6026 3.06492 58.6 3.24907C58.5981 3.40062 58.3558 3.52288 58.0614 3.52111C57.6892 3.51869 57.6202 3.46252 57.8347 3.3363C58.0828 3.1907 58.0745 3.10215 57.7919 2.88496C57.5056 2.6649 57.3929 2.6975 57.1824 3.0614C57.0281 3.32859 56.7814 3.45723 56.5684 3.38146C56.3724 3.31185 56.0799 3.35547 55.9179 3.47838C55.439 3.84206 54.6549 3.87642 54.2335 3.55239C53.9778 3.35613 53.8401 3.33674 53.8401 3.49754C53.8401 3.75989 53.0717 3.84051 52.817 3.60482C52.4748 3.28784 50.7694 3.30855 50.5739 3.63213C50.367 3.97466 49.3485 4.06938 47.8267 3.88765C47.3315 3.8284 46.609 3.8643 46.2214 3.96717C45.8338 4.07026 45.5165 4.07467 45.5165 3.97708C45.5165 3.8795 45.249 3.79976 44.922 3.79976C44.595 3.79976 44.3274 3.92444 44.3274 4.07687C44.3274 4.40794 43.4318 4.67007 43.3238 4.3705C43.2827 4.25573 42.8494 4.07841 42.3612 3.97642C41.5647 3.81012 41.4736 3.83655 41.4736 4.23305C41.4736 4.62404 41.3714 4.65708 40.5818 4.52051C40.0912 4.4357 39.773 4.44363 39.8743 4.53813C40.1409 4.78704 38.5582 5.24433 38.2248 5.01481C38.0633 4.90357 37.8847 4.92053 37.7946 5.05556C37.7099 5.18266 37.2367 5.28663 36.743 5.28663C36.2493 5.28663 35.7682 5.358 35.674 5.44523C35.4076 5.69193 33.0668 5.697 32.7338 5.45183C32.5203 5.29434 32.4366 5.33641 32.4366 5.60096C32.4366 5.89547 32.2104 5.9664 31.3069 5.95472C30.6858 5.94657 29.8177 6.00407 29.378 6.08248C28.8612 6.17456 28.5164 6.13116 28.402 5.95979C28.2662 5.75647 28.1475 5.7633 27.8931 5.98887C27.411 6.41642 26.3275 6.82371 26.1385 6.64859C25.8429 6.37457 24.8424 6.47237 24.7116 6.78825C24.6102 7.03253 24.5101 7.04245 24.2395 6.83451C23.8965 6.57084 23.2975 6.71798 23.497 7.01667C23.5895 7.15523 22.9182 7.18585 22.0321 7.0832C21.8685 7.06425 21.7262 6.87526 21.716 6.66335C21.701 6.35519 21.6694 6.34417 21.5586 6.60828C21.4822 6.79001 21.2603 7.04751 21.0653 7.18056C20.8703 7.31361 20.7809 7.52749 20.8665 7.6557C20.9628 7.79998 20.8494 7.84712 20.5685 7.77905C20.3191 7.71869 19.726 7.84029 19.2506 8.04911C18.7749 8.25815 17.8553 8.42931 17.2065 8.42931C16.558 8.42931 16.0272 8.51521 16.0272 8.62006C16.0272 8.72514 15.8667 8.81104 15.6705 8.81104C15.4743 8.81104 15.3137 8.70135 15.3137 8.5672C15.3137 8.43305 15.1532 8.3804 14.957 8.45023C14.7608 8.51984 14.6003 8.48085 14.6003 8.36366C14.6003 8.0132 13.9494 8.12224 13.7934 8.49869C13.58 9.0137 13.5955 9.03132 14.2604 9.03132C14.8417 9.03132 14.8517 9.05026 14.4581 9.41482C14.1629 9.68796 14.016 9.72034 13.9463 9.52716C13.8799 9.34279 13.5984 9.43288 13.0666 9.80867C12.5719 10.1583 12.1329 10.3074 11.8725 10.2149C11.6288 10.1283 11.3767 10.1939 11.2547 10.3759C11.1415 10.5451 10.858 10.6836 10.6247 10.6836C10.3914 10.6838 10.1873 10.8078 10.1709 10.959C10.1545 11.1103 10.1279 11.3173 10.1115 11.4189C10.0285 11.9354 7.94141 12.346 7.94141 11.8458C7.94141 11.6978 7.77469 11.7971 7.57089 12.0665C7.36708 12.3361 7.25888 12.6443 7.33046 12.7513C7.50383 13.0113 7.02248 13.3426 6.21057 13.5223C5.81697 13.6095 5.28807 14.0193 4.90257 14.5356C4.54655 15.0125 4.12347 15.4063 3.96248 15.411C3.80148 15.4156 3.59673 15.6885 3.50754 16.0178C3.41837 16.3469 3.14819 16.8121 2.90729 17.0518C2.60977 17.3476 2.52487 17.6329 2.64331 17.9404C2.73938 18.1893 2.79433 18.7836 2.76579 19.2607C2.73701 19.7381 2.87328 20.354 3.06828 20.6297C3.26329 20.9055 3.42288 21.2831 3.42288 21.4692C3.42288 21.6551 3.53014 21.7824 3.66118 21.7523C3.79221 21.7219 4.03477 21.945 4.2003 22.2479C4.36606 22.5508 4.74039 22.8964 5.03242 23.016C5.32422 23.1356 5.56323 23.4032 5.56323 23.6107C5.56323 23.8185 5.71449 24.0674 5.89928 24.1643C6.08429 24.2612 6.27145 24.6379 6.31544 25.0013C6.37372 25.4826 6.52567 25.6683 6.87454 25.6846C7.5031 25.7142 8.62703 26.2677 9.36284 26.91C9.68674 27.1929 9.97974 27.4023 10.0142 27.3752C10.1902 27.2374 12.3995 28.157 12.8725 28.5652C13.0381 28.7079 13.1734 28.9425 13.1734 29.0864C13.1734 29.2361 13.3691 29.3007 13.6307 29.2372C13.8821 29.1764 14.4198 29.3135 14.8255 29.5421C15.2312 29.7705 15.7173 29.9575 15.9057 29.9575C16.0943 29.9575 16.6443 30.2796 17.1283 30.673C17.612 31.0666 18.2044 31.3576 18.4446 31.32C18.7518 31.2717 18.881 31.3871 18.881 31.7101C18.881 32.0969 18.9804 32.1455 19.5145 32.0213C20.0392 31.8995 20.1224 31.9367 19.9978 32.2374C19.8972 32.4804 19.9714 32.6009 20.2218 32.6009C20.4572 32.6009 20.5457 32.4779 20.4596 32.2704C20.3666 32.0458 20.4725 31.94 20.7909 31.94C21.0485 31.94 21.2592 32.0226 21.2592 32.1235C21.2592 32.2246 21.3928 32.324 21.5564 32.3447C24.1703 32.6749 25.4875 33.141 25.5853 33.7705C25.6514 34.1981 25.6933 34.2111 26.0053 33.9C26.3589 33.5478 26.3708 33.5489 28.4339 34.132C28.9138 34.2677 29.7074 34.4263 30.1975 34.4842C30.6874 34.5424 31.2116 34.6847 31.3621 34.8003C31.5124 34.916 32.2706 35.0757 33.0468 35.1552C33.8297 35.2354 34.9581 35.5466 35.5812 35.8546C36.4835 36.3 36.7732 36.3566 37.0526 36.1418C37.3068 35.9464 37.5282 35.9378 37.8755 36.1101C38.1368 36.2396 38.7159 36.3456 39.1623 36.3456C39.6084 36.3456 40.3055 36.4989 40.7112 36.6863C41.1652 36.8962 42.3797 37.0687 43.8718 37.1352C45.2047 37.1947 46.4799 37.335 46.7058 37.4472C46.9318 37.5591 47.8535 37.6668 48.7542 37.6866C49.6548 37.7064 50.8224 37.8551 51.3487 38.0172C51.875 38.1791 52.9987 38.3296 53.8458 38.3516C54.9241 38.3798 55.5534 38.5124 55.9446 38.7944C56.4299 39.1439 56.5481 39.1554 56.8445 38.8809C57.0927 38.651 57.3432 38.6203 57.7643 38.7686C58.0825 38.8807 58.7477 38.9646 59.2426 38.9552C59.7375 38.9457 60.2493 38.9594 60.3801 38.9856C60.5109 39.012 60.9549 39.0166 61.3668 38.9961C61.7787 38.9757 62.1863 39.0649 62.2726 39.1942C62.359 39.3235 62.6776 39.4294 62.9811 39.4294C63.2843 39.4294 63.6632 39.5752 63.823 39.7537C64.0624 40.0211 64.168 40.0272 64.4251 39.7894C64.8113 39.4314 67.536 39.5206 68.0392 39.9076C68.3089 40.1149 68.4254 40.109 68.5784 39.8794C68.7244 39.6607 69.4407 39.5964 71.4162 39.6246C74.305 39.6658 75.2399 39.872 75.2508 40.4702C75.2577 40.8324 75.2772 40.8308 75.5164 40.4493C75.7255 40.116 75.8149 40.0951 75.9849 40.3392C76.1497 40.576 76.2237 40.5442 76.3286 40.1911C76.4194 39.8858 76.6867 39.7255 77.1609 39.692C77.5453 39.6649 77.8596 39.7303 77.8596 39.8376C77.8596 39.9449 78.1807 39.9977 78.5731 39.9554C78.9655 39.9131 79.2866 39.9684 79.2866 40.0784C79.2866 40.3641 80.0152 40.4729 80.7332 40.2947C81.1953 40.1799 81.4167 40.2449 81.6269 40.5568C81.7808 40.7848 82.0876 40.9714 82.3087 40.9714C82.6217 40.9714 82.6476 40.9125 82.4257 40.707C81.8207 40.1466 82.1501 39.9803 83.8091 40.0081C84.7269 40.0233 85.5335 39.9528 85.6013 39.851C85.7821 39.5801 86.8575 40.0922 86.9771 40.5064C87.0594 40.7923 87.0848 40.7826 87.1069 40.4563C87.1317 40.0949 87.3321 40.0576 88.9776 40.1107C89.9912 40.1433 91.0578 40.2475 91.3474 40.342C91.6576 40.4434 91.9363 40.4207 92.0255 40.2872C92.1087 40.1623 92.3401 40.1182 92.5396 40.1892C92.7392 40.2601 93.0226 40.2317 93.1696 40.1259C93.9408 39.5708 94.9608 39.7664 95.2819 40.5308C95.392 40.7934 95.4243 40.7813 95.4393 40.4722C95.4526 40.1966 95.6486 40.0858 96.1121 40.0924C96.4717 40.0973 97.0303 40.0742 97.3533 40.0407C98.0004 39.9739 98.3566 40.6735 97.8292 40.9753C97.6689 41.0672 97.6111 41.2526 97.701 41.3872C97.9369 41.7408 98.3119 41.6884 98.3119 41.3018C98.3119 41.12 98.4227 40.9714 98.5581 40.9714C98.721 40.9714 98.7138 40.8147 98.5367 40.5081C98.2789 40.0618 98.3131 40.048 99.4798 40.1226C100.388 40.181 100.69 40.1248 100.69 39.8982C100.69 39.6543 100.759 39.6488 101.047 39.87C101.263 40.0363 101.404 40.0539 101.404 39.9147C101.404 39.7803 102.02 39.6841 102.89 39.6825C103.707 39.681 105.571 39.6466 107.031 39.6063C108.491 39.5662 109.636 39.6078 109.575 39.699C109.428 39.9198 110.183 39.655 110.88 39.2411C111.285 39.001 111.546 38.9723 111.831 39.1369C112.05 39.2635 112.435 39.2878 112.7 39.192C113.4 38.9384 115.183 38.9571 116.24 39.2292C116.937 39.4083 117.209 39.4019 117.341 39.2032C117.441 39.053 118.119 38.9261 118.914 38.9089C120.071 38.884 120.402 38.9635 120.845 39.3744C121.511 39.9909 121.969 40.0321 121.569 39.4393C121.233 38.94 121.492 38.5635 121.907 38.9486C122.317 39.3281 122.68 39.2682 122.331 38.8787C122.169 38.697 122.075 38.5433 122.124 38.5371C122.173 38.5311 122.889 38.471 123.716 38.4036C125.064 38.2937 125.283 38.3344 125.83 38.8001L126.441 39.3193L126.284 38.7135C126.113 38.0536 126.098 38.0613 127.742 37.9967C128.298 37.9747 128.753 38.0474 128.753 38.1582C128.753 38.269 128.921 38.2038 129.126 38.0133C129.332 37.8229 129.689 37.6672 129.919 37.6672C130.149 37.6672 130.406 37.6038 130.49 37.5265C130.573 37.4489 131.046 37.3604 131.54 37.3298C133.822 37.1875 135.278 36.9802 135.569 36.7561C135.805 36.5751 135.986 36.5881 136.269 36.8059C136.593 37.0548 136.699 37.0403 136.959 36.711C137.19 36.4189 137.297 36.3936 137.391 36.6092C137.489 36.8343 137.56 36.8377 137.723 36.6249C137.838 36.4757 138.18 36.398 138.484 36.4522C138.788 36.5066 139.635 36.3561 140.367 36.118C141.098 35.8797 141.888 35.7411 142.121 35.8098C142.382 35.8863 142.547 35.8224 142.549 35.6444C142.552 35.4307 142.615 35.4413 142.789 35.6847C142.991 35.9676 143.085 35.9451 143.439 35.5294C143.667 35.2625 144.469 34.8274 145.221 34.5626C145.974 34.2981 146.589 34.0161 146.589 33.9362C146.589 33.8562 146.963 33.8311 147.421 33.8807C148.186 33.9635 148.254 33.9238 148.254 33.3903C148.254 32.9187 148.39 32.7848 148.985 32.6747C149.501 32.5791 149.898 32.2729 150.333 31.6338C150.673 31.1358 150.925 30.6948 150.894 30.6534C150.863 30.612 150.993 30.4633 151.182 30.323C151.372 30.1827 151.593 29.4989 151.675 28.804C151.806 27.6924 151.767 27.507 151.347 27.264C151.084 27.1122 150.87 26.764 150.87 26.4902C150.87 26.2166 150.767 25.9926 150.643 25.9926C150.518 25.9926 150.238 25.6456 150.021 25.2216C149.804 24.7976 149.478 24.4506 149.297 24.4506C149.115 24.4506 148.967 24.3257 148.967 24.1733C148.967 24.0207 148.753 23.772 148.491 23.6206C148.23 23.4693 148.016 23.1596 148.016 22.9325C148.016 22.6968 147.799 22.4671 147.511 22.3972C147.104 22.2988 147.035 22.1646 147.158 21.7106C147.308 21.1599 147.002 20.9264 146.708 21.3668C146.627 21.4879 146.472 21.5871 146.362 21.5871C146.067 21.5871 145.848 20.9242 146.047 20.6311C146.142 20.4905 146.19 20.2022 146.152 19.9901C146.114 19.7781 146.203 19.6046 146.35 19.6046C146.497 19.6046 146.553 19.7008 146.474 19.8185C146.396 19.9361 146.6 20.0945 146.927 20.1707C147.255 20.2469 147.588 20.4976 147.667 20.7278C147.745 20.9582 147.91 21.1465 148.032 21.1465C148.154 21.1465 148.254 21.2672 148.254 21.4148C148.254 21.5624 148.538 21.9098 148.886 22.1866C149.234 22.4633 149.636 22.9127 149.779 23.1847C149.922 23.457 150.384 23.8284 150.806 24.0101C151.228 24.192 151.575 24.5106 151.578 24.7192C151.581 24.9643 151.709 25.0529 151.94 24.9709C152.353 24.8238 152.389 25.0769 152.066 25.8642C151.875 26.3283 151.918 26.4657 152.311 26.6605C152.572 26.79 152.72 26.9942 152.639 27.1147C152.559 27.2349 152.63 27.4858 152.797 27.6722C153.022 27.9242 153.033 28.1099 152.839 28.3982C152.679 28.6352 152.66 28.906 152.79 29.096C153.079 29.5192 153.066 30.6184 152.772 30.6184C152.641 30.6184 152.526 30.8911 152.515 31.2241C152.505 31.5572 152.443 31.7061 152.377 31.5546C152.221 31.1975 151.866 31.1975 151.9 31.5546C151.944 32.0193 151.038 33.482 150.707 33.482C150.535 33.482 150.394 33.6214 150.394 33.7917C150.394 33.9862 150.228 34.0613 149.948 33.9937C149.644 33.9199 149.339 34.0998 148.981 34.5651C148.694 34.9387 148.252 35.2442 148 35.2442C147.747 35.2442 147.54 35.3929 147.54 35.5746C147.54 35.7563 147.38 35.905 147.183 35.905C146.987 35.905 146.827 36.0125 146.827 36.1436C146.827 36.2748 146.693 36.3367 146.529 36.2812C146.366 36.2257 146.258 36.0724 146.289 35.9405C146.32 35.8085 146.186 35.7572 145.991 35.8264C145.797 35.8955 145.638 36.079 145.638 36.2339C145.638 36.5088 144.279 37.2267 143.759 37.2267C143.615 37.2267 143.497 37.3108 143.497 37.4135C143.497 37.5161 143.165 37.6088 142.76 37.6196C142.354 37.6302 141.832 37.7989 141.599 37.9943C141.314 38.2327 140.97 38.3018 140.553 38.2047C140.187 38.1199 139.93 38.1525 139.93 38.2835C139.93 38.4065 139.716 38.4551 139.454 38.3919C138.918 38.2617 138.83 37.9796 139.276 37.813C139.439 37.752 139.332 37.6941 139.038 37.6846C138.729 37.6745 138.503 37.7974 138.503 37.976C138.503 38.3439 137.179 38.8684 136.422 38.8001C136.128 38.7737 135.887 38.8441 135.887 38.9569C135.887 39.2977 135.136 39.4541 134.787 39.186C134.534 38.9915 134.46 39.0116 134.46 39.2748C134.46 39.5316 134.097 39.6448 132.974 39.7382C132.156 39.8063 131.183 39.8512 130.81 39.8385C130.199 39.8173 130.145 39.7541 130.264 39.2014C130.358 38.7699 130.288 38.5496 130.031 38.458C129.475 38.2606 129.402 38.2963 129.563 38.6851C129.677 38.9596 129.6 39.0151 129.232 38.9259C128.621 38.7781 128.616 39.0208 129.222 39.425C129.654 39.7136 129.661 39.7691 129.311 40.1275C129.042 40.4019 128.813 40.4583 128.531 40.3189C128.305 40.2066 127.988 40.2035 127.8 40.3114C127.617 40.416 127.391 40.4581 127.298 40.4046C127.204 40.3511 126.825 40.4152 126.454 40.5471C126.083 40.679 125.245 40.8313 124.591 40.8857C123.937 40.9398 123.201 41.0416 122.956 41.1117C122.665 41.1945 122.566 41.1537 122.672 40.9949C122.916 40.6293 122.434 40.7013 122.094 41.0815C121.676 41.5483 121.38 41.4914 121.38 40.9445C121.38 40.6024 121.3 40.5348 121.083 40.692C120.919 40.8106 120.438 41.0158 120.013 41.1482C119.287 41.3742 119.24 41.3573 119.24 40.8755C119.24 40.5473 119.068 40.3204 118.765 40.2469C118.391 40.1563 118.334 40.2041 118.495 40.4711C118.854 41.0652 117.992 41.6077 116.697 41.6024C116.068 41.5998 115.098 41.6943 114.542 41.8121C113.951 41.9373 113.475 41.9445 113.398 41.8293C113.326 41.721 113.38 41.6322 113.518 41.6322C113.657 41.6322 113.77 41.5549 113.77 41.4601C113.77 41.1881 112.423 40.7894 112.11 40.9687C111.925 41.0749 112.018 41.1802 112.382 41.2751L112.938 41.4196L112.396 41.8412C111.709 42.3765 108.353 42.4551 108.139 41.941C107.969 41.5306 107.587 41.5456 107.587 41.9626C107.587 42.1657 107.364 42.293 107.008 42.293C106.521 42.293 106.433 42.1897 106.45 41.6432C106.464 41.1683 106.598 40.9755 106.948 40.9273C107.366 40.8696 107.382 40.8262 107.068 40.5872C106.764 40.3552 106.621 40.4713 106.137 41.3432L105.565 42.3732L105.431 41.7273C105.356 41.372 105.379 40.8632 105.48 40.5964C105.622 40.2207 105.586 40.1391 105.317 40.2345C105.127 40.3022 104.969 40.4709 104.967 40.6094C104.965 40.7601 104.88 40.7392 104.756 40.5577C104.464 40.1306 103.97 40.4797 104.145 40.9899C104.224 41.222 104.182 41.4119 104.052 41.4119C103.921 41.4119 103.746 41.6102 103.663 41.8525C103.58 42.0948 103.359 42.293 103.171 42.293C102.984 42.293 102.83 42.3921 102.83 42.5133C102.83 42.8069 101.969 42.7937 101.358 42.4906C100.981 42.304 100.82 42.3168 100.663 42.5457C100.505 42.7772 100.459 42.7578 100.456 42.4582C100.452 41.9987 99.8078 41.9522 99.282 42.3734C99.0753 42.5386 98.505 42.7307 98.0146 42.8001C97.319 42.8983 97.1228 42.8532 97.1228 42.5948C97.1228 42.2624 96.5449 42.3212 95.7085 42.7382C95.5192 42.8327 95.1216 42.8245 94.825 42.7199C94.5014 42.606 94.2293 42.6148 94.1444 42.7419C93.937 43.0527 92.4231 43.0005 92.3061 42.6785C92.2338 42.4798 92.1127 42.4679 91.8702 42.6358C91.6854 42.764 90.9194 42.8935 90.1679 42.9239C88.9595 42.9726 88.735 42.9124 88.2244 42.402L87.647 41.8251L87.5692 42.3344C87.496 42.8129 87.3975 42.8408 85.9454 42.7959C85.0952 42.7697 84.2926 42.738 84.1618 42.7252C84.031 42.7126 82.4628 42.7708 80.6768 42.854C77.6304 42.9963 77.4225 42.9805 77.3155 42.5943C77.2147 42.2311 77.198 42.228 77.1738 42.5684C77.1493 42.9122 76.8841 43.0514 76.3835 42.9831C76.0216 42.9336 69.1415 42.6864 68.5253 42.7007C68.1657 42.7091 67.8713 42.6232 67.8713 42.5098C67.8713 42.3851 67.6525 42.3809 67.3165 42.4994C67.0111 42.6069 66.6195 42.6135 66.4459 42.5142C66.2708 42.4139 65.9521 42.4364 65.7307 42.5646C65.4822 42.7082 64.9795 42.7283 64.4013 42.6175C63.89 42.5195 63.3744 42.4611 63.2558 42.4877C63.1369 42.5146 62.9633 42.4219 62.8698 42.282C62.7416 42.0897 62.5744 42.0895 62.1892 42.2805C61.9081 42.4197 61.5808 42.4778 61.4619 42.4098C61.3428 42.3417 60.5753 42.2375 59.7561 42.1787C58.937 42.1197 58.1976 41.9677 58.113 41.8408C58.0283 41.7139 57.7548 41.6137 57.5049 41.6183C56.8792 41.6295 56.1783 41.6284 55.6832 41.6157C55.4544 41.6097 55.267 41.4623 55.267 41.2881C55.267 41.1139 55.1065 40.9714 54.9103 40.9714C54.7141 40.9714 54.5536 41.0705 54.5536 41.1916C54.5536 41.3128 54.3997 41.4119 54.2118 41.4119C53.9685 41.4119 53.8736 41.1544 53.8832 40.5202C53.8905 40.0297 53.8304 39.5671 53.7495 39.4922C53.6684 39.4173 53.6023 39.6156 53.6023 39.933C53.6023 40.5775 53.1478 41.6322 52.8701 41.6322C52.4246 41.6322 51.9376 41.339 51.9376 41.0709C51.9376 40.5749 51.4072 40.4414 51.0805 40.8553C50.714 41.3194 49.9147 41.1392 50.1218 40.6392C50.2013 40.4471 50.1235 40.3105 49.9342 40.3105C49.7561 40.3105 49.5487 40.4592 49.4733 40.6409C49.3982 40.8227 49.0923 40.9599 48.7939 40.9458C48.3913 40.9269 48.3587 40.8943 48.6676 40.8196C49.1508 40.7026 49.2317 40.3105 48.7725 40.3105C48.6012 40.3105 48.2538 40.4511 48.0003 40.6227C47.6749 40.8432 47.4516 40.8676 47.2414 40.7059C47.0316 40.5447 46.9434 40.553 46.9434 40.7341C46.9434 40.9048 46.6837 40.9462 46.1705 40.8575C45.345 40.7145 45.0651 40.6705 42.6627 40.3057C41.8125 40.1764 40.9029 39.9797 40.6413 39.868C40.3797 39.7565 39.8981 39.6757 39.5711 39.6885C38.7211 39.7219 37.114 39.4281 36.8481 39.1906C36.7239 39.0796 36.4193 38.9889 36.1713 38.9889C35.9235 38.9889 35.4364 38.8038 35.0892 38.5774C34.6592 38.2972 34.3063 38.2221 33.9824 38.3417C33.2302 38.6195 32.9153 38.577 33.0639 38.2179C33.1507 38.0086 33.0608 37.8875 32.8187 37.8875C32.6085 37.8875 32.4366 37.9866 32.4366 38.1078C32.4366 38.2289 32.276 38.328 32.0798 38.328C31.6584 38.328 31.6544 38.3038 31.955 37.5714C32.1058 37.2042 32.1058 37.0064 31.955 37.0064C31.8275 37.0064 31.7231 37.1551 31.7231 37.3368C31.7231 37.5185 31.5181 37.6672 31.2672 37.6672C31.0166 37.6672 30.7759 37.7632 30.7321 37.8807C30.6858 38.0058 30.1994 37.943 29.5585 37.7291C28.7304 37.4527 28.3977 37.2009 28.1915 36.6949L27.919 36.0262L27.5568 36.5048C27.2122 36.9606 27.148 36.9683 26.2231 36.6661C25.6887 36.4914 25.1713 36.3945 25.0733 36.4506C24.9753 36.5066 24.9432 36.3193 25.0022 36.0343C25.107 35.5252 24.577 34.9464 24.4157 35.3942C24.3705 35.5197 24.1948 35.7982 24.025 36.0132C23.7527 36.3581 23.6071 36.3724 22.7852 36.1352C22.2727 35.9874 21.3999 35.677 20.8456 35.4453C20.291 35.2136 19.6736 35.0239 19.4734 35.0239C19.2732 35.0239 18.6855 34.7761 18.1675 34.4732C17.6496 34.1703 17.0707 33.9225 16.8812 33.9225C16.6919 33.9225 16.3953 33.7985 16.2224 33.6472C16.0498 33.4958 15.5489 33.3452 15.1099 33.3128C14.6707 33.2802 14.0852 33.1068 13.8083 32.9273C13.5318 32.7478 13.1151 32.6009 12.8825 32.6009C12.6502 32.6009 12.4599 32.4522 12.4599 32.2704C12.4599 32.0852 12.2478 31.94 11.9769 31.94C11.711 31.94 11.4321 31.7913 11.3569 31.6096C11.2815 31.4279 10.9612 31.2792 10.6449 31.2792C10.2504 31.2792 9.99899 31.1063 9.84393 30.7285C9.62277 30.1897 9.13049 29.9617 9.13049 30.3981C9.13049 30.7239 8.67174 30.6655 8.26411 30.288C8.06792 30.1062 7.72643 29.9575 7.50525 29.9575C7.28384 29.9575 6.99727 29.7426 6.86813 29.48C6.739 29.2172 6.42009 28.8952 6.15944 28.7641C5.89879 28.633 5.44908 28.3028 5.16013 28.0301C4.87119 27.7577 4.54941 27.5303 4.44501 27.5253C4.34061 27.52 3.98769 27.2045 3.66069 26.8239C3.33369 26.4433 2.77103 25.8721 2.41025 25.5549C1.53555 24.785 0.14505 22.1994 0.811172 22.5807C1.29227 22.8563 1.12341 21.815 0.509842 20.7238C0.140762 20.0672 -0.0773163 19.4724 0.0254211 19.4021C0.128387 19.3316 0.212585 18.5884 0.21283 17.7505C0.213303 16.7291 0.311279 16.1965 0.510101 16.135C0.673477 16.0846 0.806885 15.9136 0.806885 15.755C0.806885 15.5962 0.957428 15.4129 1.14127 15.3477C1.32509 15.2823 1.54721 14.9259 1.63519 14.5556C1.72295 14.1853 1.89348 13.8258 2.0143 13.7567C2.1351 13.6877 2.23759 13.4139 2.24236 13.1485C2.24712 12.8831 2.48778 12.4141 2.77744 12.1064C3.49826 11.34 5.0876 10.2779 5.0876 10.562C5.0876 10.6893 5.24812 10.7935 5.44432 10.7935C5.64052 10.7935 5.80104 10.7103 5.80104 10.6087C5.80104 10.5069 6.06859 10.3107 6.39558 10.1728C6.7226 10.0347 6.99275 9.74634 6.99608 9.53157C7.00203 9.13287 8.35355 8.37049 9.05463 8.37049C9.26367 8.37049 9.5871 8.19691 9.7733 7.98501C10.0059 7.72002 10.1488 7.68125 10.2304 7.86121C10.311 8.03831 10.5046 7.97884 10.8306 7.67684C11.165 7.36713 11.4875 7.27175 11.8861 7.36427C12.2078 7.43916 12.4599 7.4004 12.4599 7.27616C12.4599 6.91667 14.1656 6.02808 15.1948 5.85119C15.718 5.76132 16.2557 5.60382 16.3899 5.50139C16.8824 5.12472 19.3666 4.47535 21.1029 4.26961C21.6466 4.20529 22.4392 4.06872 22.8644 3.96629C23.3879 3.84029 23.6373 3.85792 23.6373 4.02114C23.6373 4.15353 23.8782 4.05594 24.1724 3.80395C24.5082 3.51649 25.1503 3.30546 25.8966 3.23696C26.5506 3.17682 27.6208 3.01668 28.2748 2.88077C28.9288 2.74508 30.0836 2.59529 30.8413 2.54771C31.599 2.50035 32.3481 2.36621 32.506 2.24968C32.6639 2.13315 33.5424 2.02874 34.458 2.01751C36.0985 1.99746 36.4885 1.95231 37.1929 1.70185C37.8331 1.47431 40.0467 1.38135 40.0467 1.58202C40.0467 1.68974 40.2443 1.67983 40.486 1.56C40.788 1.41021 41.0106 1.42144 41.1994 1.59634C41.4066 1.7882 41.4736 1.7752 41.4736 1.54391C41.4736 1.32078 41.555 1.3406 41.773 1.61661C42.1107 2.04438 43.0679 2.00363 43.3716 1.54876C43.5017 1.35382 43.8135 1.30359 44.3151 1.39655C44.8247 1.49083 45.0135 1.45889 44.9051 1.29632C44.8052 1.14654 44.9491 1.15821 45.2906 1.3276C45.7417 1.55118 45.882 1.53885 46.1051 1.25645C46.3467 0.950271 46.4024 0.953135 46.645 1.28355C46.8956 1.6252 46.9165 1.62388 46.9294 1.26659C46.9372 1.05468 46.9703 0.872073 47.0029 0.861059C47.0355 0.850266 48.1258 0.7974 49.4255 0.743873C50.7254 0.690125 51.9197 0.545624 52.0798 0.42271C52.2791 0.269398 52.4237 0.277988 52.5381 0.449584C52.6472 0.613028 53.0063 0.644748 53.5702 0.540558C55.0428 0.268296 55.9805 0.290544 55.9805 0.597829C55.9805 0.753565 56.0875 0.881104 56.2183 0.881104C56.3491 0.881104 56.4292 0.769645 56.3967 0.633294C56.3638 0.496943 56.6047 0.358609 56.9317 0.325788C57.2587 0.292967 57.767 0.194724 58.0614 0.107274C58.4664 -0.0127761 58.5965 0.035244 58.5965 0.304642C58.5965 0.500687 58.4716 0.660828 58.3189 0.660828C58.1665 0.660828 58.1215 0.735061 58.2195 0.825595C58.3175 0.916348 58.5322 0.820088 58.6966 0.611707C59.103 0.0967013 60.2112 0.060576 61.1803 0.530645C61.8106 0.836168 62.0379 0.861059 62.2505 0.647171C62.4543 0.442535 62.4477 0.414119 62.2232 0.531306C62.0408 0.626686 61.9259 0.554215 61.9259 0.34341C61.9259 0.154634 62.0626 0 62.2296 0C62.5994 0 63.6001 0.600032 64.0068 1.06548C64.2653 1.36153 64.3041 1.34104 64.3041 0.908419C64.3041 0.511041 64.3999 0.43901 64.7797 0.55069C65.1186 0.650255 65.2553 0.59034 65.2553 0.341868C65.2553 0.0865685 65.4627 0.00418516 66.0282 0.0345833C66.4535 0.0577122 66.9743 0.154854 67.1862 0.250674C67.3978 0.346494 67.6359 0.364997 67.7151 0.291645C67.7943 0.218073 68.8409 0.129742 70.0407 0.0951591C71.6904 0.0477997 72.358 0.114764 72.7792 0.370504C73.2467 0.65422 73.3566 0.659286 73.4631 0.402224C73.5965 0.0804008 74.4705 0.0240099 74.9623 0.305523C75.1214 0.396497 75.2006 0.547166 75.1385 0.640122C75.0765 0.733079 75.1718 1.0027 75.3504 1.23883C75.6277 1.60537 76.419 1.74062 77.1462 1.5459C77.3472 1.49215 76.0898 1.02957 75.8684 1.07605C75.7543 1.09984 75.7276 0.958641 75.809 0.761935C75.8905 0.565449 75.9571 0.312792 75.9571 0.200892C75.9571 0.0826037 76.7303 0.0513243 77.8002 0.126218C79.9741 0.278209 79.9353 0.278649 80.7729 0.093397C81.2733 -0.0174019 81.4269 0.0292966 81.4269 0.291645C81.4269 0.595626 81.5013 0.598711 82.0809 0.31874C82.9763 -0.113883 84.7559 -0.0859077 85.4615 0.371826C85.8679 0.635496 86.062 0.667436 86.1288 0.481964C86.267 0.0980228 87.5005 0.163004 87.8682 0.573379C88.1559 0.894541 88.2185 0.887713 88.5595 0.497604C88.8782 0.133047 88.9807 0.114764 89.2442 0.376011ZM86.1833 0.991242C86.1833 1.17297 86.2903 1.33399 86.4211 1.34919C86.5519 1.36439 86.7697 1.38906 86.9053 1.40426C87.0411 1.41946 87.2534 1.58048 87.3773 1.76221C87.6972 2.23074 87.6855 1.64326 87.364 1.08684C87.0741 0.585053 86.1833 0.513023 86.1833 0.991242ZM98.7876 1.4188C98.7876 1.47233 98.8946 1.57718 99.0254 1.65207C99.1562 1.72696 99.2632 1.68313 99.2632 1.55493C99.2632 1.42673 99.1562 1.32166 99.0254 1.32166C98.8946 1.32166 98.7876 1.36527 98.7876 1.4188ZM105.793 2.62767C106.026 2.97813 106.403 2.69266 106.237 2.29109C106.145 2.07015 106.016 2.02786 105.864 2.16884C105.735 2.28757 105.704 2.49397 105.793 2.62767ZM47.6569 2.3129C47.6569 2.49463 47.8141 2.64331 48.0062 2.64331C48.2188 2.64331 48.3018 2.51423 48.2186 2.3129C48.1432 2.13117 47.986 1.98248 47.8692 1.98248C47.7525 1.98248 47.6569 2.13117 47.6569 2.3129ZM45.1769 2.14769C45.2951 2.23867 45.472 2.41202 45.5695 2.53317C45.6709 2.65895 45.7486 2.58802 45.7508 2.36797C45.7527 2.15364 45.5784 1.98248 45.3579 1.98248C45.1401 1.98248 45.0585 2.05672 45.1769 2.14769ZM106.873 2.64331C106.873 2.76446 106.98 2.86359 107.111 2.86359C107.242 2.86359 107.349 2.76446 107.349 2.64331C107.349 2.52216 107.242 2.42304 107.111 2.42304C106.98 2.42304 106.873 2.52216 106.873 2.64331ZM99.3276 2.55608C99.4066 2.62922 99.6118 2.63715 99.7833 2.57349C99.9731 2.50322 99.9167 2.45101 99.6397 2.44044C99.389 2.43097 99.2487 2.48295 99.3276 2.55608ZM41.4736 2.88033C41.4736 2.98452 41.6342 3.01294 41.8304 2.94333C42.0266 2.8735 42.1871 2.73098 42.1871 2.62657C42.1871 2.52238 42.0266 2.49397 41.8304 2.56357C41.6342 2.6334 41.4736 2.77592 41.4736 2.88033ZM36.4795 2.64331C36.4795 2.76446 36.6669 2.86205 36.8956 2.86029C37.2514 2.85742 37.26 2.8257 36.9551 2.64331C36.5063 2.37458 36.4795 2.37458 36.4795 2.64331ZM111.273 3.08387C111.192 3.20502 111.239 3.30414 111.378 3.30414C111.516 3.30414 111.63 3.20502 111.63 3.08387C111.63 2.96271 111.583 2.86359 111.525 2.86359C111.467 2.86359 111.354 2.96271 111.273 3.08387ZM49.0838 3.08387C49.0838 3.20502 49.1972 3.30414 49.3356 3.30414C49.474 3.30414 49.5214 3.20502 49.4405 3.08387C49.3596 2.96271 49.2464 2.86359 49.1887 2.86359C49.1309 2.86359 49.0838 2.96271 49.0838 3.08387ZM43.149 3.62244C42.9329 3.86386 42.9234 3.96497 43.1167 3.96497C43.2677 3.96497 43.4527 3.81628 43.5279 3.63456C43.6033 3.45283 43.814 3.30414 43.9961 3.30414C44.1783 3.30414 44.3274 3.20149 44.3274 3.07616C44.3274 2.7909 43.5864 3.13431 43.149 3.62244ZM46.2944 3.21691C46.3734 3.29004 46.5786 3.29797 46.7501 3.23431C46.9399 3.16405 46.8835 3.11184 46.6064 3.10127C46.3558 3.09179 46.2155 3.14378 46.2944 3.21691ZM115.99 3.89162C116.299 4.17842 116.142 4.6258 115.732 4.62249C115.403 4.61985 115.384 4.57888 115.644 4.42667C115.824 4.32094 115.898 4.12423 115.808 3.98964C115.628 3.72024 115.74 3.66011 115.99 3.89162ZM37.4952 4.53857C37.5741 4.6117 37.7794 4.61963 37.9508 4.55597C38.1406 4.4857 38.0843 4.4335 37.8072 4.42292C37.5565 4.41345 37.4162 4.46544 37.4952 4.53857ZM36.7173 4.84607C36.7173 4.96723 36.8243 5.06635 36.9551 5.06635C37.0859 5.06635 37.1929 4.96723 37.1929 4.84607C37.1929 4.72492 37.0859 4.6258 36.9551 4.6258C36.8243 4.6258 36.7173 4.72492 36.7173 4.84607ZM34.1013 4.95621C34.1013 5.13794 34.2083 5.28663 34.3391 5.28663C34.4699 5.28663 34.5769 5.13794 34.5769 4.95621C34.5769 4.77448 34.4699 4.6258 34.3391 4.6258C34.2083 4.6258 34.1013 4.77448 34.1013 4.95621ZM27.4424 5.40976C27.4424 5.59854 27.5494 5.69193 27.6802 5.61704C27.811 5.54215 27.918 5.38773 27.918 5.27363C27.918 5.15953 27.811 5.06635 27.6802 5.06635C27.5494 5.06635 27.4424 5.22098 27.4424 5.40976ZM18.6432 7.37925C18.6432 7.56098 18.8037 7.70966 18.9999 7.70966C19.1961 7.70966 19.3566 7.56098 19.3566 7.37925C19.3566 7.19752 19.1961 7.04883 18.9999 7.04883C18.8037 7.04883 18.6432 7.19752 18.6432 7.37925ZM10.4 9.30666C10.4658 9.45821 10.5198 9.3342 10.5198 9.03132C10.5198 8.72844 10.4658 8.60464 10.4 8.75597C10.3338 8.90752 10.3338 9.15534 10.4 9.30666ZM122.45 11.8949C122.531 12.0161 122.484 12.1152 122.345 12.1152C122.207 12.1152 122.094 12.0161 122.094 11.8949C122.094 11.7738 122.141 11.6746 122.199 11.6746C122.256 11.6746 122.37 11.7738 122.45 11.8949ZM125.623 12.776C125.623 13.0789 125.569 13.2029 125.503 13.0514C125.437 12.9 125.437 12.6522 125.503 12.5007C125.569 12.3493 125.623 12.4731 125.623 12.776ZM130.611 13.0434C130.981 13.3866 130.972 13.7206 130.596 13.5941C130.432 13.5393 130.118 13.6397 129.897 13.8175C129.676 13.9955 129.382 14.0756 129.243 13.9961C128.904 13.8021 128.921 13.4368 129.269 13.4368C129.422 13.4368 129.723 13.2895 129.938 13.1095C130.239 12.8569 130.393 12.8419 130.611 13.0434ZM133.809 14.0091C133.888 14.0816 133.894 14.2792 133.824 14.4486C133.722 14.6955 133.907 14.7296 134.76 14.6213C135.438 14.5354 135.884 14.5759 135.989 14.7325C136.079 14.868 136.039 14.9788 135.901 14.9788C135.763 14.9788 135.649 15.2142 135.649 15.5019C135.649 15.9132 135.522 16.0251 135.055 16.0251C134.636 16.0251 134.46 15.9053 134.46 15.6198C134.46 15.1737 133.798 14.7616 133.33 14.9169C133.131 14.983 133.086 14.888 133.192 14.6307C133.301 14.3682 133.263 14.2964 133.074 14.405C132.92 14.4926 132.795 14.4699 132.795 14.3545C132.795 14.2391 132.965 14.0847 133.172 14.0111C133.633 13.847 133.635 13.847 133.809 14.0091ZM132.32 14.4812C132.32 14.8874 131.88 15.0219 131.43 14.7539C131.093 14.553 131.087 14.5261 131.399 14.6144C131.612 14.6748 131.906 14.6129 132.053 14.477C132.25 14.2944 132.32 14.2955 132.32 14.4812ZM137.433 15.199C137.514 15.3202 137.466 15.4193 137.328 15.4193C137.19 15.4193 137.076 15.5599 137.076 15.7315C137.076 16.1837 136.527 16.2857 136.213 15.8916C136.011 15.6372 136.021 15.4836 136.256 15.2667C136.625 14.9248 137.227 14.8902 137.433 15.199ZM139.038 15.7914C139.267 15.8469 139.454 16.0711 139.454 16.2896C139.454 16.5082 139.635 16.8231 139.855 16.9895C140.205 17.2525 140.238 17.2441 140.108 16.9245C140.02 16.7057 140.098 16.5082 140.302 16.4357C140.49 16.3689 140.643 16.4103 140.643 16.5275C140.643 16.6449 140.804 16.741 141 16.741C141.196 16.741 141.357 16.837 141.357 16.9544C141.357 17.0716 141.506 17.1146 141.69 17.0494C142.221 16.8606 142.287 17.2536 141.802 17.7157C141.409 18.0897 141.357 18.0963 141.357 17.7708C141.357 17.5679 141.196 17.4018 141 17.4018C140.804 17.4018 140.643 17.5573 140.643 17.7476C140.643 18.3261 139.617 18.034 139.428 17.4018C139.325 17.0553 139.255 16.9941 139.24 17.2366C139.214 17.667 138.854 17.7503 138.609 17.3826C138.521 17.2509 138.249 17.1917 138.005 17.2509C137.641 17.3388 137.601 17.2873 137.785 16.9685C137.909 16.7542 137.946 16.5185 137.866 16.4449C137.708 16.2982 138.232 15.624 138.473 15.6652C138.555 15.6793 138.809 15.7361 139.038 15.7914ZM137.552 16.5207C137.857 16.7031 137.848 16.7348 137.492 16.7377C137.263 16.7394 137.076 16.6419 137.076 16.5207C137.076 16.252 137.103 16.252 137.552 16.5207ZM143.782 18.1664C145.006 18.8979 145.134 19.0856 144.508 19.2281C144.279 19.2801 144.439 19.2825 144.865 19.2334C145.665 19.1409 145.929 19.4539 145.254 19.6938C145.01 19.7804 144.915 19.9903 144.994 20.268C145.062 20.5088 145.02 20.706 144.902 20.706C144.783 20.706 144.686 20.5077 144.686 20.2654C144.686 19.7852 144.511 19.7253 143.994 20.0284C143.604 20.2568 142.784 19.8634 142.784 19.4484C142.784 19.2902 142.611 19.2294 142.368 19.3019C142.032 19.4019 142.017 19.3825 142.293 19.2017C142.571 19.0186 142.578 18.9151 142.332 18.6395C142.086 18.3655 142.089 18.2261 142.347 17.9005C142.649 17.519 142.72 17.532 143.782 18.1664ZM148.61 22.9087C148.528 23.0316 148.706 23.1274 149.012 23.1257C149.454 23.1228 149.492 23.0805 149.205 22.9087C148.762 22.6439 148.787 22.6439 148.61 22.9087ZM9.72504 28.6359C9.64417 28.757 9.75119 28.8562 9.96284 28.8562C10.1745 28.8562 10.2815 28.757 10.2007 28.6359C10.1198 28.5147 10.0128 28.4156 9.96284 28.4156C9.9129 28.4156 9.80589 28.5147 9.72504 28.6359ZM13.8048 30.9583C13.8823 31.1453 13.9967 31.251 14.059 31.1933C14.1213 31.1356 14.1018 30.9825 14.0155 30.8534C13.781 30.5019 13.644 30.5701 13.8048 30.9583ZM14.5182 32.2799C14.5958 32.4669 14.7102 32.5727 14.7725 32.515C14.8348 32.4572 14.8153 32.3041 14.7289 32.1751C14.4945 31.8235 14.3575 31.8918 14.5182 32.2799ZM20.0701 33.0414C20.0701 33.1626 20.1835 33.2617 20.3219 33.2617C20.4603 33.2617 20.5077 33.1626 20.4268 33.0414C20.3459 32.9203 20.2327 32.8211 20.1749 32.8211C20.1172 32.8211 20.0701 32.9203 20.0701 33.0414ZM19.2377 33.0414C19.1569 33.1626 19.2577 33.2617 19.4615 33.2617C19.6653 33.2617 19.8323 33.1626 19.8323 33.0414C19.8323 32.9203 19.7317 32.8211 19.6085 32.8211C19.4853 32.8211 19.3186 32.9203 19.2377 33.0414ZM35.0526 37.4469C35.0526 37.5681 35.1596 37.6672 35.2904 37.6672C35.4212 37.6672 35.5282 37.5681 35.5282 37.4469C35.5282 37.3258 35.4212 37.2267 35.2904 37.2267C35.1596 37.2267 35.0526 37.3258 35.0526 37.4469ZM127.008 39.4512C126.899 39.5268 126.98 39.6486 127.187 39.7222C127.458 39.8186 127.563 39.7244 127.563 39.3858C127.563 39.1272 127.483 39.0052 127.385 39.1149C127.287 39.2243 127.118 39.3759 127.008 39.4512ZM122.872 39.7827C122.95 39.8559 123.156 39.8638 123.327 39.8001C123.517 39.7299 123.461 39.6777 123.184 39.6671C122.933 39.6576 122.793 39.7096 122.872 39.7827ZM64.5419 40.6409C64.5419 40.8308 64.7564 40.9714 65.0465 40.9714C65.4684 40.9714 65.5027 40.9169 65.2553 40.6409C65.0924 40.4592 64.8653 40.3105 64.7507 40.3105C64.6358 40.3105 64.5419 40.4592 64.5419 40.6409ZM90.5829 40.7511C90.502 40.8722 90.609 40.9714 90.8207 40.9714C91.0323 40.9714 91.1394 40.8722 91.0585 40.7511C90.9776 40.6299 90.8706 40.5308 90.8207 40.5308C90.7707 40.5308 90.6637 40.6299 90.5829 40.7511ZM99.9766 40.8343C99.9766 40.8799 100.137 41.0407 100.333 41.1916C100.626 41.4163 100.69 41.4011 100.69 41.1084C100.69 40.9119 100.53 40.7511 100.333 40.7511C100.137 40.7511 99.9766 40.7885 99.9766 40.8343ZM84.2807 40.8482C84.2807 40.9017 84.3877 41.0066 84.5185 41.0815C84.6493 41.1564 84.7563 41.1125 84.7563 40.9843C84.7563 40.8561 84.6493 40.7511 84.5185 40.7511C84.3877 40.7511 84.2807 40.7947 84.2807 40.8482ZM94.8438 41.4119C94.6583 41.4119 94.5068 41.6102 94.5068 41.8525C94.5068 42.0948 94.568 42.293 94.6426 42.293C94.9159 42.293 95.3406 41.7309 95.3918 41.3018C95.4205 41.0595 95.3849 40.9852 95.3126 41.1366C95.24 41.2881 95.0291 41.4119 94.8438 41.4119ZM104.733 41.8525C104.733 42.1364 104.613 42.2926 104.436 42.2379C104.272 42.1875 104.138 42.0139 104.138 41.8525C104.138 41.691 104.272 41.5174 104.436 41.467C104.613 41.4123 104.733 41.5685 104.733 41.8525ZM89.5881 41.8939C89.6639 42.0694 89.7203 42.0172 89.7317 41.7606C89.7419 41.5284 89.6858 41.3985 89.6069 41.4716C89.5279 41.5447 89.5193 41.7348 89.5881 41.8939ZM88.9181 42.5133C88.8373 42.6344 88.9381 42.7336 89.1419 42.7336C89.3457 42.7336 89.5127 42.6344 89.5127 42.5133C89.5127 42.3921 89.4121 42.293 89.2889 42.293C89.1657 42.293 88.999 42.3921 88.9181 42.5133Z" fill="#E84342"/>
</svg>
