<svg width="79" height="70" viewBox="0 0 79 70" fill="none" xmlns="http://www.w3.org/2000/svg">
<g clip-path="url(#clip0_342_739)">
<path d="M36.4183 15.5824C37.1434 14.7483 38.1055 14.1549 39.1763 13.8813C40.2472 13.6077 41.376 13.6669 42.4123 14.051L68.5038 23.7501C69.3278 24.0564 70.0653 24.558 70.6531 25.2118C71.2409 25.8656 71.6614 26.6521 71.8786 27.504C72.0958 28.3559 72.1032 29.2478 71.9002 30.1032C71.6972 30.9586 71.2899 31.752 70.7131 32.4155L51.6553 54.3405C50.9298 55.175 49.9673 55.7685 48.8959 56.0419C47.8245 56.3154 46.6953 56.2557 45.6587 55.871L19.5672 46.1719C18.7432 45.8655 18.0057 45.364 17.4179 44.7102C16.8301 44.0564 16.4096 43.2699 16.1924 42.418C15.9752 41.566 15.9678 40.6742 16.1708 39.8188C16.3738 38.9634 16.7811 38.1699 17.3579 37.5064L36.4183 15.5824Z" fill="#E84342"/>
</g>
<path d="M15.8924 15.994C16.3574 14.7765 17.1881 13.7275 18.2739 12.9866C19.3596 12.2457 20.6489 11.8481 21.9699 11.8468H55.2402C56.291 11.8468 57.3261 12.0976 58.2569 12.5778C59.1876 13.058 59.9863 13.7532 60.5844 14.6039C61.1825 15.4545 61.5623 16.4353 61.6911 17.4621C61.82 18.4889 61.6941 19.5312 61.3242 20.4996L49.1042 52.4996C48.639 53.7176 47.8078 54.767 46.7214 55.5079C45.635 56.2489 44.345 56.6461 43.0234 56.6468H9.75318C8.70238 56.6468 7.66725 56.396 6.73648 55.9158C5.80571 55.4356 5.00705 54.7404 4.40893 53.8897C3.8108 53.0391 3.43106 52.0583 3.30222 51.0315C3.17338 50.0047 3.2993 48.9624 3.66918 47.994L15.8924 15.994Z" fill="white"/>
<defs>
<clipPath id="clip0_342_739">
<rect width="54.3829" height="54.3829" fill="white" transform="translate(28.0251) rotate(20.3919)"/>
</clipPath>
</defs>
</svg>
