<svg width="22" height="20" viewBox="0 0 22 20" fill="none" xmlns="http://www.w3.org/2000/svg">
<path d="M18.5834 4.58333H17.5001V3.5C17.5001 2.63805 17.1577 1.8114 16.5482 1.2019C15.9387 0.59241 15.112 0.25 14.2501 0.25H3.41675C2.55479 0.25 1.72814 0.59241 1.11865 1.2019C0.509158 1.8114 0.166748 2.63805 0.166748 3.5V16.5C0.166748 17.362 0.509158 18.1886 1.11865 18.7981C1.72814 19.4076 2.55479 19.75 3.41675 19.75H18.5834C19.4454 19.75 20.272 19.4076 20.8815 18.7981C21.491 18.1886 21.8334 17.362 21.8334 16.5V7.83333C21.8334 6.97138 21.491 6.14473 20.8815 5.53524C20.272 4.92574 19.4454 4.58333 18.5834 4.58333ZM3.41675 2.41667H14.2501C14.5374 2.41667 14.8129 2.5308 15.0161 2.73397C15.2193 2.93713 15.3334 3.21268 15.3334 3.5V4.58333H3.41675C3.12943 4.58333 2.85388 4.4692 2.65072 4.26603C2.44755 4.06287 2.33341 3.78732 2.33341 3.5C2.33341 3.21268 2.44755 2.93713 2.65072 2.73397C2.85388 2.5308 3.12943 2.41667 3.41675 2.41667ZM19.6667 13.25H18.5834C18.2961 13.25 18.0205 13.1359 17.8174 12.9327C17.6142 12.7295 17.5001 12.454 17.5001 12.1667C17.5001 11.8793 17.6142 11.6038 17.8174 11.4006C18.0205 11.1975 18.2961 11.0833 18.5834 11.0833H19.6667V13.25ZM19.6667 8.91667H18.5834C17.7215 8.91667 16.8948 9.25908 16.2853 9.86857C15.6758 10.4781 15.3334 11.3047 15.3334 12.1667C15.3334 13.0286 15.6758 13.8553 16.2853 14.4648C16.8948 15.0743 17.7215 15.4167 18.5834 15.4167H19.6667V16.5C19.6667 16.7873 19.5526 17.0629 19.3494 17.266C19.1463 17.4692 18.8707 17.5833 18.5834 17.5833H3.41675C3.12943 17.5833 2.85388 17.4692 2.65072 17.266C2.44755 17.0629 2.33341 16.7873 2.33341 16.5V6.56583C2.68145 6.68827 3.0478 6.75055 3.41675 6.75H18.5834C18.8707 6.75 19.1463 6.86414 19.3494 7.0673C19.5526 7.27047 19.6667 7.54602 19.6667 7.83333V8.91667Z" fill="#6AFD96"/>
</svg>
