<svg width="51" height="59" viewBox="0 0 51 59" fill="none" xmlns="http://www.w3.org/2000/svg">
<path d="M25.5 0.1875L0.375 8.5625V33.6875C0.375 47.5651 11.6224 58.8125 25.5 58.8125C39.3776 58.8125 50.625 47.5651 50.625 33.6875V8.5625L25.5 0.1875ZM45.9141 33.6875C45.9141 44.961 36.7735 54.1016 25.5 54.1016C14.2265 54.1016 5.08594 44.961 5.08594 33.6875V12.0957L25.5 4.89844L45.9141 12.0957V33.6875Z" fill="#E84342"/>
<path d="M15.3973 25.8597C15.179 25.6404 14.9195 25.4664 14.6338 25.3476C14.348 25.2289 14.0416 25.1677 13.7322 25.1677C13.4227 25.1677 13.1163 25.2289 12.8305 25.3476C12.5448 25.4664 12.2853 25.6404 12.067 25.8597C11.8477 26.078 11.6736 26.3375 11.5549 26.6233C11.4361 26.909 11.375 27.2154 11.375 27.5249C11.375 27.8343 11.4361 28.1407 11.5549 28.4265C11.6736 28.7123 11.8477 28.9717 12.067 29.1901L20.5336 37.6567L20.671 37.7941C20.8775 38.001 21.1228 38.1651 21.3928 38.2771C21.6628 38.3891 21.9522 38.4467 22.2446 38.4467C22.5369 38.4467 22.8263 38.3891 23.0963 38.2771C23.3664 38.1651 23.6116 38.001 23.8181 37.7941L38.4417 23.1705C38.6486 22.964 38.8127 22.7187 38.9247 22.4487C39.0367 22.1787 39.0943 21.8893 39.0943 21.597C39.0943 21.3046 39.0367 21.0152 38.9247 20.7452C38.8127 20.4752 38.6486 20.2299 38.4417 20.0234L38.2585 19.8402C38.052 19.6333 37.8067 19.4691 37.5367 19.3571C37.2667 19.2451 36.9772 19.1875 36.6849 19.1875C36.3926 19.1875 36.1031 19.2451 35.8331 19.3571C35.5631 19.4691 35.3178 19.6333 35.1113 19.8402L22.2413 32.7036L15.3973 25.8597Z" fill="#E84342"/>
</svg>
