<svg width="68" height="67" viewBox="0 0 68 67" fill="none" xmlns="http://www.w3.org/2000/svg">
<path d="M54.9375 8.375H13.0625C11.9519 8.375 10.8868 8.81618 10.1015 9.60149C9.31618 10.3868 8.875 11.4519 8.875 12.5625V54.4375C8.875 55.5481 9.31618 56.6132 10.1015 57.3985C10.8868 58.1838 11.9519 58.625 13.0625 58.625H54.9375C56.0481 58.625 57.1132 58.1838 57.8985 57.3985C58.6838 56.6132 59.125 55.5481 59.125 54.4375V12.5625C59.125 11.4519 58.6838 10.3868 57.8985 9.60149C57.1132 8.81618 56.0481 8.375 54.9375 8.375Z" stroke="#E84342" stroke-width="4" stroke-linejoin="round"/>
<path d="M19.26 41.6447L27.1562 33.7485L33.2811 39.858L47.9583 25.125" stroke="#E84342" stroke-width="4" stroke-linecap="round" stroke-linejoin="round"/>
<path d="M36.7917 25.125H47.9583V36.2917" stroke="#E84342" stroke-width="4" stroke-linecap="round" stroke-linejoin="round"/>
</svg>
