<svg width="74" height="74" viewBox="0 0 74 74" fill="none" xmlns="http://www.w3.org/2000/svg">
<path d="M15.8576 43.1666C13.5441 39.3779 12.3243 35.0228 12.3334 30.5835C12.3334 17.097 23.3779 6.16663 37 6.16663C50.6222 6.16663 61.6667 17.097 61.6667 30.5835C61.6758 35.0228 60.456 39.3779 58.1424 43.1666M46.25 58.5833L45.8492 60.5782C45.4175 62.7581 45.1986 63.8465 44.7084 64.7099C43.9529 66.0405 42.7298 67.0428 41.2766 67.5219C40.3362 67.8333 39.22 67.8333 37 67.8333C34.78 67.8333 33.6639 67.8333 32.7234 67.525C31.2698 67.0451 30.0465 66.0417 29.2917 64.7099C28.8014 63.8465 28.5825 62.7581 28.1509 60.5782L27.75 58.5833M37 49.3333V33.9166M22.7643 52.7188C22.4806 51.8678 22.3388 51.4392 22.3542 51.0939C22.3716 50.7368 22.4922 50.3924 22.7012 50.1024C22.9102 49.8124 23.1988 49.5892 23.532 49.4597C23.8527 49.3333 24.3029 49.3333 25.197 49.3333H48.803C49.7003 49.3333 50.1474 49.3333 50.468 49.4566C50.8017 49.5863 51.0906 49.81 51.2997 50.1006C51.5087 50.3912 51.629 50.7363 51.6459 51.0939C51.6613 51.4392 51.5194 51.8647 51.2358 52.7188C50.7116 54.2944 50.4495 55.0837 50.0456 55.722C49.2008 57.0558 47.8765 58.0148 46.3456 58.4014C45.6118 58.5833 44.7854 58.5833 43.1297 58.5833H30.8704C29.2146 58.5833 28.3852 58.5833 27.6544 58.3983C26.1241 58.0125 24.7999 57.0547 23.9544 55.722C23.5505 55.0837 23.2884 54.2944 22.7643 52.7188Z" stroke="#E84342" stroke-width="4" stroke-linecap="round" stroke-linejoin="round"/>
</svg>
