<svg width="68" height="68" viewBox="0 0 68 68" fill="none" xmlns="http://www.w3.org/2000/svg">
<path d="M59.5 22.6667C61.0029 22.6667 62.4442 23.2637 63.5069 24.3264C64.5696 25.3891 65.1666 26.8305 65.1666 28.3334V39.6667C65.1666 41.1696 64.5696 42.6109 63.5069 43.6736C62.4442 44.7364 61.0029 45.3334 59.5 45.3334H56.491C55.8008 50.8113 53.135 55.849 48.9939 59.5007C44.8528 63.1525 39.5212 65.1672 34 65.1667V59.5C38.5087 59.5 42.8327 57.709 46.0208 54.5209C49.2089 51.3327 51 47.0087 51 42.5V25.5C51 20.9914 49.2089 16.6673 46.0208 13.4792C42.8327 10.2911 38.5087 8.50004 34 8.50004C29.4913 8.50004 25.1673 10.2911 21.9792 13.4792C18.791 16.6673 17 20.9914 17 25.5V45.3334H8.49998C6.99709 45.3334 5.55575 44.7364 4.49304 43.6736C3.43034 42.6109 2.83331 41.1696 2.83331 39.6667V28.3334C2.83331 26.8305 3.43034 25.3891 4.49304 24.3264C5.55575 23.2637 6.99709 22.6667 8.49998 22.6667H11.509C12.2004 17.1896 14.8667 12.153 19.0076 8.50196C23.1485 4.85093 28.4794 2.83643 34 2.83643C39.5206 2.83643 44.8515 4.85093 48.9924 8.50196C53.1333 12.153 55.7996 17.1896 56.491 22.6667H59.5ZM21.9866 44.7242L24.99 39.9189C27.6902 41.6108 30.8135 42.5055 34 42.5C37.1865 42.5055 40.3097 41.6108 43.01 39.9189L46.0133 44.7242C42.4131 46.9804 38.2487 48.1737 34 48.1667C29.7512 48.1737 25.5869 46.9804 21.9866 44.7242Z" fill="#E84342"/>
</svg>
